<svg xmlns="http://www.w3.org/2000/svg" width="18.711" height="28.861" viewBox="0 0 18.711 28.861"><path d="M18.6971954,22.9972383 L17.9998195,28.8612417 L0,28.8612417 C0.276437038,25.4970859 1.55809953,22.5251919 3.84498747,19.9455597 L9.95173267,14.4405719 C12.0752715,12.4992033 13.1370409,10.5511833 13.1370409,8.59651211 C13.1370409,7.29340027 12.7852121,6.25623046 12.0815545,5.48500269 C11.3904616,4.70047228 10.4354973,4.30820708 9.21666168,4.30820708 C7.80934579,4.30820708 6.76014171,4.70712014 6.06904945,5.50494627 C5.61669751,6.03683035 5.27115105,6.85460005 5.03241006,7.95825537 C4.79366908,9.1283962 4.60518949,9.80654702 4.46697129,9.99270783 C4.2659257,10.059221 4.03346706,10.0924776 3.76959537,10.0924776 L1.39475047,10.0924776 C1.11831343,10.0924776 0.879572348,10.03264 0.678527212,9.91296467 C0.590570026,9.63372691 0.546591433,9.3212464 0.546591433,8.97552313 C0.546591433,6.19643433 1.40731579,3.98912024 3.1287645,2.35358084 C4.77482138,0.784526945 6.91720826,0 9.55592514,0 C12.0061624,0 14.0103308,0.691446539 15.5684302,2.07433962 C17.2270524,3.53702084 18.0563636,5.54487841 18.0563636,8.09791231 C18.0563636,10.6110591 17.1390953,12.9114536 15.3045589,14.9990958 C14.6637273,15.7437322 12.8417559,17.3327296 9.83864452,19.7660882 C7.65227957,21.561197 6.30779043,23.1767928 5.8051771,24.6128757 L14.5883359,24.6128757 L14.7391191,22.8177669 C14.8773379,22.1795102 15.2480151,21.8603818 15.8511506,21.8603818 L17.7359481,21.8603818 C18.4647364,21.8603818 18.7851522,22.2393478 18.6971954,22.9972799 L18.6971954,22.9972383 Z"/></svg>