<svg xmlns="http://www.w3.org/2000/svg" width="18.829" height="28.337" viewBox="0 0 18.829 28.337"><path d="M18.8291303,19.0648674 C18.8291303,21.9236314 18.0145904,24.1836028 16.3855106,25.8447816 C14.7690597,27.5059537 12.5590678,28.3365398 9.7555351,28.3365398 C3.25184503,28.3365398 1.77635684e-15,23.7522153 1.77635684e-15,14.5835663 C1.77635684e-15,10.5400886 0.700883115,7.26280853 2.10264935,4.75172617 C3.84538586,1.58390872 6.5478903,0 10.2101627,0 C12.3317547,0 14.0934337,0.444265932 15.4951998,1.3327978 C17.1747938,2.38874143 18.0145907,3.93402185 18.0145907,5.96863905 C18.0145907,6.41934078 17.7051919,6.64469165 17.0863943,6.64469165 L14.2828616,6.64469165 C13.9166341,6.64469165 13.6072353,6.43221577 13.3546651,6.00726399 C12.9884376,5.37627886 12.6979815,4.9706446 12.4832966,4.79036121 C11.9655273,4.36540944 11.207816,4.15293355 10.2101627,4.15293355 C8.53056868,4.15293355 7.22351623,4.95132708 6.28900532,6.54811415 C5.55655111,7.83584783 5.14612394,9.41975992 5.0577238,11.2998504 C6.53526175,10.1022584 8.30325522,9.50346244 10.3617042,9.50346244 C12.9758091,9.50346244 15.0595158,10.4435043 16.6128244,12.3235881 C18.0903617,14.1006586 18.8291303,16.3477516 18.8291303,19.0648674 L18.8291303,19.0648674 Z M13.8850629,18.9489723 C13.8850629,17.4809553 13.5251499,16.2704883 12.8053239,15.3175714 C12.0097273,14.2616278 10.9110457,13.733656 9.50927899,13.733656 C8.12014117,13.733656 7.03408807,14.2616278 6.25111969,15.3175714 C5.54392257,16.2704883 5.190324,17.4809553 5.190324,18.9489723 C5.190324,20.3525977 5.56286555,21.5437505 6.30794863,22.5224308 C7.1161741,23.591246 8.18959866,24.1256536 9.5282223,24.1256536 C10.892103,24.1256536 11.9781561,23.5976852 12.7863816,22.5417483 C13.5188358,21.5759463 13.8850629,20.3783544 13.8850629,18.9489723 L13.8850629,18.9489723 Z"/></svg>