<svg xmlns="http://www.w3.org/2000/svg" width="18.829" height="28.337" viewBox="0 0 18.829 28.337"><path d="M18.8291332,3.95162078 L10.8888834,27.4230935 C10.6782669,28.0320535 10.1447045,28.3365334 9.28819629,28.3365334 L6.17106896,28.3365334 C5.52517798,28.3365334 5.2022325,28.1445783 5.2022325,27.7606681 C5.2022325,27.3899957 6.52911778,23.6435614 9.18288836,16.5213652 C10.7274109,12.4174996 12.2649127,8.32025287 13.7953939,4.22962508 L4.46507389,4.22962508 C4.42295195,4.81210936 4.29658202,5.6593601 4.0859641,6.77137731 C3.8893882,6.89051785 3.67877131,6.95008812 3.45411342,6.95008812 L1.01096015,6.95008812 C0.336986718,6.95008812 0,6.71841948 0,6.25508222 C0,6.0300325 0.203596123,3.9450051 0.610788369,0 L18.8291332,0 L18.8291332,3.95162078 Z"/></svg>