<svg xmlns="http://www.w3.org/2000/svg" width="70" height="100" viewBox="0 0 70 100"><defs><filter id="a" width="119.3%" height="113.5%" x="-9.6%" y="-6.8%" filterUnits="objectBoundingBox"><feOffset dy="1" in="SourceAlpha" result="shadowOffsetOuter1"/><feGaussianBlur in="shadowOffsetOuter1" result="shadowBlurOuter1" stdDeviation="1"/><feColorMatrix in="shadowBlurOuter1" result="shadowMatrixOuter1" values="0 0 0 0 0 0 0 0 0 0 0 0 0 0 0 0 0 0 0.5 0"/><feMerge><feMergeNode in="shadowMatrixOuter1"/><feMergeNode in="SourceGraphic"/></feMerge></filter></defs><g fill="none" fill-rule="evenodd" filter="url(#a)"><rect width="70" height="100" fill="#FFF" fill-rule="nonzero" stroke="gray" stroke-width=".5" rx="2.681"/><path fill="#FFF" d="M6.36954201,4.21259341 C5.15812966,4.21259341 4.18252021,5.17616303 4.18252021,6.37365975 L4.18252021,93.659076 C4.18252021,94.8561934 5.15812966,95.8195802 6.36954201,95.8195802 L63.6998537,95.8195802 C64.9118217,95.8195802 65.8866935,94.8561934 65.8866935,93.659076 L65.8866935,6.37365975 C65.8866935,5.17616303 64.9118217,4.21259341 63.6998537,4.21259341 L6.36954201,4.21259341 Z"/><path stroke="red" stroke-width="1.068" d="M6.36954201,4.21259341 C4.86406743,4.21259341 4.18252021,5.17616303 4.18252021,6.37365975 L4.18252021,93.659076 C4.18252021,94.8561934 5.15812966,95.8195802 6.36954201,95.8195802 L63.6998537,95.8195802 C64.9118217,95.8195802 65.8866935,94.8561934 65.8866935,93.659076 L65.8866935,6.37365975 C65.8866935,5.17616303 64.9118217,4.21259341 63.6998537,4.21259341 L6.36954201,4.21259341 Z"/><path fill="#FFF" d="M6.98859397,6.33270853 C6.68339396,6.33270853 6.43801878,6.57542377 6.43801878,6.87666801 L6.43801878,93.1560647 C6.43801878,93.4571212 6.68339396,93.699838 6.98859397,93.699838 L62.9414582,93.699838 C63.2466556,93.699838 63.4925845,93.4571212 63.4925845,93.1560647 L63.4925845,6.87666801 C63.4925845,6.57542377 63.2466556,6.33270853 62.9414582,6.33270853 L6.98859397,6.33270853 Z"/><path fill="#CC2020" d="M18.0618562,17.7098598 C17.9138087,17.7098598 17.7946664,17.826543 17.7946664,17.9722095 L17.7946664,82.3359622 C17.7946664,82.4818153 17.9138087,82.5984985 18.0618562,82.5984985 L51.5320445,82.5984985 C51.6806443,82.5984985 51.7992298,82.4818153 51.7992298,82.3359622 L51.7992298,17.9722095 C51.7992298,17.826543 51.6806443,17.7098598 51.5320445,17.7098598 L18.0618562,17.7098598 L18.0618562,17.7098598 Z"/><path fill="#FFF" d="M23.3239793,19.9924708 C21.582424,19.9924708 20.1799392,21.3782679 20.1799392,23.0991549 L20.1799392,76.9333893 C20.1799392,78.6544641 21.582424,80.040078 23.3239793,80.040078 L45.9084184,80.040078 C47.6501591,80.040078 49.0524608,78.6544641 49.0524608,76.9333893 L49.0524608,23.0991549 C49.0524608,21.3782679 47.6501591,19.9924708 45.9084184,19.9924708 L23.3239793,19.9924708 Z"/><path fill="#CC2020" d="M23.6831552,22.4673092 C23.0919952,22.4673092 22.6158341,22.93348 22.6158341,23.5124073 L22.6158341,76.5197614 C22.6158341,77.0990657 23.0919952,77.5650514 23.6831552,77.5650514 L45.6300339,77.5650514 C46.2219356,77.5650514 46.6986554,77.0990657 46.6986554,76.5197614 L46.6986554,23.5124073 C46.6986554,22.93348 46.2219356,22.4673092 45.6300339,22.4673092 L23.6831552,22.4673092 Z"/><path stroke="red" stroke-width=".615" d="M18.3172201,17.5006152 C18.1696357,17.5006152 18.050866,17.6174963 18.050866,17.7634102 L18.050866,82.2364061 C18.050866,82.3825071 18.1696357,82.4993893 18.3172201,82.4993893 L51.6827823,82.4993893 C51.830914,82.4993893 51.9491326,82.3825071 51.9491326,82.2364061 L51.9491326,17.7634102 C51.9491326,17.6174963 51.830914,17.5006152 51.6827823,17.5006152 L18.3172201,17.5006152 L18.3172201,17.5006152 Z"/><path stroke="red" stroke-linejoin="round" stroke-width=".774" d="M23.668843,19.9251769 C21.921283,19.9251769 20.513962,21.3133262 20.513962,23.0371341 L20.513962,76.9627394 C20.513962,78.6867357 21.921283,80.074704 23.668843,80.074704 L46.3311567,80.074704 C48.0788994,80.074704 49.486035,78.6867357 49.486035,76.9627394 L49.486035,23.0371341 C49.486035,21.3133262 48.0788994,19.9251769 46.3311567,19.9251769 L23.668843,19.9251769 Z"/><path stroke="red" stroke-linejoin="round" stroke-width=".674" d="M24.0891055,22.4030871 C23.5013536,22.4030871 23.0279378,22.8700491 23.0279378,23.449959 L23.0279378,76.5472828 C23.0279378,77.1275709 23.5013536,77.5943489 24.0891055,77.5943489 L45.9094556,77.5943489 C46.4979463,77.5943489 46.9719139,77.1275709 46.9719139,76.5472828 L46.9719139,23.449959 C46.9719139,22.8700491 46.4979463,22.4030871 45.9094556,22.4030871 L24.0891055,22.4030871 Z"/><polygon fill="red" points="7.036 6.956 9.548 6.956 7.06 9.408 7.036 6.956"/><polygon fill="red" points="62.856 6.987 60.344 6.987 62.832 9.439 62.856 6.987"/><polygon fill="red" points="62.901 93.155 60.389 93.155 62.877 90.703 62.901 93.155"/><polygon fill="red" points="7.034 93.142 9.546 93.142 7.058 90.69"/><path stroke="red" stroke-width="1.003" d="M7.02329834,6.31643679 C6.71809833,6.31643679 6.47272314,6.55915203 6.47272314,6.86039627 L6.47272314,93.1397937 C6.47272314,93.4408502 6.71809833,93.683567 7.02329834,93.683567 L62.976164,93.683567 C63.2813614,93.683567 63.5272904,93.4408502 63.5272904,93.1397937 L63.5272904,6.86039627 C63.5272904,6.55915203 63.2813614,6.31643679 62.976164,6.31643679 L7.02329834,6.31643679 Z"/><polygon stroke="red" stroke-width=".5" points="7.071 6.94 9.582 6.94 7.095 9.392 7.071 6.94"/><polygon fill="red" fill-rule="nonzero" stroke="red" stroke-width=".5" points="62.939 6.94 60.424 6.94 62.915 9.392 62.939 6.94"/><polygon fill="red" fill-rule="nonzero" stroke="red" stroke-width=".5" points="62.936 93.138 60.424 93.138 62.912 90.687 62.936 93.138"/><polygon fill="red" fill-rule="nonzero" stroke="red" stroke-width=".5" points="7.069 93.126 9.58 93.126 7.093 90.674"/><g transform="translate(8.041 17.44)"><polygon fill="#CC2020" points=".073 35.894 .073 38.25 8.528 33.844 8.528 31.429"/><polygon stroke="red" stroke-linecap="round" stroke-linejoin="round" stroke-width=".5" points=".073 35.894 .073 38.25 8.528 33.844 8.528 31.429"/><polygon fill="#CC2020" points=".116 40.35 .116 42.707 8.571 38.299 8.571 35.885"/><polygon stroke="red" stroke-linecap="round" stroke-linejoin="round" stroke-width=".5" points=".116 40.35 .116 42.707 8.571 38.299 8.571 35.885"/><polygon fill="#CC2020" points=".135 31.376 .135 33.733 8.59 29.325 8.59 26.911"/><polygon stroke="red" stroke-linecap="round" stroke-linejoin="round" stroke-width=".5" points=".135 31.376 .135 33.733 8.59 29.325 8.59 26.911"/><polygon fill="#FFF" points=".095 33.829 .095 31.473 8.55 35.88 8.55 38.294"/><polygon stroke="red" stroke-linecap="round" stroke-linejoin="round" stroke-width=".5" points=".095 33.829 .095 31.473 8.55 35.88 8.55 38.294"/><polygon fill="#CC2020" points=".092 26.92 .092 29.276 8.547 24.869 8.547 22.455"/><polygon stroke="red" stroke-linecap="round" stroke-linejoin="round" stroke-width=".5" points=".092 26.92 .092 29.276 8.547 24.869 8.547 22.455"/><polygon fill="#FFF" points=".05 29.288 .05 26.931 8.505 31.338 8.505 33.752"/><polygon stroke="red" stroke-linecap="round" stroke-linejoin="round" stroke-width=".5" points=".05 29.288 .05 26.931 8.505 31.338 8.505 33.752"/><polygon fill="#CC2020" points=".128 44.847 .128 47.203 8.583 42.797 8.583 40.382"/><polygon stroke="red" stroke-linecap="round" stroke-linejoin="round" stroke-width=".5" points=".128 44.847 .128 47.203 8.583 42.797 8.583 40.382"/><polygon fill="#FFF" points=".031 38.262 .031 35.905 8.486 40.312 8.486 42.726"/><polygon stroke="red" stroke-linecap="round" stroke-linejoin="round" stroke-width=".5" points=".031 38.262 .031 35.905 8.486 40.312 8.486 42.726"/><polygon fill="#CC2020" points=".042 13.439 .042 15.795 8.497 11.388 8.497 8.974"/><polygon stroke="red" stroke-linecap="round" stroke-linejoin="round" stroke-width=".5" points=".042 13.439 .042 15.795 8.497 11.388 8.497 8.974"/><polygon fill="#CC2020" points=".085 17.895 .085 20.252 8.54 15.845 8.54 13.43"/><polygon stroke="red" stroke-linecap="round" stroke-linejoin="round" stroke-width=".5" points=".085 17.895 .085 20.252 8.54 15.845 8.54 13.43"/><polygon fill="#CC2020" points=".104 8.921 .104 11.278 8.559 6.87 8.559 4.456"/><polygon stroke="red" stroke-linecap="round" stroke-linejoin="round" stroke-width=".5" points=".104 8.921 .104 11.278 8.559 6.87 8.559 4.456"/><polygon fill="#FFF" points=".064 11.375 .064 9.018 8.519 13.425 8.519 15.839"/><polygon stroke="red" stroke-linecap="round" stroke-linejoin="round" stroke-width=".5" points=".064 11.375 .064 9.018 8.519 13.425 8.519 15.839"/><polygon fill="#CC2020" points=".061 4.465 .061 6.821 8.516 2.414 8.516 0"/><polygon stroke="red" stroke-linecap="round" stroke-linejoin="round" stroke-width=".5" points=".061 4.465 .061 6.821 8.516 2.414 8.516 0"/><polygon fill="#FFF" points=".019 6.833 .019 4.476 8.474 8.883 8.474 11.297"/><polygon stroke="red" stroke-linecap="round" stroke-linejoin="round" stroke-width=".5" points=".019 6.833 .019 4.476 8.474 8.883 8.474 11.297"/><polygon fill="#FFF" points=".082 2.4 .082 .044 8.538 4.451 8.538 6.865"/><polygon stroke="red" stroke-linecap="round" stroke-linejoin="round" stroke-width=".5" points=".082 2.4 .082 .044 8.538 4.451 8.538 6.865"/><polygon fill="#CC2020" points=".097 22.392 .097 24.749 8.552 20.341 8.552 17.927"/><polygon stroke="red" stroke-linecap="round" stroke-linejoin="round" stroke-width=".5" points=".097 22.392 .097 24.749 8.552 20.341 8.552 17.927"/><polygon fill="#FFF" points="0 15.807 0 13.45 8.455 17.857 8.455 20.272"/><polygon stroke="red" stroke-linecap="round" stroke-linejoin="round" stroke-width=".5" points="0 15.807 0 13.45 8.455 17.857 8.455 20.272"/><polygon fill="#FFF" points=".114 24.855 .114 22.499 8.569 26.906 8.569 29.32"/><polygon stroke="red" stroke-linecap="round" stroke-linejoin="round" stroke-width=".5" points=".114 24.855 .114 22.499 8.569 26.906 8.569 29.32"/><polygon fill="#FFF" points=".012 20.304 .012 17.947 8.467 22.354 8.467 24.768"/><polygon stroke="red" stroke-linecap="round" stroke-linejoin="round" stroke-width=".5" points=".012 20.304 .012 17.947 8.467 22.354 8.467 24.768"/><polygon fill="#CC2020" points=".073 58.287 .073 60.644 8.528 56.236 8.528 53.821"/><polygon stroke="red" stroke-linecap="round" stroke-linejoin="round" stroke-width=".5" points=".073 58.287 .073 60.644 8.528 56.236 8.528 53.821"/><polygon fill="#CC2020" points=".116 62.743 .116 65.1 8.571 60.693 8.571 58.279"/><polygon stroke="red" stroke-linecap="round" stroke-linejoin="round" stroke-width=".5" points=".116 62.743 .116 65.1 8.571 60.693 8.571 58.279"/><polygon fill="#FFF" points=".031 60.655 .031 58.298 8.486 62.705 8.486 65.12"/><polygon stroke="red" stroke-linecap="round" stroke-linejoin="round" stroke-width=".5" points=".031 60.655 .031 58.298 8.486 62.705 8.486 65.12"/><polygon fill="#CC2020" points=".135 53.769 .135 56.125 8.59 51.718 8.59 49.304"/><polygon fill="#CC2020" points=".092 49.313 .092 51.669 8.547 47.262 8.547 44.849"/><polygon stroke="red" stroke-linecap="round" stroke-linejoin="round" stroke-width=".5" points=".092 49.313 .092 51.669 8.547 47.262 8.547 44.849"/><polygon fill="#FFF" points=".043 42.758 .043 40.402 8.498 44.809 8.498 47.224"/><polygon stroke="red" stroke-linecap="round" stroke-linejoin="round" stroke-width=".5" points=".043 42.758 .043 40.402 8.498 44.809 8.498 47.224"/><polygon stroke="red" stroke-linecap="round" stroke-linejoin="round" stroke-width=".5" points=".135 53.769 .135 56.125 8.59 51.718 8.59 49.304"/><polygon fill="#FFF" points=".095 56.223 .095 53.866 8.55 58.273 8.55 60.688"/><polygon stroke="red" stroke-linecap="round" stroke-linejoin="round" stroke-width=".5" points=".095 56.223 .095 53.866 8.55 58.273 8.55 60.688"/><polygon fill="#FFF" points=".05 51.681 .05 49.324 8.505 53.731 8.505 56.145"/><polygon stroke="red" stroke-linecap="round" stroke-linejoin="round" stroke-width=".5" points=".05 51.681 .05 49.324 8.505 53.731 8.505 56.145"/><polygon fill="#FFF" points=".114 47.249 .114 44.892 8.569 49.299 8.569 51.713"/><polygon stroke="red" stroke-linecap="round" stroke-linejoin="round" stroke-width=".5" points=".114 47.249 .114 44.892 8.569 49.299 8.569 51.713"/></g><path stroke="red" stroke-width=".5" d="M66.3800229,93.7009607 C66.3800229,95.1464089 65.2166521,96.331938 63.789683,96.331938 L6.16742503,96.331938 C4.74432379,96.331938 3.58095544,95.1464089 3.58095544,93.7009607 L3.58095544,6.22331814 C3.58095544,4.77600034 4.74432379,3.59252825 6.16742503,3.59252825 L63.789683,3.59252825 C65.2166521,3.59252825 66.3800229,4.77600034 66.3800229,6.22331814 L66.3800229,93.7009607 Z"/><g transform="translate(53.305 17.44)"><polygon fill="#CC2020" points=".073 35.894 .073 38.25 8.528 33.844 8.528 31.429"/><polygon stroke="red" stroke-linecap="round" stroke-linejoin="round" stroke-width=".5" points=".073 35.894 .073 38.25 8.528 33.844 8.528 31.429"/><polygon fill="#CC2020" points=".116 40.35 .116 42.707 8.571 38.299 8.571 35.885"/><polygon stroke="red" stroke-linecap="round" stroke-linejoin="round" stroke-width=".5" points=".116 40.35 .116 42.707 8.571 38.299 8.571 35.885"/><polygon fill="#CC2020" points=".135 31.376 .135 33.733 8.59 29.325 8.59 26.911"/><polygon stroke="red" stroke-linecap="round" stroke-linejoin="round" stroke-width=".5" points=".135 31.376 .135 33.733 8.59 29.325 8.59 26.911"/><polygon fill="#FFF" points=".095 33.829 .095 31.473 8.55 35.88 8.55 38.294"/><polygon stroke="red" stroke-linecap="round" stroke-linejoin="round" stroke-width=".5" points=".095 33.829 .095 31.473 8.55 35.88 8.55 38.294"/><polygon fill="#CC2020" points=".092 26.92 .092 29.276 8.547 24.869 8.547 22.455"/><polygon stroke="red" stroke-linecap="round" stroke-linejoin="round" stroke-width=".5" points=".092 26.92 .092 29.276 8.547 24.869 8.547 22.455"/><polygon fill="#FFF" points=".05 29.288 .05 26.931 8.505 31.338 8.505 33.752"/><polygon stroke="red" stroke-linecap="round" stroke-linejoin="round" stroke-width=".5" points=".05 29.288 .05 26.931 8.505 31.338 8.505 33.752"/><polygon fill="#CC2020" points=".128 44.847 .128 47.203 8.583 42.797 8.583 40.382"/><polygon stroke="red" stroke-linecap="round" stroke-linejoin="round" stroke-width=".5" points=".128 44.847 .128 47.203 8.583 42.797 8.583 40.382"/><polygon fill="#FFF" points=".031 38.262 .031 35.905 8.486 40.312 8.486 42.726"/><polygon stroke="red" stroke-linecap="round" stroke-linejoin="round" stroke-width=".5" points=".031 38.262 .031 35.905 8.486 40.312 8.486 42.726"/><polygon fill="#CC2020" points=".042 13.439 .042 15.795 8.497 11.388 8.497 8.974"/><polygon stroke="red" stroke-linecap="round" stroke-linejoin="round" stroke-width=".5" points=".042 13.439 .042 15.795 8.497 11.388 8.497 8.974"/><polygon fill="#CC2020" points=".085 17.895 .085 20.252 8.54 15.845 8.54 13.43"/><polygon stroke="red" stroke-linecap="round" stroke-linejoin="round" stroke-width=".5" points=".085 17.895 .085 20.252 8.54 15.845 8.54 13.43"/><polygon fill="#CC2020" points=".104 8.921 .104 11.278 8.559 6.87 8.559 4.456"/><polygon stroke="red" stroke-linecap="round" stroke-linejoin="round" stroke-width=".5" points=".104 8.921 .104 11.278 8.559 6.87 8.559 4.456"/><polygon fill="#FFF" points=".064 11.375 .064 9.018 8.519 13.425 8.519 15.839"/><polygon stroke="red" stroke-linecap="round" stroke-linejoin="round" stroke-width=".5" points=".064 11.375 .064 9.018 8.519 13.425 8.519 15.839"/><polygon fill="#CC2020" points=".061 4.465 .061 6.821 8.516 2.414 8.516 0"/><polygon stroke="red" stroke-linecap="round" stroke-linejoin="round" stroke-width=".5" points=".061 4.465 .061 6.821 8.516 2.414 8.516 0"/><polygon fill="#FFF" points=".019 6.833 .019 4.476 8.474 8.883 8.474 11.297"/><polygon stroke="red" stroke-linecap="round" stroke-linejoin="round" stroke-width=".5" points=".019 6.833 .019 4.476 8.474 8.883 8.474 11.297"/><polygon fill="#FFF" points=".082 2.4 .082 .044 8.538 4.451 8.538 6.865"/><polygon stroke="red" stroke-linecap="round" stroke-linejoin="round" stroke-width=".5" points=".082 2.4 .082 .044 8.538 4.451 8.538 6.865"/><polygon fill="#CC2020" points=".097 22.392 .097 24.749 8.552 20.341 8.552 17.927"/><polygon stroke="red" stroke-linecap="round" stroke-linejoin="round" stroke-width=".5" points=".097 22.392 .097 24.749 8.552 20.341 8.552 17.927"/><polygon fill="#FFF" points="0 15.807 0 13.45 8.455 17.857 8.455 20.272"/><polygon stroke="red" stroke-linecap="round" stroke-linejoin="round" stroke-width=".5" points="0 15.807 0 13.45 8.455 17.857 8.455 20.272"/><polygon fill="#FFF" points=".114 24.855 .114 22.499 8.569 26.906 8.569 29.32"/><polygon stroke="red" stroke-linecap="round" stroke-linejoin="round" stroke-width=".5" points=".114 24.855 .114 22.499 8.569 26.906 8.569 29.32"/><polygon fill="#FFF" points=".012 20.304 .012 17.947 8.467 22.354 8.467 24.768"/><polygon stroke="red" stroke-linecap="round" stroke-linejoin="round" stroke-width=".5" points=".012 20.304 .012 17.947 8.467 22.354 8.467 24.768"/><polygon fill="#CC2020" points=".073 58.287 .073 60.644 8.528 56.236 8.528 53.821"/><polygon stroke="red" stroke-linecap="round" stroke-linejoin="round" stroke-width=".5" points=".073 58.287 .073 60.644 8.528 56.236 8.528 53.821"/><polygon fill="#CC2020" points=".116 62.743 .116 65.1 8.571 60.693 8.571 58.279"/><polygon stroke="red" stroke-linecap="round" stroke-linejoin="round" stroke-width=".5" points=".116 62.743 .116 65.1 8.571 60.693 8.571 58.279"/><polygon fill="#FFF" points=".031 60.655 .031 58.298 8.486 62.705 8.486 65.12"/><polygon stroke="red" stroke-linecap="round" stroke-linejoin="round" stroke-width=".5" points=".031 60.655 .031 58.298 8.486 62.705 8.486 65.12"/><polygon fill="#CC2020" points=".135 53.769 .135 56.125 8.59 51.718 8.59 49.304"/><polygon fill="#CC2020" points=".092 49.313 .092 51.669 8.547 47.262 8.547 44.849"/><polygon stroke="red" stroke-linecap="round" stroke-linejoin="round" stroke-width=".5" points=".092 49.313 .092 51.669 8.547 47.262 8.547 44.849"/><polygon fill="#FFF" points=".043 42.758 .043 40.402 8.498 44.809 8.498 47.224"/><polygon stroke="red" stroke-linecap="round" stroke-linejoin="round" stroke-width=".5" points=".043 42.758 .043 40.402 8.498 44.809 8.498 47.224"/><polygon stroke="red" stroke-linecap="round" stroke-linejoin="round" stroke-width=".5" points=".135 53.769 .135 56.125 8.59 51.718 8.59 49.304"/><polygon fill="#FFF" points=".095 56.223 .095 53.866 8.55 58.273 8.55 60.688"/><polygon stroke="red" stroke-linecap="round" stroke-linejoin="round" stroke-width=".5" points=".095 56.223 .095 53.866 8.55 58.273 8.55 60.688"/><polygon fill="#FFF" points=".05 51.681 .05 49.324 8.505 53.731 8.505 56.145"/><polygon stroke="red" stroke-linecap="round" stroke-linejoin="round" stroke-width=".5" points=".05 51.681 .05 49.324 8.505 53.731 8.505 56.145"/><polygon fill="#FFF" points=".114 47.249 .114 44.892 8.569 49.299 8.569 51.713"/><polygon stroke="red" stroke-linecap="round" stroke-linejoin="round" stroke-width=".5" points=".114 47.249 .114 44.892 8.569 49.299 8.569 51.713"/></g><polygon fill="#CC2020" points="38.372 83.765 36.022 83.765 40.416 92.245 42.823 92.245"/><polygon stroke="red" stroke-linecap="round" stroke-linejoin="round" stroke-width=".5" points="38.372 83.765 36.022 83.765 40.416 92.245 42.823 92.245"/><polygon fill="#CC2020" points="33.928 83.808 31.578 83.808 35.973 92.288 38.38 92.288"/><polygon stroke="red" stroke-linecap="round" stroke-linejoin="round" stroke-width=".5" points="33.928 83.808 31.578 83.808 35.973 92.288 38.38 92.288"/><polygon fill="#CC2020" points="42.876 83.827 40.527 83.827 44.921 92.307 47.328 92.307"/><polygon stroke="red" stroke-linecap="round" stroke-linejoin="round" stroke-width=".5" points="42.876 83.827 40.527 83.827 44.921 92.307 47.328 92.307"/><polygon fill="#FFF" points="40.43 83.787 42.779 83.787 38.385 92.267 35.978 92.267"/><polygon stroke="red" stroke-linecap="round" stroke-linejoin="round" stroke-width=".5" points="40.43 83.787 42.779 83.787 38.385 92.267 35.978 92.267"/><polygon fill="#CC2027" points="47.32 83.784 44.97 83.784 49.364 92.264 51.772 92.264"/><polygon stroke="red" stroke-linecap="round" stroke-linejoin="round" stroke-width=".5" points="47.32 83.784 44.97 83.784 49.364 92.264 51.772 92.264"/><polygon fill="#FFF" points="44.959 83.742 47.308 83.742 42.914 92.221 40.507 92.221"/><polygon stroke="red" stroke-linecap="round" stroke-linejoin="round" stroke-width=".5" points="44.959 83.742 47.308 83.742 42.914 92.221 40.507 92.221"/><polygon fill="#CC2020" points="29.444 83.82 27.095 83.82 31.489 92.3 33.896 92.3"/><polygon stroke="red" stroke-linecap="round" stroke-linejoin="round" stroke-width=".5" points="29.444 83.82 27.095 83.82 31.489 92.3 33.896 92.3"/><polygon fill="#FFF" points="36.01 83.723 38.36 83.723 33.966 92.202 31.559 92.202"/><polygon stroke="red" stroke-linecap="round" stroke-linejoin="round" stroke-width=".5" points="36.01 83.723 38.36 83.723 33.966 92.202 31.559 92.202"/><polygon fill="#CC2020" points="56.319 83.777 53.968 83.777 58.363 92.257 60.77 92.257"/><polygon stroke="red" stroke-linecap="round" stroke-linejoin="round" stroke-width=".5" points="56.319 83.777 53.968 83.777 58.363 92.257 60.77 92.257"/><polygon fill="#CC2020" points="51.834 83.789 49.485 83.789 53.879 92.269 56.286 92.269"/><polygon stroke="red" stroke-linecap="round" stroke-linejoin="round" stroke-width=".5" points="51.834 83.789 49.485 83.789 53.879 92.269 56.286 92.269"/><polygon fill="#FFF" points="58.4 83.692 60.75 83.692 56.356 92.172 53.949 92.172"/><polygon stroke="red" stroke-linecap="round" stroke-linejoin="round" stroke-width=".5" points="58.4 83.692 60.75 83.692 56.356 92.172 53.949 92.172"/><polygon fill="#FFF" points="49.378 83.806 51.728 83.806 47.333 92.285 44.926 92.285"/><polygon stroke="red" stroke-linecap="round" stroke-linejoin="round" stroke-width=".5" points="49.378 83.806 51.728 83.806 47.333 92.285 44.926 92.285"/><polygon fill="#FFF" points="53.917 83.704 56.266 83.704 51.872 92.183 49.465 92.183"/><polygon stroke="red" stroke-linecap="round" stroke-linejoin="round" stroke-width=".5" points="53.917 83.704 56.266 83.704 51.872 92.183 49.465 92.183"/><polygon fill="#CC2020" points="16.043 83.765 13.693 83.765 18.088 92.245 20.496 92.245"/><polygon stroke="red" stroke-linecap="round" stroke-linejoin="round" stroke-width=".5" points="16.043 83.765 13.693 83.765 18.088 92.245 20.496 92.245"/><polygon fill="#CC2020" points="11.6 83.808 9.25 83.808 13.644 92.288 16.051 92.288"/><polygon stroke="red" stroke-linecap="round" stroke-linejoin="round" stroke-width=".5" points="11.6 83.808 9.25 83.808 13.644 92.288 16.051 92.288"/><polygon fill="#FFF" points="13.681 83.723 16.032 83.723 11.637 92.202 9.23 92.202"/><polygon stroke="red" stroke-linecap="round" stroke-linejoin="round" stroke-width=".5" points="13.681 83.723 16.032 83.723 11.637 92.202 9.23 92.202"/><polygon fill="#CC2020" points="20.548 83.827 18.199 83.827 22.593 92.307 25 92.307"/><polygon fill="#CC2020" points="24.991 83.784 22.642 83.784 27.037 92.264 29.443 92.264"/><polygon stroke="red" stroke-linecap="round" stroke-linejoin="round" stroke-width=".5" points="24.991 83.784 22.642 83.784 27.037 92.264 29.443 92.264"/><polygon fill="#FFF" points="31.527 83.735 33.876 83.735 29.482 92.214 27.074 92.214"/><polygon stroke="red" stroke-linecap="round" stroke-linejoin="round" stroke-width=".5" points="31.527 83.735 33.876 83.735 29.482 92.214 27.074 92.214"/><polygon stroke="red" stroke-linecap="round" stroke-linejoin="round" stroke-width=".5" points="20.548 83.827 18.199 83.827 22.593 92.307 25 92.307"/><polygon fill="#FFF" points="18.101 83.787 20.452 83.787 16.057 92.267 13.649 92.267"/><polygon stroke="red" stroke-linecap="round" stroke-linejoin="round" stroke-width=".5" points="18.101 83.787 20.452 83.787 16.057 92.267 13.649 92.267"/><polygon fill="#FFF" points="22.63 83.742 24.98 83.742 20.585 92.221 18.179 92.221"/><polygon stroke="red" stroke-linecap="round" stroke-linejoin="round" stroke-width=".5" points="22.63 83.742 24.98 83.742 20.585 92.221 18.179 92.221"/><polygon fill="#FFF" points="27.05 83.806 29.399 83.806 25.005 92.285 22.598 92.285"/><polygon stroke="red" stroke-linecap="round" stroke-linejoin="round" stroke-width=".5" points="27.05 83.806 29.399 83.806 25.005 92.285 22.598 92.285"/><polygon fill="#CC2020" points="38.372 7.767 36.022 7.767 40.416 16.246 42.824 16.246"/><polygon stroke="red" stroke-linecap="round" stroke-linejoin="round" stroke-width=".5" points="38.372 7.767 36.022 7.767 40.416 16.246 42.824 16.246"/><polygon fill="#CC2020" points="33.928 7.81 31.579 7.81 35.973 16.289 38.38 16.289"/><polygon stroke="red" stroke-linecap="round" stroke-linejoin="round" stroke-width=".5" points="33.928 7.81 31.579 7.81 35.973 16.289 38.38 16.289"/><polygon fill="#CC2020" points="42.876 7.829 40.527 7.829 44.922 16.308 47.328 16.308"/><polygon stroke="red" stroke-linecap="round" stroke-linejoin="round" stroke-width=".5" points="42.876 7.829 40.527 7.829 44.922 16.308 47.328 16.308"/><polygon fill="#FFF" points="40.43 7.788 42.78 7.788 38.385 16.268 35.978 16.268"/><polygon stroke="red" stroke-linecap="round" stroke-linejoin="round" stroke-width=".5" points="40.43 7.788 42.78 7.788 38.385 16.268 35.978 16.268"/><polygon fill="#CC2020" points="47.32 7.786 44.97 7.786 49.364 16.265 51.772 16.265"/><polygon stroke="red" stroke-linecap="round" stroke-linejoin="round" stroke-width=".5" points="47.32 7.786 44.97 7.786 49.364 16.265 51.772 16.265"/><polygon fill="#FFF" points="44.959 7.743 47.308 7.743 42.914 16.223 40.507 16.223"/><polygon stroke="red" stroke-linecap="round" stroke-linejoin="round" stroke-width=".5" points="44.959 7.743 47.308 7.743 42.914 16.223 40.507 16.223"/><polygon fill="#CC2020" points="29.444 7.822 27.095 7.822 31.489 16.301 33.896 16.301"/><polygon stroke="red" stroke-linecap="round" stroke-linejoin="round" stroke-width=".5" points="29.444 7.822 27.095 7.822 31.489 16.301 33.896 16.301"/><polygon fill="#FFF" points="36.011 7.725 38.36 7.725 33.966 16.204 31.559 16.204"/><polygon stroke="red" stroke-linecap="round" stroke-linejoin="round" stroke-width=".5" points="36.011 7.725 38.36 7.725 33.966 16.204 31.559 16.204"/><polygon fill="#CC2020" points="56.319 7.778 53.968 7.778 58.363 16.258 60.771 16.258"/><polygon stroke="red" stroke-linecap="round" stroke-linejoin="round" stroke-width=".5" points="56.319 7.778 53.968 7.778 58.363 16.258 60.771 16.258"/><polygon fill="#CC2020" points="51.834 7.79 49.485 7.79 53.879 16.27 56.286 16.27"/><polygon stroke="red" stroke-linecap="round" stroke-linejoin="round" stroke-width=".5" points="51.834 7.79 49.485 7.79 53.879 16.27 56.286 16.27"/><polygon fill="#FFF" points="58.401 7.693 60.75 7.693 56.356 16.173 53.949 16.173"/><polygon stroke="red" stroke-linecap="round" stroke-linejoin="round" stroke-width=".5" points="58.401 7.693 60.75 7.693 56.356 16.173 53.949 16.173"/><polygon fill="#FFF" points="49.378 7.807 51.728 7.807 47.333 16.287 44.927 16.287"/><polygon stroke="red" stroke-linecap="round" stroke-linejoin="round" stroke-width=".5" points="49.378 7.807 51.728 7.807 47.333 16.287 44.927 16.287"/><polygon fill="#FFF" points="53.917 7.705 56.267 7.705 51.872 16.185 49.465 16.185"/><polygon stroke="red" stroke-linecap="round" stroke-linejoin="round" stroke-width=".5" points="53.917 7.705 56.267 7.705 51.872 16.185 49.465 16.185"/><polygon fill="#CC2020" points="16.043 7.767 13.693 7.767 18.088 16.246 20.496 16.246"/><polygon stroke="red" stroke-linecap="round" stroke-linejoin="round" stroke-width=".5" points="16.043 7.767 13.693 7.767 18.088 16.246 20.496 16.246"/><polygon fill="#CC2020" points="11.6 7.81 9.25 7.81 13.645 16.289 16.052 16.289"/><polygon stroke="red" stroke-linecap="round" stroke-linejoin="round" stroke-width=".5" points="11.6 7.81 9.25 7.81 13.645 16.289 16.052 16.289"/><polygon fill="#FFF" points="13.682 7.725 16.032 7.725 11.637 16.204 9.23 16.204"/><polygon stroke="red" stroke-linecap="round" stroke-linejoin="round" stroke-width=".5" points="13.682 7.725 16.032 7.725 11.637 16.204 9.23 16.204"/><polygon fill="#CC2020" points="20.548 7.829 18.199 7.829 22.593 16.308 25 16.308"/><polygon fill="#CC2020" points="24.991 7.786 22.642 7.786 27.037 16.265 29.443 16.265"/><polygon stroke="red" stroke-linecap="round" stroke-linejoin="round" stroke-width=".5" points="24.991 7.786 22.642 7.786 27.037 16.265 29.443 16.265"/><polygon fill="#FFF" points="31.527 7.736 33.876 7.736 29.482 16.216 27.074 16.216"/><polygon stroke="red" stroke-linecap="round" stroke-linejoin="round" stroke-width=".5" points="31.527 7.736 33.876 7.736 29.482 16.216 27.074 16.216"/><polygon stroke="red" stroke-linecap="round" stroke-linejoin="round" stroke-width=".5" points="20.548 7.829 18.199 7.829 22.593 16.308 25 16.308"/><polygon fill="#FFF" stroke="red" stroke-linecap="round" stroke-linejoin="round" stroke-width=".5" points="18.102 7.788 20.452 7.788 16.057 16.268 13.649 16.268"/><polygon stroke="red" stroke-linecap="round" stroke-linejoin="round" stroke-width=".5" points="18.102 7.788 20.452 7.788 16.057 16.268 13.649 16.268"/><polygon fill="#FFF" points="22.63 7.743 24.98 7.743 20.586 16.223 18.179 16.223"/><polygon stroke="red" stroke-linecap="round" stroke-linejoin="round" stroke-width=".5" points="22.63 7.743 24.98 7.743 20.586 16.223 18.179 16.223"/><polygon fill="#FFF" points="27.05 7.807 29.399 7.807 25.005 16.287 22.598 16.287"/><polygon stroke="red" stroke-linecap="round" stroke-linejoin="round" stroke-width=".5" points="27.05 7.807 29.399 7.807 25.005 16.287 22.598 16.287"/></g></svg>