<svg xmlns="http://www.w3.org/2000/svg" width="42" height="64" viewBox="0 0 42 64"><g fill="none" fill-rule="evenodd"><rect width="42" height="64"/><g fill="#000" fill-rule="nonzero" transform="translate(15 4)"><rect width="1.094" height="3.876" x="5.867" y="9.233"/><path d="M12.4244219,7.37938966 C13.2857056,8.96308377 12.7272022,10.9601983 11.1769814,11.8400728 C9.62675936,12.7199459 7.67185649,12.149389 6.81058565,10.5656963 C6.5812008,10.143921 6.44572519,9.67564481 6.41430665,9.19480572 C6.29445691,11.002887 4.76259461,12.3685154 2.99326382,12.2455792 C1.22394714,12.1226415 -0.112809753,10.5576929 0.0075274896,8.75016749 C0.127864732,6.94264209 1.65973987,5.57701369 3.42905654,5.69994989 C3.89354804,5.73222431 4.34560938,5.86729747 4.75975937,6.09614318 C3.24345752,5.16686003 2.74718827,3.15266644 3.65715848,1.59765211 C4.56712998,0.0426378326 6.53874921,-0.464345651 8.06089986,0.465272971 C9.58303769,1.3948918 10.0793082,3.40908549 9.16933672,4.96409973 C8.89555025,5.43197477 8.5119336,5.82277217 8.05561426,6.10309125 C9.60824693,5.22514002 11.5631511,5.795697 12.4244219,7.37938966 L12.4244219,7.37938966 Z"/><g transform="translate(0 21)"><rect width="1.094" height="3.876" x="5.867" y="9.233"/><path d="M12.4244219,7.37938966 C13.2857056,8.96308377 12.7272022,10.9601983 11.1769814,11.8400728 C9.62675936,12.7199459 7.67185649,12.149389 6.81058565,10.5656963 C6.5812008,10.143921 6.44572519,9.67564481 6.41430665,9.19480572 C6.29445691,11.002887 4.76259461,12.3685154 2.99326382,12.2455792 C1.22394714,12.1226415 -0.112809753,10.5576929 0.0075274896,8.75016749 C0.127864732,6.94264209 1.65973987,5.57701369 3.42905654,5.69994989 C3.89354804,5.73222431 4.34560938,5.86729747 4.75975937,6.09614318 C3.24345752,5.16686003 2.74718827,3.15266644 3.65715848,1.59765211 C4.56712998,0.0426378326 6.53874921,-0.464345651 8.06089986,0.465272971 C9.58303769,1.3948918 10.0793082,3.40908549 9.16933672,4.96409973 C8.89555025,5.43197477 8.5119336,5.82277217 8.05561426,6.10309125 C9.60824693,5.22514002 11.5631511,5.795697 12.4244219,7.37938966 L12.4244219,7.37938966 Z"/></g><g transform="matrix(1 0 0 -1 0 56.11)"><rect width="1.094" height="3.876" x="5.867" y="9.233"/><path d="M12.4244219,7.37938966 C13.2857056,8.96308377 12.7272022,10.9601983 11.1769814,11.8400728 C9.62675936,12.7199459 7.67185649,12.149389 6.81058565,10.5656963 C6.5812008,10.143921 6.44572519,9.67564481 6.41430665,9.19480572 C6.29445691,11.002887 4.76259461,12.3685154 2.99326382,12.2455792 C1.22394714,12.1226415 -0.112809753,10.5576929 0.0075274896,8.75016749 C0.127864732,6.94264209 1.65973987,5.57701369 3.42905654,5.69994989 C3.89354804,5.73222431 4.34560938,5.86729747 4.75975937,6.09614318 C3.24345752,5.16686003 2.74718827,3.15266644 3.65715848,1.59765211 C4.56712998,0.0426378326 6.53874921,-0.464345651 8.06089986,0.465272971 C9.58303769,1.3948918 10.0793082,3.40908549 9.16933672,4.96409973 C8.89555025,5.43197477 8.5119336,5.82277217 8.05561426,6.10309125 C9.60824693,5.22514002 11.5631511,5.795697 12.4244219,7.37938966 L12.4244219,7.37938966 Z"/></g></g></g></svg>