<svg xmlns="http://www.w3.org/2000/svg" width="18.829" height="19.241" viewBox="0 0 18.829 19.241"><g fill="none" fill-rule="evenodd"><rect width="1.605" height="5.689" x="8.611" y="13.552" fill="#000" fill-rule="nonzero"/><path fill="#000" fill-rule="nonzero" d="M18.2351453,10.8306241 C19.499239,13.1549891 18.6795316,16.0861254 16.4042949,17.3775046 C14.1290562,18.6688817 11.2598734,17.8314834 9.99579859,15.5071204 C9.65913374,14.8880869 9.46029813,14.2008047 9.41418559,13.4950841 C9.23828386,16.1487789 6.98999159,18.1530921 4.39317024,17.9726604 C1.79636961,17.7922266 -0.165569251,15.495374 0.0110479882,12.842495 C0.187665228,10.1896159 2.43597632,8.18530276 5.03277696,8.36573445 C5.71450444,8.41310316 6.37798838,8.6113481 6.98583035,8.94722165 C4.76037594,7.58332614 4.0320087,4.62712317 5.36755889,2.34485102 C6.70311096,0.0625789335 9.59682815,-0.681513432 11.8308668,0.682874447 C14.0648866,2.04726263 14.7932557,5.00346573 13.4577036,7.28573776 C13.0558711,7.97243123 12.4928425,8.54599895 11.8231092,8.95741922 C14.1018858,7.66886284 16.9710705,8.5062611 18.2351453,10.8306241 L18.2351453,10.8306241 Z"/></g></svg>