<svg xmlns="http://www.w3.org/2000/svg" width="42" height="64" viewBox="0 0 42 64"><g fill="none" fill-rule="evenodd"><g fill="#000" fill-rule="nonzero" transform="translate(15 4)"><rect width="1.094" height="3.876" x="5.867" y="9.233"/><path d="M12.4244219,7.37938966 C13.2857056,8.96308377 12.7272022,10.9601983 11.1769814,11.8400728 C9.62675936,12.7199459 7.67185649,12.149389 6.81058565,10.5656963 C6.5812008,10.143921 6.44572519,9.67564481 6.41430665,9.19480572 C6.29445691,11.002887 4.76259461,12.3685154 2.99326382,12.2455792 C1.22394714,12.1226415 -0.112809753,10.5576929 0.0075274896,8.75016749 C0.127864732,6.94264209 1.65973987,5.57701369 3.42905654,5.69994989 C3.89354804,5.73222431 4.34560938,5.86729747 4.75975937,6.09614318 C3.24345752,5.16686003 2.74718827,3.15266644 3.65715848,1.59765211 C4.56712998,0.0426378326 6.53874921,-0.464345651 8.06089986,0.465272971 C9.58303769,1.3948918 10.0793082,3.40908549 9.16933672,4.96409973 C8.89555025,5.43197477 8.5119336,5.82277217 8.05561426,6.10309125 C9.60824693,5.22514002 11.5631511,5.795697 12.4244219,7.37938966 L12.4244219,7.37938966 Z"/><g transform="matrix(1 0 0 -1 0 56.11)"><rect width="1.094" height="3.876" x="5.867" y="9.234"/><path d="M12.4252645,7.37958225 C13.2866065,8.9633177 12.7280653,10.9604844 11.1777394,11.8403819 C9.6274122,12.7202779 7.67237675,12.149706 6.81104751,10.565972 C6.5816471,10.1441857 6.4461623,9.67589733 6.41474163,9.19504569 C6.29488377,11.0031741 4.76291758,12.3688382 2.9934668,12.2458988 C1.22403014,12.1229579 -0.112817403,10.5579684 0.00752800007,8.75039586 C0.127873403,6.94282328 1.65985242,5.57715924 3.42928908,5.70009865 C3.89381207,5.73237391 4.34590408,5.8674506 4.76008215,6.09630228 C3.24367747,5.16699488 2.74737457,3.15274872 3.65740649,1.5976938 C4.56743969,0.0426389454 6.53919263,-0.464357769 8.06144651,0.465285114 C9.58368756,1.39492821 10.0799917,3.40917446 9.16995854,4.96422928 C8.8961535,5.43211654 8.51251083,5.82292413 8.05616055,6.10325053 C9.60889851,5.22527639 11.5639352,5.79584825 12.4252645,7.37958225 L12.4252645,7.37958225 Z"/></g></g><rect width="42" height="64"/></g></svg>