<svg xmlns="http://www.w3.org/2000/svg" width="42" height="64" viewBox="0 0 42 64"><g fill="none" fill-rule="evenodd"><rect width="42" height="64"/><g fill="red" fill-rule="nonzero" transform="translate(2 4)"><polygon points="6.415 13.11 12.829 6.555 6.415 0 0 6.555"/><polygon points="6.415 13.11 12.829 6.555 6.415 0 0 6.555" transform="translate(0 21)"/><polygon points="6.415 13.11 12.829 6.555 6.415 0 0 6.555" transform="translate(26 21)"/><polygon points="6.415 13.11 12.829 6.555 6.415 0 0 6.555" transform="translate(26)"/><polygon points="6.415 13.11 12.829 6.555 6.415 0 0 6.555" transform="matrix(1 0 0 -1 0 56.11)"/><polygon points="6.415 13.11 12.829 6.555 6.415 0 0 6.555" transform="matrix(1 0 0 -1 26 56.11)"/></g></g></svg>