<svg xmlns="http://www.w3.org/2000/svg" width="56.487" height="56.673" viewBox="0 0 56.487 56.673"><path fill="red" d="M28.211166,56.6730807 C25.557956,50.9771907 22.133026,45.6547007 18.063796,40.9036107 C15.439546,37.8396307 12.554926,35.0185707 9.63251898,32.2485407 C7.34970598,30.0847907 5.02637798,27.9327907 3.15852798,25.3896307 C1.89666198,23.6715107 0.843641984,21.7600107 0.341970984,19.6762307 C-0.566660016,15.9021207 0.421840984,11.8562207 2.28670698,8.46596074 C3.37885998,6.48049074 4.77623298,4.65451074 6.49746798,3.20300074 C9.05487198,1.04636074 12.391586,-0.243109255 15.700586,0.0383407447 C18.735156,0.296450745 21.572956,1.84625074 23.787386,3.97472074 C25.747216,5.85847074 27.273756,8.20669074 28.243706,10.7796307 C29.213666,8.20669074 30.740206,5.85847074 32.700036,3.97472074 C34.914466,1.84625074 37.752266,0.296450745 40.786806,0.0383407447 C44.095806,-0.243109255 47.432516,1.04636074 49.989926,3.20300074 C51.711186,4.65451074 53.108526,6.48049074 54.200686,8.46596074 C56.065586,11.8562207 57.054086,15.9021207 56.145446,19.6762307 C55.643776,21.7600107 54.590726,23.6715107 53.328856,25.3896307 C51.461046,27.9327907 49.137686,30.0847907 46.854896,32.2485407 C43.932496,35.0185707 41.047836,37.8396307 38.423586,40.9036107 C34.354366,45.6547007 30.929436,50.9771907 28.276226,56.6730807"/></svg>