<svg xmlns="http://www.w3.org/2000/svg" width="42" height="64" viewBox="0 0 42 64"><g fill="none" fill-rule="evenodd"><rect width="42" height="64"/><g fill="#000" fill-rule="nonzero" transform="translate(2 4)"><path d="M3.4592125,12.0591611 C4.24246577,12.0591611 5.09113266,12.0591611 5.87438138,12.0591611 C5.87438138,11.1418703 5.87438138,11.0769918 5.87438138,10.1596941 C4.34548961,10.2098675 2.69082617,10.3255163 1.25901987,9.68295363 C0.15073277,9.06342815 -0.155076018,7.62127067 0.0683741109,6.43565481 C0.25963139,5.09801728 0.989737965,3.91012985 1.94220338,2.99524251 C3.18164181,1.64495636 4.76233621,0.733425485 6.41260725,0 C8.09713174,0.745828903 9.71267692,1.6871909 10.967834,3.0730773 C12.0983867,4.15518639 12.8516518,5.68457261 12.8285087,7.28583711 C12.8530303,8.44162879 12.1501031,9.66299065 10.9906613,9.91519963 C9.69358337,10.2810449 8.38079138,10.2161386 7.04925788,10.1596941 C7.04925788,11.0769918 7.04925788,11.1418703 7.04925788,12.0591611 C7.83250433,12.0591611 8.55033943,12.0591611 9.3335927,12.0591611 C9.3335927,12.4450572 9.35457811,12.7237617 9.35457811,13.1096579 C7.56108391,13.0967964 5.41734226,13.0967964 3.48019337,13.1096579 C3.48019792,12.7237617 3.4592125,12.4450572 3.4592125,12.0591611 Z"/><path d="M3.4592125,12.0591611 C4.24246577,12.0591611 5.09113266,12.0591611 5.87438138,12.0591611 C5.87438138,11.1418703 5.87438138,11.0769918 5.87438138,10.1596941 C4.34548961,10.2098675 2.69082617,10.3255163 1.25901987,9.68295363 C0.15073277,9.06342815 -0.155076018,7.62127067 0.0683741109,6.43565481 C0.25963139,5.09801728 0.989737965,3.91012985 1.94220338,2.99524251 C3.18164181,1.64495636 4.76233621,0.733425485 6.41260725,0 C8.09713174,0.745828903 9.71267692,1.6871909 10.967834,3.0730773 C12.0983867,4.15518639 12.8516518,5.68457261 12.8285087,7.28583711 C12.8530303,8.44162879 12.1501031,9.66299065 10.9906613,9.91519963 C9.69358337,10.2810449 8.38079138,10.2161386 7.04925788,10.1596941 C7.04925788,11.0769918 7.04925788,11.1418703 7.04925788,12.0591611 C7.83250433,12.0591611 8.55033943,12.0591611 9.3335927,12.0591611 C9.3335927,12.4450572 9.35457811,12.7237617 9.35457811,13.1096579 C7.56108391,13.0967964 5.41734226,13.0967964 3.48019337,13.1096579 C3.48019792,12.7237617 3.4592125,12.4450572 3.4592125,12.0591611 Z" transform="translate(13 21)"/><path d="M3.4592125,12.0591611 C4.24246577,12.0591611 5.09113266,12.0591611 5.87438138,12.0591611 C5.87438138,11.1418703 5.87438138,11.0769918 5.87438138,10.1596941 C4.34548961,10.2098675 2.69082617,10.3255163 1.25901987,9.68295363 C0.15073277,9.06342815 -0.155076018,7.62127067 0.0683741109,6.43565481 C0.25963139,5.09801728 0.989737965,3.91012985 1.94220338,2.99524251 C3.18164181,1.64495636 4.76233621,0.733425485 6.41260725,0 C8.09713174,0.745828903 9.71267692,1.6871909 10.967834,3.0730773 C12.0983867,4.15518639 12.8516518,5.68457261 12.8285087,7.28583711 C12.8530303,8.44162879 12.1501031,9.66299065 10.9906613,9.91519963 C9.69358337,10.2810449 8.38079138,10.2161386 7.04925788,10.1596941 C7.04925788,11.0769918 7.04925788,11.1418703 7.04925788,12.0591611 C7.83250433,12.0591611 8.55033943,12.0591611 9.3335927,12.0591611 C9.3335927,12.4450572 9.35457811,12.7237617 9.35457811,13.1096579 C7.56108391,13.0967964 5.41734226,13.0967964 3.48019337,13.1096579 C3.48019792,12.7237617 3.4592125,12.4450572 3.4592125,12.0591611 Z" transform="translate(26)"/><path d="M3.4592125,12.0591611 C4.24246577,12.0591611 5.09113266,12.0591611 5.87438138,12.0591611 C5.87438138,11.1418703 5.87438138,11.0769918 5.87438138,10.1596941 C4.34548961,10.2098675 2.69082617,10.3255163 1.25901987,9.68295363 C0.15073277,9.06342815 -0.155076018,7.62127067 0.0683741109,6.43565481 C0.25963139,5.09801728 0.989737965,3.91012985 1.94220338,2.99524251 C3.18164181,1.64495636 4.76233621,0.733425485 6.41260725,0 C8.09713174,0.745828903 9.71267692,1.6871909 10.967834,3.0730773 C12.0983867,4.15518639 12.8516518,5.68457261 12.8285087,7.28583711 C12.8530303,8.44162879 12.1501031,9.66299065 10.9906613,9.91519963 C9.69358337,10.2810449 8.38079138,10.2161386 7.04925788,10.1596941 C7.04925788,11.0769918 7.04925788,11.1418703 7.04925788,12.0591611 C7.83250433,12.0591611 8.55033943,12.0591611 9.3335927,12.0591611 C9.3335927,12.4450572 9.35457811,12.7237617 9.35457811,13.1096579 C7.56108391,13.0967964 5.41734226,13.0967964 3.48019337,13.1096579 C3.48019792,12.7237617 3.4592125,12.4450572 3.4592125,12.0591611 Z" transform="matrix(1 0 0 -1 0 56.11)"/><path d="M3.4592125,12.0591611 C4.24246577,12.0591611 5.09113266,12.0591611 5.87438138,12.0591611 C5.87438138,11.1418703 5.87438138,11.0769918 5.87438138,10.1596941 C4.34548961,10.2098675 2.69082617,10.3255163 1.25901987,9.68295363 C0.15073277,9.06342815 -0.155076018,7.62127067 0.0683741109,6.43565481 C0.25963139,5.09801728 0.989737965,3.91012985 1.94220338,2.99524251 C3.18164181,1.64495636 4.76233621,0.733425485 6.41260725,0 C8.09713174,0.745828903 9.71267692,1.6871909 10.967834,3.0730773 C12.0983867,4.15518639 12.8516518,5.68457261 12.8285087,7.28583711 C12.8530303,8.44162879 12.1501031,9.66299065 10.9906613,9.91519963 C9.69358337,10.2810449 8.38079138,10.2161386 7.04925788,10.1596941 C7.04925788,11.0769918 7.04925788,11.1418703 7.04925788,12.0591611 C7.83250433,12.0591611 8.55033943,12.0591611 9.3335927,12.0591611 C9.3335927,12.4450572 9.35457811,12.7237617 9.35457811,13.1096579 C7.56108391,13.0967964 5.41734226,13.0967964 3.48019337,13.1096579 C3.48019792,12.7237617 3.4592125,12.4450572 3.4592125,12.0591611 Z" transform="matrix(1 0 0 -1 26 56.11)"/></g></g></svg>