<svg xmlns="http://www.w3.org/2000/svg" width="42" height="64" viewBox="0 0 42 64"><g fill="none" fill-rule="evenodd"><g fill="#000" fill-rule="nonzero" transform="translate(15 4)"><path d="M3.4592125,12.0591611 C4.24246577,12.0591611 5.09113266,12.0591611 5.87438138,12.0591611 C5.87438138,11.1418703 5.87438138,11.0769918 5.87438138,10.1596941 C4.34548961,10.2098675 2.69082617,10.3255163 1.25901987,9.68295363 C0.15073277,9.06342815 -0.155076018,7.62127067 0.0683741109,6.43565481 C0.25963139,5.09801728 0.989737965,3.91012985 1.94220338,2.99524251 C3.18164181,1.64495636 4.76233621,0.733425485 6.41260725,0 C8.09713174,0.745828903 9.71267692,1.6871909 10.967834,3.0730773 C12.0983867,4.15518639 12.8516518,5.68457261 12.8285087,7.28583711 C12.8530303,8.44162879 12.1501031,9.66299065 10.9906613,9.91519963 C9.69358337,10.2810449 8.38079138,10.2161386 7.04925788,10.1596941 C7.04925788,11.0769918 7.04925788,11.1418703 7.04925788,12.0591611 C7.83250433,12.0591611 8.55033943,12.0591611 9.3335927,12.0591611 C9.3335927,12.4450572 9.35457811,12.7237617 9.35457811,13.1096579 C7.56108391,13.0967964 5.41734226,13.0967964 3.48019337,13.1096579 C3.48019792,12.7237617 3.4592125,12.4450572 3.4592125,12.0591611 Z"/><path d="M3.45944709,12.0594758 C4.24275347,12.0594758 5.09147791,12.0594758 5.87477975,12.0594758 C5.87477975,11.1421611 5.87477975,11.0772809 5.87477975,10.1599592 C4.3457843,10.210134 2.69100865,10.3257858 1.25910525,9.68320634 C0.150742992,9.06366469 -0.155086534,7.62146957 0.0683787476,6.43582277 C0.259648997,5.09815033 0.989805083,3.91023189 1.94233509,2.99532068 C3.18185758,1.64499929 4.76265917,0.733444627 6.41304211,0 C8.09768085,0.745848368 9.71333558,1.68723493 10.9685777,3.07315751 C12.0992072,4.15529484 12.8525233,5.68472097 12.8293787,7.28602726 C12.853902,8.44184911 12.150927,9.66324284 10.9914066,9.9154584 C9.69424074,10.2813132 8.38135972,10.2164053 7.04973592,10.1599592 C7.04973592,11.0772809 7.04973592,11.1421611 7.04973592,12.0594758 C7.83303549,12.0594758 8.55091927,12.0594758 9.33422565,12.0594758 C9.33422565,12.445382 9.35521249,12.7240938 9.35521249,13.11 C7.56159666,13.0971382 5.41770964,13.0971382 3.48042938,13.11 C3.48043392,12.7240938 3.45944709,12.445382 3.45944709,12.0594758 Z" transform="matrix(1 0 0 -1 0 56.11)"/></g><rect width="42" height="64"/></g></svg>