<?xml version="1.0" standalone="no"?>
<!DOCTYPE svg PUBLIC "-//W3C//DTD SVG 20010904//EN"
 "http://www.w3.org/TR/2001/REC-SVG-20010904/DTD/svg10.dtd">
<svg version="1.0" xmlns="http://www.w3.org/2000/svg"
 width="848.000000pt" height="848.000000pt" viewBox="0 0 848.000000 848.000000"
 preserveAspectRatio="xMidYMid meet">
<metadata>
Created by potrace 1.14, written by Peter Selinger 2001-2017
</metadata>
<g transform="translate(0.000000,848.000000) scale(0.100000,-0.100000)"
fill="#000000" stroke="none">
<path d="M4119 7256 c-2 -2 -29 -6 -59 -9 -136 -15 -229 -32 -355 -67 -44 -12
-86 -22 -92 -23 -7 0 -13 -5 -13 -10 0 -6 -3 -8 -6 -4 -16 15 -284 -107 -399
-182 -84 -55 -113 -79 -182 -150 -52 -54 -107 -145 -117 -191 -3 -14 -7 -34
-9 -45 -3 -11 -8 -51 -12 -90 -4 -38 -9 -79 -11 -89 -23 -126 -22 -712 1 -946
11 -108 15 -148 19 -170 2 -14 10 -59 16 -100 14 -82 13 -77 35 -170 36 -150
89 -266 166 -366 58 -75 81 -99 156 -158 32 -25 63 -51 70 -56 7 -6 14 -10 17
-10 3 0 24 -13 48 -29 52 -34 206 -108 307 -147 l74 -28 -44 -11 c-84 -22
-321 -154 -360 -201 -11 -14 -38 3 -320 201 -63 45 -122 85 -130 88 -8 4 -32
21 -54 37 -22 17 -51 38 -65 48 -14 9 -99 68 -190 131 -91 63 -194 135 -230
159 -141 97 -155 107 -158 115 -2 4 -8 7 -12 7 -7 0 -119 76 -181 123 -8 7
-24 17 -34 23 -15 8 -238 335 -263 384 -4 8 -28 47 -53 85 -25 39 -77 117
-114 175 -38 58 -100 155 -140 215 -39 61 -95 147 -124 192 l-53 83 -350 2
c-192 2 -352 1 -354 -1 -5 -5 30 -27 116 -71 36 -19 73 -40 83 -48 9 -9 17
-12 17 -9 0 3 30 -11 67 -32 38 -20 89 -48 115 -61 27 -14 48 -29 48 -33 0 -5
16 -34 37 -65 57 -89 161 -257 188 -304 14 -25 161 -263 200 -323 17 -27 87
-140 155 -250 113 -184 127 -203 179 -237 107 -70 687 -452 834 -550 82 -54
153 -98 157 -98 5 0 10 -3 12 -7 2 -5 55 -42 118 -83 63 -41 117 -77 120 -80
3 -3 17 -11 33 -19 15 -8 27 -18 27 -23 0 -4 6 -8 13 -8 6 0 24 -11 40 -24
l27 -24 -24 -48 c-23 -47 -56 -135 -60 -161 -3 -22 -15 -26 -32 -12 -10 8 -20
13 -23 12 -3 0 -53 21 -111 49 -58 28 -166 80 -240 115 -74 36 -167 80 -206
99 -38 19 -76 34 -82 34 -7 0 -12 5 -12 10 0 6 -6 10 -13 10 -18 0 -67 24 -67
33 0 4 -5 7 -11 7 -6 0 -59 23 -117 51 -59 28 -150 72 -202 97 -354 168 -352
166 -410 232 -30 35 -68 77 -83 93 -16 17 -56 62 -90 100 -34 38 -73 82 -87
97 -71 77 -131 143 -185 204 -33 38 -71 80 -85 95 -14 15 -63 69 -110 121
-133 148 -178 192 -188 186 -5 -3 -60 -8 -123 -11 -63 -3 -163 -8 -224 -11
-60 -3 -143 -6 -182 -7 -40 -1 -73 -4 -73 -7 0 -3 55 -27 121 -55 164 -68 185
-76 257 -104 60 -23 66 -28 140 -130 42 -58 79 -108 82 -111 3 -3 10 -13 15
-22 6 -9 60 -85 120 -169 61 -84 128 -178 149 -208 21 -31 43 -57 47 -59 5 -2
9 -8 9 -13 0 -6 5 -15 11 -22 5 -7 50 -68 99 -137 49 -69 97 -134 105 -145 9
-11 24 -32 33 -47 9 -16 23 -28 32 -28 9 0 20 -4 26 -9 5 -5 65 -33 134 -64
120 -52 176 -78 285 -127 28 -13 52 -24 55 -25 13 -5 87 -37 315 -140 17 -7
77 -34 135 -60 58 -26 125 -57 150 -68 25 -11 47 -21 50 -22 14 -5 63 -26 132
-59 42 -20 79 -36 81 -36 2 0 40 -17 83 -37 43 -20 81 -38 84 -38 3 -1 36 -16
74 -33 38 -18 75 -32 82 -32 13 0 16 -7 13 -27 -1 -5 -4 -7 -7 -6 -4 1 -34 4
-67 8 -33 3 -73 8 -90 9 -16 2 -57 7 -90 10 -33 4 -71 8 -85 11 -14 2 -50 7
-80 10 -30 4 -68 8 -85 10 -16 2 -61 7 -100 11 -38 3 -79 8 -90 11 -40 8 -61
11 -125 18 -36 3 -78 8 -95 10 -16 2 -52 7 -80 9 -62 7 -128 15 -180 21 -35 5
-85 10 -172 19 -12 2 -52 22 -89 47 -37 24 -76 49 -85 54 -9 6 -58 37 -108 70
-50 33 -155 101 -234 152 -78 51 -147 97 -154 103 -7 5 -24 15 -38 22 -14 6
-25 14 -25 18 0 4 -8 10 -18 14 -16 5 -43 21 -66 39 -29 22 -209 137 -214 137
-7 0 -162 -58 -217 -81 -16 -7 -32 -13 -35 -14 -3 -1 -18 -7 -35 -14 -16 -6
-95 -37 -175 -68 -80 -31 -148 -59 -152 -62 -4 -3 96 -6 222 -5 l228 1 44 -34
c23 -19 50 -39 58 -46 9 -7 33 -25 55 -41 22 -17 42 -33 45 -36 5 -6 408 -320
504 -394 28 -21 53 -41 56 -45 3 -3 41 -33 84 -66 43 -33 84 -64 90 -70 48
-47 107 -77 157 -80 30 -2 95 -7 144 -10 50 -3 119 -8 155 -10 105 -6 231 -15
290 -20 30 -2 108 -7 175 -10 66 -3 147 -8 180 -10 33 -2 98 -7 145 -10 47 -4
108 -8 135 -10 28 -1 102 -6 165 -10 63 -4 122 -8 132 -7 10 0 24 -17 37 -48
23 -53 25 -61 14 -58 -8 2 -115 -10 -158 -18 -11 -1 -47 -6 -80 -10 -33 -3
-67 -7 -76 -9 -8 -2 -42 -6 -75 -10 -32 -4 -72 -8 -89 -10 -16 -2 -46 -7 -65
-10 -19 -4 -56 -8 -81 -10 -26 -2 -65 -6 -88 -9 -23 -3 -60 -9 -83 -12 -24 -3
-54 -7 -68 -9 -14 -3 -50 -7 -80 -10 -30 -3 -66 -7 -80 -10 -14 -2 -50 -7 -80
-10 -147 -17 -168 -23 -237 -66 -34 -21 -65 -39 -68 -39 -2 0 -28 -15 -58 -32
-80 -50 -83 -52 -226 -135 -74 -43 -151 -88 -170 -100 -20 -12 -47 -28 -61
-36 -14 -7 -117 -67 -230 -133 -113 -66 -226 -132 -252 -147 -46 -27 -66 -50
-73 -85 -1 -9 -17 -73 -35 -142 -18 -69 -33 -129 -34 -135 -1 -5 -5 -19 -9
-30 -3 -11 -8 -31 -11 -45 -2 -14 -11 -50 -20 -79 -28 -94 -39 -102 157 112
168 183 193 206 240 226 26 11 48 20 50 20 3 -1 46 16 177 68 63 25 120 46
125 47 6 2 27 10 49 19 21 9 40 17 42 17 3 0 327 126 359 140 149 64 318 119
405 134 20 3 50 9 110 21 3 1 19 4 35 8 17 4 41 8 55 11 14 2 72 14 130 26 58
12 116 24 130 26 14 1 34 5 45 7 34 8 269 57 295 61 14 3 25 5 25 6 0 1 11 3
25 5 37 5 78 13 98 19 9 3 34 7 54 10 21 3 59 11 85 17 27 6 57 12 68 15 11 2
31 6 45 9 20 4 36 -4 75 -40 27 -24 62 -50 77 -56 16 -6 28 -15 28 -19 0 -21
276 -140 360 -155 14 -3 36 -7 50 -10 14 -3 43 -8 65 -11 22 -3 54 -7 70 -9
38 -6 246 -6 303 -1 38 4 67 8 152 22 14 2 57 13 95 24 89 26 85 25 120 39 44
17 54 21 61 20 4 0 10 3 13 8 3 5 22 17 41 27 120 60 255 175 331 281 24 34
37 43 53 40 12 -3 35 -7 51 -10 86 -16 132 -25 155 -29 87 -19 165 -34 205
-42 17 -2 84 -16 150 -29 66 -14 174 -35 240 -49 66 -13 138 -28 160 -32 22
-4 45 -8 50 -9 6 -2 82 -17 169 -35 158 -32 171 -35 255 -72 25 -11 52 -21 60
-23 13 -3 94 -34 286 -110 11 -5 22 -9 25 -10 3 -1 14 -5 25 -10 11 -4 43 -17
70 -27 28 -10 59 -22 70 -27 11 -5 58 -24 105 -41 47 -18 103 -40 125 -50 22
-9 58 -23 80 -30 22 -7 45 -15 50 -19 6 -3 12 -6 15 -6 3 0 30 -11 62 -23 46
-19 73 -42 150 -125 51 -56 120 -130 153 -165 33 -35 72 -78 88 -95 15 -17 27
-24 27 -16 -1 22 -25 107 -33 115 -4 4 -7 22 -7 39 0 17 -3 35 -7 39 -4 3 -8
12 -9 19 -1 7 -14 59 -29 117 -15 58 -33 129 -40 158 -7 29 -14 54 -16 56 -15
12 -132 76 -140 76 -5 0 -9 3 -9 8 0 4 -21 18 -47 32 -27 13 -67 37 -90 52
-23 15 -44 28 -48 28 -3 0 -24 12 -48 27 -23 15 -44 28 -47 28 -3 0 -16 8 -30
17 -14 8 -128 76 -255 150 -126 74 -288 169 -360 211 -111 65 -139 77 -190 82
-33 3 -71 8 -85 9 -32 5 -114 15 -160 21 -19 2 -71 9 -115 15 -44 5 -102 13
-130 16 -27 3 -61 7 -75 9 -14 2 -47 7 -75 10 -55 7 -83 10 -200 25 -44 6 -98
13 -120 16 -82 10 -201 25 -240 31 -22 3 -49 6 -60 8 -11 1 -23 3 -28 4 -4 0
-3 9 2 18 6 10 12 30 16 46 5 23 10 27 43 28 20 0 57 2 82 4 25 1 92 6 150 9
104 7 130 9 305 21 50 3 133 8 185 10 52 2 127 7 165 10 101 8 221 16 290 20
33 1 101 6 150 10 50 3 116 8 149 10 32 3 68 11 80 19 26 16 142 107 171 133
11 10 56 45 100 79 89 68 314 242 360 280 17 13 77 61 135 105 143 111 162
126 187 149 12 11 27 20 32 20 5 0 11 6 13 13 4 9 60 12 236 12 128 0 232 2
232 5 0 5 -49 25 -345 140 -88 34 -169 65 -180 70 -73 29 -84 31 -104 21 -17
-9 -206 -131 -281 -181 -20 -13 -236 -154 -330 -215 -41 -27 -120 -78 -175
-114 -55 -36 -104 -68 -110 -71 -5 -3 -30 -18 -55 -34 -25 -17 -52 -31 -60
-31 -79 -9 -161 -18 -190 -21 -19 -2 -48 -6 -65 -9 -16 -2 -57 -7 -90 -10 -33
-2 -76 -7 -95 -9 -43 -7 -100 -14 -165 -21 -27 -3 -59 -7 -70 -9 -11 -2 -47
-7 -80 -10 -33 -4 -73 -9 -90 -12 -16 -3 -50 -7 -75 -9 -25 -2 -67 -7 -94 -10
-26 -3 -62 -8 -80 -10 -17 -2 -58 -7 -91 -11 -33 -4 -72 -8 -87 -8 -16 -1 -28
-3 -28 -6 0 -3 -19 -6 -43 -7 l-42 -2 -2 68 -2 68 107 48 c59 26 136 61 172
78 55 25 236 106 400 179 25 11 70 32 100 45 30 14 91 41 135 60 44 20 96 42
115 51 19 9 37 16 40 17 3 0 30 13 61 28 31 15 59 27 62 27 4 0 38 15 77 34
38 19 70 31 70 28 0 -4 4 -2 8 3 4 6 70 38 146 70 90 39 150 71 168 90 23 24
150 196 218 295 8 12 36 51 63 87 26 35 47 68 47 73 0 4 3 10 8 12 4 2 59 75
122 163 63 88 118 165 123 170 4 6 39 55 78 110 39 55 78 107 87 116 9 8 49
28 87 44 39 16 93 38 120 50 28 12 91 39 142 61 51 21 90 40 88 43 -5 5 -24 6
-225 16 -74 3 -164 8 -200 10 -180 11 -187 10 -213 -21 -14 -16 -38 -43 -53
-60 -16 -16 -65 -70 -109 -119 -44 -49 -92 -102 -107 -117 -16 -16 -28 -31
-28 -33 0 -2 -17 -22 -37 -43 -38 -39 -170 -184 -206 -226 -24 -27 -80 -89
-181 -200 -45 -49 -90 -99 -101 -112 -19 -21 -181 -104 -203 -104 -6 0 -12 -3
-14 -7 -3 -7 -75 -44 -81 -42 -1 1 -29 -12 -62 -29 -33 -17 -116 -57 -185 -90
-69 -33 -188 -90 -265 -128 -77 -37 -142 -68 -145 -69 -3 0 -54 -25 -115 -54
-60 -30 -141 -68 -180 -86 -38 -18 -107 -51 -152 -73 l-82 -40 -10 27 c-6 14
-20 40 -30 57 l-19 32 24 12 c13 8 24 17 24 22 0 4 6 8 14 8 8 0 21 6 28 13
22 20 108 77 117 77 4 0 16 9 26 20 10 11 21 20 25 20 6 0 332 212 365 238 16
12 69 47 80 52 6 3 98 64 205 135 107 71 200 132 205 135 23 12 290 193 293
199 1 3 32 55 70 114 101 164 110 179 132 217 36 63 219 355 229 367 6 7 11
14 11 17 0 6 106 177 120 193 5 7 10 15 10 18 0 3 30 52 66 110 74 117 47 97
359 260 72 37 134 72 140 76 5 5 -148 9 -347 9 l-356 0 -204 -315 c-112 -173
-240 -372 -285 -442 -46 -70 -87 -135 -93 -143 -6 -8 -38 -58 -71 -110 -56
-87 -99 -140 -114 -140 -6 0 -60 -37 -81 -55 -6 -5 -64 -46 -129 -90 -64 -44
-180 -124 -256 -177 -77 -54 -144 -98 -149 -98 -4 0 -10 -4 -12 -8 -1 -5 -25
-23 -53 -42 -27 -18 -52 -36 -55 -39 -3 -4 -50 -36 -105 -73 -55 -37 -138 -95
-185 -128 -47 -33 -92 -63 -100 -67 -8 -4 -17 -10 -20 -14 -3 -3 -42 -32 -88
-63 l-83 -57 -128 64 -128 63 61 24 c33 13 63 26 66 29 3 3 31 19 63 36 101
52 220 150 297 245 19 23 41 49 48 56 6 7 12 16 12 20 0 4 6 15 14 23 44 49
170 313 196 412 7 24 17 50 22 57 6 6 8 12 4 12 -3 0 1 17 9 38 20 51 53 187
59 242 3 25 8 70 12 100 18 165 18 593 0 763 -3 31 -8 81 -11 110 -5 46 -40
226 -49 252 -31 91 -126 217 -215 285 -18 14 -38 30 -45 35 -59 50 -222 137
-341 182 -127 48 -251 80 -375 97 -25 3 -56 9 -70 12 -27 6 -405 16 -411 10z"/>
</g>
</svg>
