<svg xmlns="http://www.w3.org/2000/svg" width="18.711" height="28.336" viewBox="0 0 18.711 28.336"><path fill="red" d="M18.6972021,22.5791147 L17.9998262,28.3364992 L0,28.3364992 C0.276437123,25.0335103 1.55810019,22.115651 3.84498921,19.5829214 L9.95173681,14.1780248 C12.0752765,12.2719472 13.1370463,10.3593426 13.1370463,8.44021107 C13.1370463,7.16079229 12.7852171,6.14248021 12.0815588,5.38527484 C11.3904658,4.6150087 10.4355012,4.22987563 9.21666479,4.22987563 C7.8093488,4.22987563 6.76014432,4.62153569 6.06905135,5.40485581 C5.61669939,5.92706922 5.2711529,6.7299703 5.03241189,7.81355905 C4.79367089,8.96242448 4.60519096,9.62824522 4.4669721,9.81102127 C4.26592715,9.87632513 4.03346882,9.90897706 3.76959711,9.90897706 L1.39475096,9.90897706 C1.11831384,9.90897706 0.879572672,9.85022737 0.678527456,9.73272799 C0.590570199,9.45856731 0.54659157,9.15176829 0.54659157,8.81233093 C0.54659157,6.08377129 1.40731612,3.91659039 3.12876522,2.31078823 C4.77482286,0.770262743 6.91721055,0 9.55592827,0 C12.0061664,0 14.0103355,0.678874717 15.5684357,2.03662415 C17.2270587,3.47271103 18.0563702,5.4440653 18.0563702,7.95068696 C18.0563702,10.4181399 17.1391016,12.6767054 15.3045644,14.7263835 C14.6637328,15.457481 12.8417609,17.0175908 9.83864866,19.4067131 C7.65228225,21.1691834 6.30779268,22.7554046 5.80517997,24.1653767 L14.5883413,24.1653767 L14.7391246,22.4029064 C14.8773434,21.7762544 15.2480206,21.4629284 15.8511561,21.4629284 L17.7359548,21.4629284 C18.4647431,21.4629284 18.7851589,21.8350041 18.6972021,22.5791555 L18.6972021,22.5791147 Z"/></svg>