<svg xmlns="http://www.w3.org/2000/svg" width="18.829" height="28.337" viewBox="0 0 18.829 28.337"><path d="M18.8291308,27.3343462 C18.8291308,27.6094602 18.78315,27.8780229 18.6911884,28.1400345 C18.4842748,28.2710439 18.2658659,28.3365486 18.0359619,28.3365486 L6.96608894,28.3365486 C6.11544399,28.3365486 5.69012152,27.8452742 5.69012152,26.8627253 C5.69012152,26.7055184 5.70161828,26.430408 5.72461181,26.0373942 C5.74760534,25.6443732 5.7591021,25.3430581 5.7591021,25.1334488 C5.7591021,24.6749303 5.84531627,24.3801699 6.01774461,24.2491677 C6.14419152,24.1574654 6.42582382,24.1116143 6.86264149,24.1116143 L11.1733394,24.1116143 L11.1733394,21.085375 L1.50012302,21.085375 C0.500041006,21.085375 3.55271368e-15,20.5548007 3.55271368e-15,19.4936519 C3.55271368e-15,19.3102474 0.0172426469,18.9761835 0.0517279406,18.4914603 C0.0862132343,17.9936418 0.103455881,17.6006244 0.103455881,17.3124081 C0.103455881,16.8669919 0.327612226,16.31022 0.775924917,15.6420922 L10.7422605,0.707431304 C11.0526306,0.235810435 11.4434672,1.20792265e-13 11.9147701,1.20792265e-13 L14.1908192,1.20792265e-13 C14.7310934,1.20792265e-13 15.0012305,0.340615072 15.0012305,1.02184522 L15.0012305,17.0569548 C15.4150577,17.0569548 15.8863607,17.0438595 16.4151394,17.0176691 C16.9554135,16.9914786 17.3002696,16.9783833 17.4497075,16.9783833 C18.0704478,16.9783833 18.4555369,17.1552403 18.6049749,17.5089541 C18.7544122,17.8495657 18.8291308,18.7011016 18.8291308,20.0635618 C18.8291308,20.3124711 18.8118888,20.5024304 18.7774048,20.6334397 C18.7084336,20.9347513 18.4440442,21.0854071 17.9842368,21.0854071 L15.0012305,21.0854071 L15.0012305,24.1116463 C15.4265526,24.1116463 15.9093508,24.0985511 16.449625,24.0723606 C16.9898991,24.0461701 17.3290074,24.0330749 17.4669499,24.0330749 C18.1221761,24.0330749 18.5187604,24.2230306 18.6567028,24.6029421 C18.7716548,24.917356 18.8291308,25.8278454 18.8291308,27.3344103 L18.8291308,27.3343462 Z M11.2423013,6.3079318 C10.6100655,7.40838049 8.27654072,10.9913882 4.24172701,17.0569548 L11.1733301,17.0569548 C11.1733301,16.3626223 11.1618333,15.1704677 11.1388398,13.4804912 C11.1043557,11.9477287 11.092859,10.7490265 11.1043495,9.88438472 C11.1158462,8.57432675 11.1618271,7.38217578 11.2423013,6.3079318 L11.2423013,6.3079318 Z"/></svg>