<svg xmlns="http://www.w3.org/2000/svg" width="18.829" height="28.337" viewBox="0 0 18.829 28.337"><path fill="red" d="M18.8291426,27.3343543 C18.8291426,27.6094683 18.7831589,27.878031 18.6911973,28.1400426 C18.4842836,28.2710448 18.2658748,28.3365459 18.0359707,28.3365459 L6.96609145,28.3365459 C6.11544707,28.3365459 5.69012488,27.8452751 5.69012488,26.8627335 C5.69012488,26.7055266 5.70162165,26.4304162 5.72461517,26.0374024 C5.74760246,25.6443815 5.7590961,25.3430664 5.7590961,25.1334571 C5.7590961,24.6749387 5.84530996,24.3801748 6.01773769,24.2491654 C6.14418523,24.1574632 6.42581754,24.111612 6.86263462,24.111612 L11.1733356,24.111612 L11.1733356,21.0853837 L1.50012368,21.0853837 C0.500041225,21.0853837 0,20.5548094 0,19.4936608 C0,19.3102562 0.0172429602,18.9761924 0.0517288806,18.4914692 C0.0862141766,17.9936437 0.103456825,17.6006263 0.103456825,17.3124171 C0.103456825,16.8669939 0.327613247,16.3102184 0.775926091,15.6420907 L10.7422652,0.707431238 C11.052636,0.235810413 11.4434728,0 11.9147758,0 L14.190826,0 C14.7311002,0 15.0012373,0.34061504 15.0012373,1.02184512 L15.0012373,17.0569532 C15.4150646,17.0569532 15.8863679,17.0438579 16.4151472,17.0176675 C16.9554221,16.991477 17.3002782,16.9783817 17.4497155,16.9783817 C18.0704564,16.9783817 18.4555456,17.1552387 18.6049829,17.5089525 C18.7544208,17.8495711 18.8291426,18.7011105 18.8291426,20.0635706 C18.8291426,20.3124799 18.8118978,20.5024391 18.7774138,20.6334485 C18.7084425,20.93476 18.4440529,21.0854158 17.9842448,21.0854158 L15.0012401,21.0854158 L15.0012401,24.1116441 C15.4265629,24.1116441 15.9093615,24.0985488 16.4496357,24.0723583 C16.9899105,24.0461678 17.3290188,24.0330726 17.4669606,24.0330726 C18.1221875,24.0330726 18.5187722,24.2230319 18.6567146,24.6029504 C18.7716666,24.9173643 18.8291426,25.8278536 18.8291426,27.3344184 L18.8291426,27.3343543 Z M11.2423069,6.30793121 C10.6100704,7.4083798 8.27654456,10.9913871 4.24172934,17.0569532 L11.1733356,17.0569532 C11.1733356,16.3626207 11.1618389,15.1704699 11.1388454,13.4805006 C11.1043613,11.9477311 11.0928645,10.7490255 11.1043551,9.88438379 C11.1158518,8.57432595 11.1618326,7.38217508 11.2423069,6.30793121 L11.2423069,6.30793121 Z"/></svg>