<svg xmlns="http://www.w3.org/2000/svg" width="18.829" height="28.337" viewBox="0 0 18.829 28.337"><path fill="red" d="M18.8291397,3.95163033 L10.8888869,27.4231118 C10.6782704,28.0320717 10.144708,28.3365517 9.28819979,28.3365517 L6.17107143,28.3365517 C5.52517977,28.3365517 5.20223394,28.1445966 5.20223394,27.7606864 C5.20223394,27.390014 6.52911991,23.6435798 9.18289186,16.5213839 C10.7274144,12.417512 12.2649169,8.32026224 13.7953994,4.22963462 L4.46507533,4.22963462 C4.42295339,4.81211887 4.29658346,5.65936958 4.08596554,6.77138674 C3.88938964,6.89053375 3.67877275,6.95010725 3.45411487,6.95010725 L1.01096046,6.95010725 C0.336986821,6.95010725 -1.77635684e-15,6.71843539 -1.77635684e-15,6.25509167 C-1.77635684e-15,6.03004197 0.203596226,3.94501141 0.610788678,0 L18.8291397,0 L18.8291397,3.95163033 Z"/></svg>