<svg xmlns="http://www.w3.org/2000/svg" width="18.829" height="28.337" viewBox="0 0 18.829 28.337"><path fill="red" d="M18.8291389,13.7529758 C18.8291389,17.7835788 18.1275496,21.060858 16.724371,23.5848134 C14.9672375,26.7526313 12.2620104,28.3365402 8.60868974,28.3365402 C6.47231893,28.3365402 4.70886482,27.9051511 3.31832741,27.0423728 C1.63704155,25.9864357 0.796398615,24.4282806 0.796398615,22.3679074 C0.796398615,21.9172037 1.10610917,21.6918519 1.72553028,21.6918519 L4.53188735,21.6918519 C4.89848346,21.6918519 5.20819395,21.9043251 5.46101882,22.3292716 C5.84025611,22.9602622 6.13100484,23.3658975 6.33326499,23.5461776 C6.85155655,23.9711309 7.61003147,24.1836075 8.60868974,24.1836075 C10.2899755,24.1836075 11.5983446,23.3852154 12.533797,21.7884312 C13.2669893,20.5006997 13.6778298,18.9167874 13.7663187,17.0366943 C12.2872931,18.2342892 10.5175184,18.8330866 8.45699463,18.8330866 C5.84025644,18.8330866 3.75445066,17.8930401 2.1995773,16.012947 C0.733192432,14.2487546 -1.77635684e-15,12.0081013 -1.77635684e-15,9.29098711 C-1.77635684e-15,6.43222184 0.802719236,4.17225401 2.40815771,2.5110836 C4.01359645,0.837027866 6.21317348,0 9.0068888,0 C15.5550555,0 18.8291389,4.58432528 18.8291389,13.7529758 L18.8291389,13.7529758 Z M13.6525471,9.40688436 C13.6525471,8.00325892 13.2796304,6.81210672 12.533797,5.83342778 C11.7121159,4.75173354 10.6376099,4.21088642 9.31027904,4.21088642 C7.94502398,4.21088642 6.85787681,4.73885495 6.04883751,5.794792 C5.31564462,6.76059235 4.94904817,7.96462313 4.94904817,9.40688436 C4.94904817,10.874896 5.3093237,12.0853628 6.02987476,13.0382845 C6.81363236,14.0813497 7.90710045,14.6028823 9.31027904,14.6028823 C10.7008164,14.6028823 11.7879636,14.0749138 12.5717206,13.0189767 C13.2922716,12.066055 13.6525471,10.8620242 13.6525471,9.40688436 L13.6525471,9.40688436 Z"/></svg>