<svg xmlns="http://www.w3.org/2000/svg" width="42" height="64" viewBox="0 0 42 64"><g fill="none" fill-rule="evenodd"><g fill="red" fill-rule="nonzero" transform="translate(15 4)"><path d="M6.40717356,13.1096579 C5.80459028,11.7920805 5.02673796,10.5608783 4.10255557,9.4618527 C3.50654953,8.75309064 2.85140961,8.10052101 2.1876877,7.45975567 C1.66922707,6.95923547 1.14156487,6.46143327 0.717348478,5.87314767 C0.430760023,5.47571092 0.191603588,5.03354136 0.0776666746,4.55151987 C-0.128696881,3.67849002 0.0958063343,2.74258952 0.519345019,1.95835214 C0.767389138,1.49907179 1.08475324,1.07668478 1.4756712,0.740920439 C2.05649552,0.242044921 2.81431268,-0.056236208 3.56583558,0.00886900868 C4.25503136,0.0685751998 4.89953777,0.427076052 5.40246761,0.919435266 C5.84757403,1.35518567 6.19427387,1.89837761 6.41456388,2.49355195 C6.63485616,1.89837761 6.981556,1.35518567 7.42666241,0.919435266 C7.92959226,0.427076052 8.57409866,0.0685751998 9.26328763,0.00886900868 C10.0148105,-0.056236208 10.7726268,0.242044921 11.3534525,0.740920439 C11.7443761,1.07668478 12.0617327,1.49907179 12.3097784,1.95835214 C12.7333248,2.74258952 12.9578278,3.67849002 12.7514622,4.55151987 C12.6375255,5.03354136 12.3983623,5.47571092 12.1117729,5.87314767 C11.6875656,6.46143327 11.1598961,6.95923547 10.6414407,7.45975567 C9.97772041,8.10052101 9.32257141,8.75309064 8.72656537,9.4618527 C7.80238525,10.5608783 7.02453293,11.7920805 6.42194965,13.1096579"/><path d="M6.40760806,13.11 C5.80498391,11.7923882 5.02707884,10.5611539 4.10283378,9.46209964 C3.50678732,8.75331908 2.85160298,8.10073242 2.18783606,7.45995036 C1.66934026,6.95941709 1.14164229,6.46160191 0.717397125,5.87330095 C0.430789235,5.47585382 0.191616581,5.03367273 0.0776719415,4.55163866 C-0.128705608,3.67858603 0.0958128314,2.7426611 0.519380238,1.95840325 C0.767441178,1.49911091 1.0848268,1.07671288 1.47577127,0.740939776 C2.05663498,0.242051238 2.81450353,-0.0562376757 3.56607739,0.00886924015 C4.25531992,0.0685769895 4.89987003,0.427087198 5.40283398,0.919459261 C5.84797058,1.35522104 6.19469393,1.89842716 6.41499888,2.49361703 C6.63530609,1.89842716 6.98202945,1.35522104 7.42716605,0.919459261 C7.93013,0.427087198 8.57468011,0.0685769895 9.26391581,0.00886924015 C10.0154897,-0.0562376757 10.7733573,0.242051238 11.3542224,0.740939776 C11.7451725,1.07671288 12.0625507,1.49911091 12.3106132,1.95840325 C12.7341883,2.7426611 12.9587065,3.67858603 12.7523269,4.55163866 C12.6383825,5.03367273 12.3992031,5.47585382 12.1125943,5.87330095 C11.6883582,6.46160191 11.1606529,6.95941709 10.6421624,7.45995036 C9.97839705,8.10073242 9.32320361,8.75331908 8.72715716,9.46209964 C7.80291437,10.5611539 7.0250093,11.7923882 6.42238515,13.11" transform="matrix(1 0 0 -1 0 56.11)"/></g><rect width="42" height="64"/></g></svg>