<svg xmlns="http://www.w3.org/2000/svg" width="42" height="64" viewBox="0 0 42 64"><g fill="none" fill-rule="evenodd"><rect width="42" height="64"/><g fill="red" fill-rule="nonzero" transform="translate(2 4)"><path d="M6.40717356,13.1096579 C5.80459028,11.7920805 5.02673796,10.5608783 4.10255557,9.4618527 C3.50654953,8.75309064 2.85140961,8.10052101 2.1876877,7.45975567 C1.66922707,6.95923547 1.14156487,6.46143327 0.717348478,5.87314767 C0.430760023,5.47571092 0.191603588,5.03354136 0.0776666746,4.55151987 C-0.128696881,3.67849002 0.0958063343,2.74258952 0.519345019,1.95835214 C0.767389138,1.49907179 1.08475324,1.07668478 1.4756712,0.740920439 C2.05649552,0.242044921 2.81431268,-0.056236208 3.56583558,0.00886900868 C4.25503136,0.0685751998 4.89953777,0.427076052 5.40246761,0.919435266 C5.84757403,1.35518567 6.19427387,1.89837761 6.41456388,2.49355195 C6.63485616,1.89837761 6.981556,1.35518567 7.42666241,0.919435266 C7.92959226,0.427076052 8.57409866,0.0685751998 9.26328763,0.00886900868 C10.0148105,-0.056236208 10.7726268,0.242044921 11.3534525,0.740920439 C11.7443761,1.07668478 12.0617327,1.49907179 12.3097784,1.95835214 C12.7333248,2.74258952 12.9578278,3.67849002 12.7514622,4.55151987 C12.6375255,5.03354136 12.3983623,5.47571092 12.1117729,5.87314767 C11.6875656,6.46143327 11.1598961,6.95923547 10.6414407,7.45975567 C9.97772041,8.10052101 9.32257141,8.75309064 8.72656537,9.4618527 C7.80238525,10.5608783 7.02453293,11.7920805 6.42194965,13.1096579"/><path d="M6.40717356,13.1096579 C5.80459028,11.7920805 5.02673796,10.5608783 4.10255557,9.4618527 C3.50654953,8.75309064 2.85140961,8.10052101 2.1876877,7.45975567 C1.66922707,6.95923547 1.14156487,6.46143327 0.717348478,5.87314767 C0.430760023,5.47571092 0.191603588,5.03354136 0.0776666746,4.55151987 C-0.128696881,3.67849002 0.0958063343,2.74258952 0.519345019,1.95835214 C0.767389138,1.49907179 1.08475324,1.07668478 1.4756712,0.740920439 C2.05649552,0.242044921 2.81431268,-0.056236208 3.56583558,0.00886900868 C4.25503136,0.0685751998 4.89953777,0.427076052 5.40246761,0.919435266 C5.84757403,1.35518567 6.19427387,1.89837761 6.41456388,2.49355195 C6.63485616,1.89837761 6.981556,1.35518567 7.42666241,0.919435266 C7.92959226,0.427076052 8.57409866,0.0685751998 9.26328763,0.00886900868 C10.0148105,-0.056236208 10.7726268,0.242044921 11.3534525,0.740920439 C11.7443761,1.07668478 12.0617327,1.49907179 12.3097784,1.95835214 C12.7333248,2.74258952 12.9578278,3.67849002 12.7514622,4.55151987 C12.6375255,5.03354136 12.3983623,5.47571092 12.1117729,5.87314767 C11.6875656,6.46143327 11.1598961,6.95923547 10.6414407,7.45975567 C9.97772041,8.10052101 9.32257141,8.75309064 8.72656537,9.4618527 C7.80238525,10.5608783 7.02453293,11.7920805 6.42194965,13.1096579" transform="translate(13 21)"/><path d="M6.40717356,13.1096579 C5.80459028,11.7920805 5.02673796,10.5608783 4.10255557,9.4618527 C3.50654953,8.75309064 2.85140961,8.10052101 2.1876877,7.45975567 C1.66922707,6.95923547 1.14156487,6.46143327 0.717348478,5.87314767 C0.430760023,5.47571092 0.191603588,5.03354136 0.0776666746,4.55151987 C-0.128696881,3.67849002 0.0958063343,2.74258952 0.519345019,1.95835214 C0.767389138,1.49907179 1.08475324,1.07668478 1.4756712,0.740920439 C2.05649552,0.242044921 2.81431268,-0.056236208 3.56583558,0.00886900868 C4.25503136,0.0685751998 4.89953777,0.427076052 5.40246761,0.919435266 C5.84757403,1.35518567 6.19427387,1.89837761 6.41456388,2.49355195 C6.63485616,1.89837761 6.981556,1.35518567 7.42666241,0.919435266 C7.92959226,0.427076052 8.57409866,0.0685751998 9.26328763,0.00886900868 C10.0148105,-0.056236208 10.7726268,0.242044921 11.3534525,0.740920439 C11.7443761,1.07668478 12.0617327,1.49907179 12.3097784,1.95835214 C12.7333248,2.74258952 12.9578278,3.67849002 12.7514622,4.55151987 C12.6375255,5.03354136 12.3983623,5.47571092 12.1117729,5.87314767 C11.6875656,6.46143327 11.1598961,6.95923547 10.6414407,7.45975567 C9.97772041,8.10052101 9.32257141,8.75309064 8.72656537,9.4618527 C7.80238525,10.5608783 7.02453293,11.7920805 6.42194965,13.1096579" transform="translate(0 14)"/><path d="M6.40717356,13.1096579 C5.80459028,11.7920805 5.02673796,10.5608783 4.10255557,9.4618527 C3.50654953,8.75309064 2.85140961,8.10052101 2.1876877,7.45975567 C1.66922707,6.95923547 1.14156487,6.46143327 0.717348478,5.87314767 C0.430760023,5.47571092 0.191603588,5.03354136 0.0776666746,4.55151987 C-0.128696881,3.67849002 0.0958063343,2.74258952 0.519345019,1.95835214 C0.767389138,1.49907179 1.08475324,1.07668478 1.4756712,0.740920439 C2.05649552,0.242044921 2.81431268,-0.056236208 3.56583558,0.00886900868 C4.25503136,0.0685751998 4.89953777,0.427076052 5.40246761,0.919435266 C5.84757403,1.35518567 6.19427387,1.89837761 6.41456388,2.49355195 C6.63485616,1.89837761 6.981556,1.35518567 7.42666241,0.919435266 C7.92959226,0.427076052 8.57409866,0.0685751998 9.26328763,0.00886900868 C10.0148105,-0.056236208 10.7726268,0.242044921 11.3534525,0.740920439 C11.7443761,1.07668478 12.0617327,1.49907179 12.3097784,1.95835214 C12.7333248,2.74258952 12.9578278,3.67849002 12.7514622,4.55151987 C12.6375255,5.03354136 12.3983623,5.47571092 12.1117729,5.87314767 C11.6875656,6.46143327 11.1598961,6.95923547 10.6414407,7.45975567 C9.97772041,8.10052101 9.32257141,8.75309064 8.72656537,9.4618527 C7.80238525,10.5608783 7.02453293,11.7920805 6.42194965,13.1096579" transform="matrix(1 0 0 -1 0 42.11)"/><path d="M6.40717356,13.1096579 C5.80459028,11.7920805 5.02673796,10.5608783 4.10255557,9.4618527 C3.50654953,8.75309064 2.85140961,8.10052101 2.1876877,7.45975567 C1.66922707,6.95923547 1.14156487,6.46143327 0.717348478,5.87314767 C0.430760023,5.47571092 0.191603588,5.03354136 0.0776666746,4.55151987 C-0.128696881,3.67849002 0.0958063343,2.74258952 0.519345019,1.95835214 C0.767389138,1.49907179 1.08475324,1.07668478 1.4756712,0.740920439 C2.05649552,0.242044921 2.81431268,-0.056236208 3.56583558,0.00886900868 C4.25503136,0.0685751998 4.89953777,0.427076052 5.40246761,0.919435266 C5.84757403,1.35518567 6.19427387,1.89837761 6.41456388,2.49355195 C6.63485616,1.89837761 6.981556,1.35518567 7.42666241,0.919435266 C7.92959226,0.427076052 8.57409866,0.0685751998 9.26328763,0.00886900868 C10.0148105,-0.056236208 10.7726268,0.242044921 11.3534525,0.740920439 C11.7443761,1.07668478 12.0617327,1.49907179 12.3097784,1.95835214 C12.7333248,2.74258952 12.9578278,3.67849002 12.7514622,4.55151987 C12.6375255,5.03354136 12.3983623,5.47571092 12.1117729,5.87314767 C11.6875656,6.46143327 11.1598961,6.95923547 10.6414407,7.45975567 C9.97772041,8.10052101 9.32257141,8.75309064 8.72656537,9.4618527 C7.80238525,10.5608783 7.02453293,11.7920805 6.42194965,13.1096579" transform="translate(26 14)"/><path d="M6.40717356,13.1096579 C5.80459028,11.7920805 5.02673796,10.5608783 4.10255557,9.4618527 C3.50654953,8.75309064 2.85140961,8.10052101 2.1876877,7.45975567 C1.66922707,6.95923547 1.14156487,6.46143327 0.717348478,5.87314767 C0.430760023,5.47571092 0.191603588,5.03354136 0.0776666746,4.55151987 C-0.128696881,3.67849002 0.0958063343,2.74258952 0.519345019,1.95835214 C0.767389138,1.49907179 1.08475324,1.07668478 1.4756712,0.740920439 C2.05649552,0.242044921 2.81431268,-0.056236208 3.56583558,0.00886900868 C4.25503136,0.0685751998 4.89953777,0.427076052 5.40246761,0.919435266 C5.84757403,1.35518567 6.19427387,1.89837761 6.41456388,2.49355195 C6.63485616,1.89837761 6.981556,1.35518567 7.42666241,0.919435266 C7.92959226,0.427076052 8.57409866,0.0685751998 9.26328763,0.00886900868 C10.0148105,-0.056236208 10.7726268,0.242044921 11.3534525,0.740920439 C11.7443761,1.07668478 12.0617327,1.49907179 12.3097784,1.95835214 C12.7333248,2.74258952 12.9578278,3.67849002 12.7514622,4.55151987 C12.6375255,5.03354136 12.3983623,5.47571092 12.1117729,5.87314767 C11.6875656,6.46143327 11.1598961,6.95923547 10.6414407,7.45975567 C9.97772041,8.10052101 9.32257141,8.75309064 8.72656537,9.4618527 C7.80238525,10.5608783 7.02453293,11.7920805 6.42194965,13.1096579" transform="matrix(1 0 0 -1 26 42.11)"/><path d="M6.40717356,13.1096579 C5.80459028,11.7920805 5.02673796,10.5608783 4.10255557,9.4618527 C3.50654953,8.75309064 2.85140961,8.10052101 2.1876877,7.45975567 C1.66922707,6.95923547 1.14156487,6.46143327 0.717348478,5.87314767 C0.430760023,5.47571092 0.191603588,5.03354136 0.0776666746,4.55151987 C-0.128696881,3.67849002 0.0958063343,2.74258952 0.519345019,1.95835214 C0.767389138,1.49907179 1.08475324,1.07668478 1.4756712,0.740920439 C2.05649552,0.242044921 2.81431268,-0.056236208 3.56583558,0.00886900868 C4.25503136,0.0685751998 4.89953777,0.427076052 5.40246761,0.919435266 C5.84757403,1.35518567 6.19427387,1.89837761 6.41456388,2.49355195 C6.63485616,1.89837761 6.981556,1.35518567 7.42666241,0.919435266 C7.92959226,0.427076052 8.57409866,0.0685751998 9.26328763,0.00886900868 C10.0148105,-0.056236208 10.7726268,0.242044921 11.3534525,0.740920439 C11.7443761,1.07668478 12.0617327,1.49907179 12.3097784,1.95835214 C12.7333248,2.74258952 12.9578278,3.67849002 12.7514622,4.55151987 C12.6375255,5.03354136 12.3983623,5.47571092 12.1117729,5.87314767 C11.6875656,6.46143327 11.1598961,6.95923547 10.6414407,7.45975567 C9.97772041,8.10052101 9.32257141,8.75309064 8.72656537,9.4618527 C7.80238525,10.5608783 7.02453293,11.7920805 6.42194965,13.1096579" transform="translate(26)"/><path d="M6.40717356,13.1096579 C5.80459028,11.7920805 5.02673796,10.5608783 4.10255557,9.4618527 C3.50654953,8.75309064 2.85140961,8.10052101 2.1876877,7.45975567 C1.66922707,6.95923547 1.14156487,6.46143327 0.717348478,5.87314767 C0.430760023,5.47571092 0.191603588,5.03354136 0.0776666746,4.55151987 C-0.128696881,3.67849002 0.0958063343,2.74258952 0.519345019,1.95835214 C0.767389138,1.49907179 1.08475324,1.07668478 1.4756712,0.740920439 C2.05649552,0.242044921 2.81431268,-0.056236208 3.56583558,0.00886900868 C4.25503136,0.0685751998 4.89953777,0.427076052 5.40246761,0.919435266 C5.84757403,1.35518567 6.19427387,1.89837761 6.41456388,2.49355195 C6.63485616,1.89837761 6.981556,1.35518567 7.42666241,0.919435266 C7.92959226,0.427076052 8.57409866,0.0685751998 9.26328763,0.00886900868 C10.0148105,-0.056236208 10.7726268,0.242044921 11.3534525,0.740920439 C11.7443761,1.07668478 12.0617327,1.49907179 12.3097784,1.95835214 C12.7333248,2.74258952 12.9578278,3.67849002 12.7514622,4.55151987 C12.6375255,5.03354136 12.3983623,5.47571092 12.1117729,5.87314767 C11.6875656,6.46143327 11.1598961,6.95923547 10.6414407,7.45975567 C9.97772041,8.10052101 9.32257141,8.75309064 8.72656537,9.4618527 C7.80238525,10.5608783 7.02453293,11.7920805 6.42194965,13.1096579" transform="matrix(1 0 0 -1 0 56.11)"/><path d="M6.40717356,13.1096579 C5.80459028,11.7920805 5.02673796,10.5608783 4.10255557,9.4618527 C3.50654953,8.75309064 2.85140961,8.10052101 2.1876877,7.45975567 C1.66922707,6.95923547 1.14156487,6.46143327 0.717348478,5.87314767 C0.430760023,5.47571092 0.191603588,5.03354136 0.0776666746,4.55151987 C-0.128696881,3.67849002 0.0958063343,2.74258952 0.519345019,1.95835214 C0.767389138,1.49907179 1.08475324,1.07668478 1.4756712,0.740920439 C2.05649552,0.242044921 2.81431268,-0.056236208 3.56583558,0.00886900868 C4.25503136,0.0685751998 4.89953777,0.427076052 5.40246761,0.919435266 C5.84757403,1.35518567 6.19427387,1.89837761 6.41456388,2.49355195 C6.63485616,1.89837761 6.981556,1.35518567 7.42666241,0.919435266 C7.92959226,0.427076052 8.57409866,0.0685751998 9.26328763,0.00886900868 C10.0148105,-0.056236208 10.7726268,0.242044921 11.3534525,0.740920439 C11.7443761,1.07668478 12.0617327,1.49907179 12.3097784,1.95835214 C12.7333248,2.74258952 12.9578278,3.67849002 12.7514622,4.55151987 C12.6375255,5.03354136 12.3983623,5.47571092 12.1117729,5.87314767 C11.6875656,6.46143327 11.1598961,6.95923547 10.6414407,7.45975567 C9.97772041,8.10052101 9.32257141,8.75309064 8.72656537,9.4618527 C7.80238525,10.5608783 7.02453293,11.7920805 6.42194965,13.1096579" transform="matrix(1 0 0 -1 26 56.11)"/></g></g></svg>