<svg xmlns="http://www.w3.org/2000/svg" width="18.829" height="28.337" viewBox="0 0 18.829 28.337"><path fill="red" d="M18.829139,28.3365402 L14.8975206,28.3365402 L13.3580309,25.4226169 C12.0869651,26.4462698 10.6698454,26.9580962 9.10667184,26.9580962 C6.53296129,26.9580962 4.36978126,25.6610811 2.61713175,23.0670509 C0.872377249,20.461392 0,17.2624819 0,13.4703205 C0,11.0391481 0.398688274,8.79409463 1.19606482,6.73516027 C1.99344137,4.67622592 3.10661075,3.03605643 4.53557296,1.81465181 C5.94085014,0.604883938 7.45270752,0 9.0711451,0 C11.5974867,0 13.7330347,1.32609078 15.4777892,3.97827233 C17.2225437,6.63046198 18.094921,9.82355776 18.094921,13.5575597 C18.094921,17.0356504 17.3291239,20.0368128 15.7975298,22.5610469 L18.829139,28.3365402 Z M14.7790978,13.5226616 C14.7790978,11.1263912 14.2383029,9.07908958 13.156713,7.38075662 C12.0514387,5.64752962 10.6895827,4.78091612 9.0711451,4.78091612 C7.38954906,4.78091612 6.01190333,5.62426423 4.93820792,7.31096045 C3.87240807,8.98602802 3.33950814,11.0682278 3.33950814,13.5575597 C3.33950814,16.3958724 4.03030449,18.6409299 5.41189717,20.2927321 C6.49348705,21.5839248 7.7211311,22.2295211 9.09482932,22.2295211 C9.8843114,22.2295211 10.6264242,22.0026897 11.3211678,21.5490267 L8.20666259,15.6339532 L12.1619661,15.6339532 L13.72514,18.6176605 C14.4277786,17.0821852 14.7790978,15.3838523 14.7790978,13.5226616 L14.7790978,13.5226616 Z"/></svg>