<svg xmlns="http://www.w3.org/2000/svg" width="105.686" height="75.394" viewBox="0 0 105.686 75.394"><g fill="none" fill-rule="evenodd"><path fill="#000" d="M44.2392973,2.2034964 C37.9473806,5.1414916 36.8039348,8.7428271 36.027157,13.7915846 C35.2503791,18.8403421 35.2503791,26.3673445 36.027157,30.6948958 C36.8039348,35.022447 45.2543091,39 53.3613917,39 C61.4684743,39 68.5736004,35.1557857 69.6427279,30.6948958 C70.7118554,26.2340058 70.7118554,17.1024736 69.6427279,13.7915846 C68.5736004,10.4806956 67.1409465,5.1414916 61.9583383,2.2034964 C56.7757302,-0.7344988 50.5312139,-0.7344988 44.2392973,2.2034964 Z" transform="matrix(1 0 0 -1 0 39)"/><path fill="#FF7114" d="M48.0483252,6.00808735 C42.5721012,4.75712481 41.7829916,10.6036106 41.2350449,14.1650532 C40.6870983,17.7264957 40.6870983,23.0361163 41.2350449,26.0888129 C41.7829916,29.1415096 47.7439676,31.947314 53.4627823,31.947314 C59.1815971,31.947314 64.193622,29.235568 64.9477949,26.0888129 C65.7019678,22.9420578 65.7019678,16.5005864 64.9477949,14.1650532 C64.193622,11.8295199 62.8419815,4.75712481 59.2556406,6.00808735 C55.6692997,7.25904989 53.5245492,7.25904989 48.0483252,6.00808735 Z" transform="matrix(1 0 0 -1 0 37.783)"/><path fill="#000" d="M52.6445581,36.9806015 C62.5200097,36.9806015 67.7178142,43.4420505 67.7178142,52.3277405 C67.7178142,61.2134305 61.3157401,65.4567028 52.9335231,65.4567028 C44.5513062,65.4567028 37.5020789,60.5018685 37.5020789,52.3277405 C37.5020789,44.1536124 42.7691065,36.9806015 52.6445581,36.9806015 Z" transform="matrix(1 0 0 -1 0 102.437)"/><path fill="#FF7114" d="M52.1372982,44.4567028 C59.0732558,44.4567028 62.7238992,48.9948585 62.7238992,55.2356636 C62.7238992,61.4764688 58.2274451,64.4567028 52.3402509,64.4567028 C46.4530567,64.4567028 41.5020789,60.976708 41.5020789,55.2356636 C41.5020789,49.4946192 45.2013406,44.4567028 52.1372982,44.4567028 Z" transform="matrix(1 0 0 -1 0 108.913)"/><ellipse cx="49.002" cy="61.457" fill="#000" rx="2.5" ry="3" transform="matrix(1 0 0 -1 0 122.913)"/><ellipse cx="55.002" cy="61.457" fill="#000" rx="2.5" ry="3" transform="matrix(1 0 0 -1 0 122.913)"/><ellipse cx="59.835" cy="59.457" fill="#000" rx="1.667" ry="2" transform="matrix(1 0 0 -1 0 118.913)"/><ellipse cx="43.835" cy="58.457" fill="#000" rx="1.667" ry="2" transform="matrix(1 0 0 -1 0 116.913)"/><circle cx="56.002" cy="61.457" r="1" fill="#FFF" transform="matrix(1 0 0 -1 0 122.913)"/><circle cx="50.002" cy="61.457" r="1" fill="#FFF" transform="matrix(1 0 0 -1 0 122.913)"/><circle cx="44.752" cy="58.957" r="1" fill="#FFF" transform="matrix(1 0 0 -1 0 117.913)"/><circle cx="60.752" cy="59.957" r="1" fill="#FFF" transform="matrix(1 0 0 -1 0 119.913)"/><g transform="matrix(1 0 0 -1 6.546 44.457)"><polygon fill="#000" points="36.101 3.161 33.14 0 14.508 12.303 5.665 26.633 0 29.633 8.997 29.633 18.051 15.656"/><polygon fill="#FF7114" points="14.508 12.303 18.051 15.656 25.357 10.548 22.44 7.068"/></g><g transform="matrix(1 0 0 -1 .976 52.268)"><polygon fill="#000" points="37.468 0 37.468 4.966 18.734 13.915 7.933 25.887 0 25.493 5.732 23.104 15.125 10.009"/><polygon fill="#FF7114" points="15.125 10.009 18.734 13.915 26.521 10.198 24.765 5.694"/></g><g transform="matrix(1 0 0 -1 0 56.457)"><polygon fill="#000" points="39.686 0 38.445 4.189 20.461 6.316 7.873 14.5 0 11.428 5.853 11.428 18.708 1.377"/><polygon fill="#FF7114" points="18.708 1.377 20.461 6.316 28.626 5.381 28.626 .694"/></g><g transform="matrix(1 0 0 -1 6.546 75.394)"><polygon fill="#000" points="36.101 13.937 33.889 17.937 16.748 15.75 1.8 6.998 0 0 4.604 4.976 18.812 10.494"/><polygon fill="#FF7114" points="18.812 10.494 16.748 15.75 24.033 16.663 26.111 11.954"/></g><g transform="rotate(180 48.824 21.728)"><polygon fill="#000" points="36.101 3.161 33.14 0 14.508 12.303 5.665 26.633 0 29.633 8.997 29.633 18.051 15.656"/><polygon fill="#FF7114" points="14.508 12.303 18.051 15.656 25.357 10.548 22.44 7.068"/></g><g transform="rotate(180 51.722 24.634)"><polygon fill="#000" points="37.468 0 37.468 4.966 18.734 13.915 7.933 25.887 0 25.493 5.732 23.104 15.125 10.009"/><polygon fill="#FF7114" points="15.125 10.009 18.734 13.915 26.521 10.198 24.765 5.694"/></g><g transform="rotate(180 52.843 27.228)"><polygon fill="#000" points="39.686 0 38.445 4.189 20.461 6.316 7.873 14.5 0 11.428 5.853 11.428 18.708 1.377"/><polygon fill="#FF7114" points="18.708 1.377 20.461 6.316 28.626 5.381 28.626 .694"/></g><g transform="rotate(180 50.324 36.697)"><polygon fill="#000" points="36.101 13.937 33.889 17.937 16.748 15.75 1.8 6.998 0 0 4.604 4.976 18.812 10.494"/><polygon fill="#FF7114" points="18.812 10.494 16.748 15.75 24.033 16.663 26.111 11.954"/></g></g></svg>