<svg xmlns="http://www.w3.org/2000/svg" width="18.829" height="28.337" viewBox="0 0 18.829 28.337"><g fill="none" fill-rule="evenodd"><path fill="red" fill-rule="nonzero" d="M9.4145716,27.3175575 C9.4145716,27.6441639 9.38393856,27.9315792 9.32267248,28.1798033 C9.15929577,28.2843222 8.98230455,28.3365816 8.79169879,28.3365816 L1.25595903,28.3365816 C0.806673462,28.3365816 0.582030676,27.879329 0.582030676,26.9648237 C0.582030676,26.80805 0.588837698,26.5598258 0.602451741,26.2201511 C0.616065785,25.8674173 0.622872806,25.5995999 0.622872806,25.4166989 C0.622872806,24.5544484 0.820286061,24.1233231 1.21511257,24.1233231 L3.75765863,24.1233231 L3.75765863,6.0161601 L0.653505848,6.0161601 C0.217835283,6.0161601 -2.56451742e-15,5.55890746 -2.56451742e-15,4.64440217 C-2.56451742e-15,4.4484328 0.0102117357,4.13489011 0.0306352071,3.7037741 C0.057863294,3.25958055 0.0714773375,2.92644 0.0714773375,2.70435245 C0.0714773375,2.26015889 0.28931262,2.03806212 0.724983185,2.03806212 C0.847515351,2.03806212 1.0789654,2.06419875 1.41933333,2.11647203 C1.75970078,2.15563081 2.02518762,2.1752102 2.21579385,2.1752102 C3.30497027,2.1752102 3.96528338,1.45014013 4.19673318,0 L6.14704019,0 L6.14704019,24.1232954 C6.60313279,24.1232954 7.09326217,24.0971588 7.61742835,24.0448855 C8.14840155,23.9795901 8.46494346,23.9469424 8.56705408,23.9469424 C8.96188059,23.9469424 9.20694517,24.1494413 9.3022478,24.5544391 C9.37712889,24.9071729 9.4145716,25.8282078 9.4145716,27.3175436 L9.4145716,27.3175575 Z"/><path fill="red" fill-rule="nonzero" d="M9.41456912,14.506304 C9.41456912,23.7264602 7.85649103,28.3365384 4.74033485,28.3365384 C1.58011162,28.3365384 0,23.7007066 0,14.4290429 C0,4.80968098 1.61158792,0 4.83476375,0 C7.88796733,0 9.41456912,4.83543465 9.41456912,14.506304 Z M6.95941569,14.1006622 C6.95941569,7.4945938 6.20713155,4.19155959 4.70256329,4.19155959 C3.82122598,4.19155959 3.19484704,5.49860828 2.82342648,8.11270566 C2.59050163,9.76100714 2.47403921,11.8149408 2.47403921,14.2745066 C2.47403921,20.8805751 3.21688057,24.1836093 4.70256329,24.1836093 C5.59019562,24.1836093 6.22286982,22.8830014 6.60058588,20.2817856 C6.83980575,18.6077305 6.95941569,16.547356 6.95941569,14.1006622 L6.95941569,14.1006622 Z" transform="translate(9.415)"/></g></svg>