<svg xmlns="http://www.w3.org/2000/svg" width="18.829" height="28.337" viewBox="0 0 18.829 28.337"><path fill="red" d="M18.8291376,20.3397287 C18.8291376,22.9667031 17.8912878,24.9884422 16.0155883,26.404946 C14.3235233,27.6926815 12.1067874,28.3365493 9.36538064,28.3365493 C3.12179355,28.3365493 -3.55271368e-15,25.439151 -3.55271368e-15,19.6443543 C-3.55271368e-15,19.3739304 0.0459087514,19.1163839 0.137726254,18.871715 C0.33447794,18.7558209 0.557463189,18.6978739 0.806682,18.6978739 L3.36445395,18.6978739 C3.61367263,18.6978739 3.84321622,18.7558209 4.05308472,18.871715 C4.1186661,19.0519998 4.17113323,19.2644767 4.21048609,19.5091456 C4.43347154,21.1059343 4.89255906,22.2648916 5.58774864,22.9860177 C6.36163856,23.7844153 7.54870702,24.1836141 9.148954,24.1836141 C10.4606321,24.1836141 11.5296497,23.8359253 12.3560068,23.1405475 C13.221714,22.3936665 13.6545676,21.3892357 13.6545676,20.1272551 C13.6545676,17.4487708 12.165813,15.8777371 9.18830384,15.4141542 C8.82103397,15.362631 8.54558173,15.2853661 8.36194712,15.1823594 C8.25701287,14.9763262 8.20454575,13.9332663 8.20454575,12.0531795 C8.20454575,11.8085106 8.26357135,11.5767158 8.38162255,11.3577952 C9.36538098,11.0744971 10.3491394,10.7847586 11.3328978,10.4885797 C12.3691234,10.0249968 12.8872362,9.05275802 12.8872362,7.57186349 C12.8872362,5.33121371 11.5493245,4.21088883 8.87350109,4.21088883 C7.64052398,4.21088883 6.67644098,4.50706773 5.98125207,5.09942555 C5.6139822,5.42135943 5.23359537,5.96864438 4.8400916,6.74128041 C4.55152274,7.33363823 4.26295355,7.62981713 3.97438403,7.62981713 L1.4362874,7.62981713 C0.793565219,7.62981713 0.472204127,7.34651571 0.472204127,6.77991288 C0.472204127,4.62940221 1.33135315,2.929597 3.0496512,1.68049724 C4.59743106,0.560165746 6.49936418,1.11910481e-13 8.75545056,1.11910481e-13 C11.3525729,1.11910481e-13 13.4709327,0.534410771 15.1105298,1.60323231 C17.0386965,2.85233207 18.0027799,4.69378635 18.0027799,7.12759513 C18.0027799,10.0636292 16.5271422,12.0596166 13.5758669,13.1155574 C17.0780474,14.5706903 18.8291376,16.9787475 18.8291376,20.3397287 L18.8291376,20.3397287 Z"/></svg>