<svg xmlns="http://www.w3.org/2000/svg" width="18.829" height="28.337" viewBox="0 0 18.829 28.337"><path fill="red" d="M18.8291394,18.7800548 C18.8291394,21.7044462 17.9500583,24.0282913 16.1918963,25.7515899 C14.4466619,27.4748886 12.1261466,28.3365379 9.23035053,28.3365379 C6.45090343,28.3365379 4.25320102,27.6511356 2.63724329,26.2803311 C0.879081097,24.8181387 0,22.709706 0,19.9550329 C0,19.511151 0.349046879,19.28921 1.04714064,19.28921 L3.58742583,19.28921 C3.85890684,19.28921 4.11099635,19.3283752 4.34369435,19.4067058 C4.42126036,19.5372589 4.47297102,19.7069806 4.49882636,19.915871 C4.7185967,21.3911207 5.13874555,22.4485997 5.7592729,23.0883081 C6.45736693,23.8063469 7.53036297,24.1653664 8.97826102,24.1653664 C10.4261591,24.1653664 11.5961123,23.6496825 12.4881206,22.6183148 C13.328419,21.6391697 13.7485682,20.4119722 13.7485682,18.9367225 C13.7485682,15.2942922 12.2554233,13.473077 9.26913353,13.473077 C8.18321015,13.473077 7.09082262,13.8516791 5.99197091,14.6088832 L2.7923753,14.6088832 C2.49503895,14.6088832 2.21063028,14.569718 1.93914927,14.4913874 C1.80987266,14.3608343 1.74523436,14.2106985 1.74523436,14.0409801 C1.74523436,12.1871284 1.8421918,9.85022934 2.03610667,7.03028306 C2.20416641,4.68032671 2.37222612,2.33689903 2.54028579,0 L17.0839043,0 C17.4200236,0 17.7238238,0.0522192424 17.9953048,0.156657727 C18.1116538,0.417763988 18.1698283,1.3316359 18.1698283,2.89827347 C18.1698283,3.15937973 18.156902,3.37479206 18.1310493,3.54451046 C18.0405557,3.9622845 17.6656536,4.17117152 17.0063433,4.17117152 L6.47675843,4.17117152 C6.51554077,4.87615306 6.45736626,5.95321471 6.30223492,7.40235647 C6.14710292,8.83844091 6.08892842,9.90897725 6.12771142,10.6139655 C7.45926046,9.77842412 8.84898401,9.36065343 10.2968821,9.36065343 C12.9599808,9.36065343 15.0671899,10.2745253 16.6185093,12.1022692 C18.0922627,13.8255678 18.8291394,16.0514963 18.8291394,18.7800548 L18.8291394,18.7800548 Z"/></svg>