<svg xmlns="http://www.w3.org/2000/svg" width="18.829" height="28.337" viewBox="0 0 18.829 28.337"><path fill="red" d="M18.8291398,19.0648756 C18.8291398,21.9236393 18.0145995,24.1836072 16.3855189,25.8447791 C14.7690665,27.5059577 12.5590735,28.336547 9.75553995,28.336547 C3.25184665,28.336547 0,23.7522196 0,14.5835648 C0,10.5400875 0.700883462,7.26280781 2.10265039,4.7517257 C3.84538788,1.58390857 6.5478936,-1.15463195e-13 10.2101675,-1.15463195e-13 C12.3317604,-1.15463195e-13 14.0934402,0.444265888 15.495207,1.33279766 C17.1748018,2.3887412 18.0145992,3.93402146 18.0145992,5.96863845 C18.0145992,6.41934688 17.7052,6.64470109 17.0864016,6.64470109 L14.2828687,6.64470109 C13.9166412,6.64470109 13.6072421,6.43222523 13.3546712,6.00727349 C12.9884437,5.37628169 12.6979875,4.97064411 12.4833026,4.79036074 C11.9655326,4.365409 11.2078209,4.15293314 10.2101675,4.15293314 C8.53057278,4.15293314 7.22351958,4.95132659 6.28900794,6.5481135 C5.55655368,7.83584706 5.14612648,9.41975899 5.05772634,11.2998493 C6.5352644,10.1022574 8.30325865,9.5034615 10.3617091,9.5034615 C12.9758155,9.5034615 15.059523,10.4435067 16.6128317,12.323597 C18.0903704,14.1006673 18.8291398,16.3477601 18.8291398,19.0648756 L18.8291398,19.0648756 Z M13.8850691,18.9489806 C13.8850691,17.4809636 13.525156,16.2704934 12.80533,15.3175699 C12.0097327,14.2616331 10.9110506,13.7336647 9.50928382,13.7336647 C8.12014525,13.7336647 7.03409141,14.2616331 6.25112231,15.3175699 C5.54392514,16.2704934 5.19032655,17.4809636 5.19032655,18.9489806 C5.19032655,20.3526057 5.56286812,21.5437551 6.30795125,22.5224285 C7.11617744,23.5912504 8.18960241,24.1256614 9.52822615,24.1256614 C10.8921076,24.1256614 11.9781615,23.5976896 12.7863877,22.5417461 C13.5188419,21.5759509 13.8850691,20.3783624 13.8850691,18.9489806 L13.8850691,18.9489806 Z"/></svg>