<svg xmlns="http://www.w3.org/2000/svg" width="18.735" height="28.337" viewBox="0 0 18.735 28.337"><path d="M18.7348028,20.0499892 C18.7348028,22.8443678 17.7900877,24.9691263 15.9006576,26.4242646 C14.2443392,27.6991177 12.0420491,28.3365443 9.29378725,28.3365443 C6.57006344,28.3365443 4.38004226,27.6540461 2.72372371,26.2890497 C0.907907902,24.7824042 1.77635684e-15,22.6383307 1.77635684e-15,19.8568293 C1.77635684e-15,16.9336773 1.46614858,14.7831646 4.39844575,13.4052912 C2.14094497,11.8986446 1.01219458,9.74813199 1.01219458,6.95375338 C1.01219458,4.49418493 1.93237151,2.66560528 3.77272537,1.46801442 C5.2818156,0.489338139 7.26939788,0 9.73547222,0 C11.9807039,0 13.8271923,0.573040787 15.2749375,1.71912236 C16.8699108,3.00685437 17.6673975,4.79680195 17.6673975,7.0889651 C17.6673975,9.71593863 16.5447815,11.8149421 14.2995497,13.3859754 C17.2563851,14.699462 18.7348028,16.9208 18.7348028,20.0499892 Z M13.0113021,7.82297247 C13.0113021,5.41491353 11.7843995,4.21088406 9.33059433,4.21088406 C8.21411297,4.21088406 7.32460856,4.5263784 6.66208109,5.15736709 C5.99955363,5.77547855 5.6682899,6.66401368 5.6682899,7.82297247 C5.6682899,8.9432994 6.01795712,9.83183464 6.71729156,10.4885782 C7.37981902,11.1324441 8.25091995,11.454377 9.33059433,11.454377 C10.3857305,11.454377 11.2629657,11.1260054 11.9623002,10.469262 C12.6616348,9.81251871 13.0113021,8.93042219 13.0113021,7.82297247 L13.0113021,7.82297247 Z M13.8762684,19.8761451 C13.8762684,18.5369038 13.440718,17.4809635 12.5696172,16.7083242 C11.7475925,15.9743169 10.6863217,15.6073133 9.3858048,15.6073133 C8.10982619,15.6073133 7.06082452,15.9807555 6.23879981,16.72764 C5.35542986,17.5131568 4.91374489,18.5626585 4.91374489,19.8761451 C4.91374489,21.2540185 5.34316083,22.3228362 6.20199273,23.0825981 C6.99947939,23.7908509 8.06688464,24.1449773 9.40420849,24.1449773 C10.7292632,24.1449773 11.7905339,23.7844123 12.5880206,23.0632822 C13.4468525,22.3035203 13.8762684,21.2411413 13.8762684,19.8761451 L13.8762684,19.8761451 Z"/></svg>