<svg xmlns="http://www.w3.org/2000/svg" width="18.829" height="28.337" viewBox="0 0 18.829 28.337"><path fill="red" d="M18.8291377,20.0499863 C18.8291377,22.8443663 17.8796658,24.9691228 15.980722,26.4242556 C14.3160633,27.699115 12.102684,28.3365446 9.34058428,28.3365446 C6.60314593,28.3365446 4.40209738,27.6540449 2.73743864,26.2890454 C0.912479548,24.7824009 -1.77635684e-15,22.6383267 -1.77635684e-15,19.8568229 C-1.77635684e-15,16.9336741 1.47353109,14.7831618 4.42059328,13.4052861 C2.15172529,11.8986416 1.0172913,9.74812935 1.0172913,6.95374933 C1.0172913,4.4941845 1.94210166,2.66560442 3.79172236,1.46800909 C5.30841132,0.489336364 7.30600141,0 9.78449264,0 C12.0410299,0 13.896816,0.573038458 15.3518511,1.71911537 C16.954856,3.0068509 17.7563584,4.79679898 17.7563584,7.08895962 C17.7563584,9.71593545 16.6280898,11.8149395 14.3715526,13.3859718 C17.343276,14.6994597 18.8291377,16.9207979 18.8291377,20.0499863 L18.8291377,20.0499863 Z M13.0768177,7.82297439 C13.0768177,5.41491435 11.8437372,4.21088432 9.3775764,4.21088432 C8.25547331,4.21088432 7.36149008,4.5263784 6.69562671,5.15736656 C6.02976335,5.77547852 5.69683167,6.66401446 5.69683167,7.82297439 C5.69683167,8.94329891 6.04825957,9.83183145 6.75111538,10.488572 C7.41697875,11.1324432 8.29246575,11.4543787 9.3775764,11.4543787 C10.4380256,11.4543787 11.3196782,11.1260051 12.022534,10.4692577 C12.7253898,9.81251715 13.0768177,8.93042271 13.0768177,7.82297439 L13.0768177,7.82297439 Z M13.9461398,19.8761474 C13.9461398,18.5369003 13.5083963,17.4809567 12.6329093,16.7083168 C11.8067451,15.9743122 10.7401304,15.60731 9.43306507,15.60731 C8.15066181,15.60731 7.0963781,15.9807537 6.27021392,16.7276413 C5.38239588,17.5131574 4.93848686,18.5626595 4.93848686,19.8761474 C4.93848686,21.2540163 5.37006517,22.3228326 6.2332218,23.0825964 C7.03472391,23.7908485 8.10750385,24.1449746 9.45156161,24.1449746 C10.7832883,24.1449746 11.8499028,23.7844104 12.6514049,23.0632821 C13.5145615,22.3035183 13.9461398,21.2411401 13.9461398,19.8761474 L13.9461398,19.8761474 Z"/></svg>