<svg xmlns="http://www.w3.org/2000/svg" width="18.829" height="28.337" viewBox="0 0 18.829 28.337"><path d="M18.8291308,13.7529758 C18.8291308,17.7835788 18.1275419,21.0608546 16.724364,23.5848033 C14.9672312,26.7526279 12.2620052,28.3365402 8.60868603,28.3365402 C6.47231596,28.3365402 4.70886258,27.9051477 3.31832589,27.0423627 C1.63704082,25.9864256 0.796398285,24.4282705 0.796398285,22.3678973 C0.796398285,21.9171936 1.1061087,21.6918418 1.72552952,21.6918418 L4.53188578,21.6918418 C4.89848122,21.6918418 5.20819137,21.9043184 5.46101622,22.3292716 C5.8402535,22.9602554 6.13100221,23.3658908 6.33326236,23.5461776 C6.85155324,23.9711241 7.6100278,24.1835974 8.60868603,24.1835974 C10.2899711,24.1835974 11.5983398,23.3852053 12.5337922,21.7884211 C13.2669837,20.5006896 13.6778239,18.9167807 13.7663128,17.0366943 C12.2872872,18.2342825 10.5175133,18.8330765 8.45699092,18.8330765 C5.84025416,18.8330765 3.75444913,17.8930334 2.19957582,16.012947 C0.73319194,14.2487546 -3.55271368e-15,12.0081013 -3.55271368e-15,9.29098711 C-3.55271368e-15,6.43222184 0.802718741,4.17225401 2.40815622,2.5110836 C4.01359424,0.837027866 6.21317052,-1.15463195e-13 9.00688507,-1.15463195e-13 C15.5550489,-1.15463195e-13 18.8291308,4.58432528 18.8291308,13.7529758 L18.8291308,13.7529758 Z M13.6525422,9.40688436 C13.6525422,8.00325219 13.2796255,6.81209999 12.5337922,5.83342778 C11.7121111,4.75173354 10.6376054,4.21088642 9.31027529,4.21088642 C7.94502096,4.21088642 6.85787416,4.73885495 6.04883489,5.794792 C5.31564269,6.76059235 4.94904659,7.96462313 4.94904659,9.40688436 C4.94904659,10.874896 5.30932177,12.0853628 6.02987214,13.0382845 C6.81362971,14.0813497 7.90709743,14.6028823 9.31027529,14.6028823 C10.700812,14.6028823 11.7879588,14.0749104 12.5717157,13.0189666 C13.2922667,12.0660449 13.6525422,10.8620175 13.6525422,9.40688436 L13.6525422,9.40688436 Z"/></svg>