<svg xmlns="http://www.w3.org/2000/svg" width="233.712" height="332.91" viewBox="0 0 233.712 332.91"><g fill="none" fill-rule="evenodd"><rect width="233.712" height="332.91" fill="#FFF" fill-rule="nonzero" stroke="gray" stroke-width=".757" rx="8.937"/><path fill="#FFF" d="M21.2662501,14.0241618 C17.2216582,14.0241618 13.9643511,17.2319854 13.9643511,21.2185766 L13.9643511,311.80081 C13.9643511,315.786139 17.2216582,318.993354 21.2662501,318.993354 L212.677303,318.993354 C216.72375,318.993354 219.978595,315.786139 219.978595,311.80081 L219.978595,21.2185766 C219.978595,17.2319854 216.72375,14.0241618 212.677303,14.0241618 L21.2662501,14.0241618 Z"/><path stroke="red" stroke-width="3.562" d="M21.2662501,14.0241618 C16.2398606,14.0241618 13.9643511,17.2319854 13.9643511,21.2185766 L13.9643511,311.80081 C13.9643511,315.786139 17.2216582,318.993354 21.2662501,318.993354 L212.677303,318.993354 C216.72375,318.993354 219.978595,315.786139 219.978595,311.80081 L219.978595,21.2185766 C219.978595,17.2319854 216.72375,14.0241618 212.677303,14.0241618 L21.2662501,14.0241618 Z"/><path fill="#FFF" d="M23.3331042,21.0822457 C22.3141204,21.0822457 21.4948763,21.89027 21.4948763,22.8931434 L21.4948763,310.126233 C21.4948763,311.128482 22.3141204,311.936511 23.3331042,311.936511 L210.145217,311.936511 C211.164192,311.936511 211.985285,311.128482 211.985285,310.126233 L211.985285,22.8931434 C211.985285,21.89027 211.164192,21.0822457 210.145217,21.0822457 L23.3331042,21.0822457 Z"/><path fill="#CC2020" d="M60.3038571,58.9579662 C59.8095649,58.9579662 59.4117796,59.3464168 59.4117796,59.8313556 L59.4117796,274.104986 C59.4117796,274.590546 59.8095649,274.978997 60.3038571,274.978997 L172.052142,274.978997 C172.548278,274.978997 172.944204,274.590546 172.944204,274.104986 L172.944204,59.8313556 C172.944204,59.3464168 172.548278,58.9579662 172.052142,58.9579662 L60.3038571,58.9579662 L60.3038571,58.9579662 Z"/><path fill="#FFF" d="M77.8727224,66.5570156 C72.0581206,66.5570156 67.3755873,71.1704784 67.3755873,76.8994905 L67.3755873,256.119259 C67.3755873,261.848896 72.0581206,266.461749 77.8727224,266.461749 L153.276312,266.461749 C159.091532,266.461749 163.773454,261.848896 163.773454,256.119259 L163.773454,76.8994905 C163.773454,71.1704784 159.091532,66.5570156 153.276312,66.5570156 L77.8727224,66.5570156 Z"/><path fill="#CC2020" d="M79.0719176,74.7960104 C77.0981876,74.7960104 75.5084091,76.3479414 75.5084091,78.2752506 L75.5084091,254.742249 C75.5084091,256.670813 77.0981876,258.222128 79.0719176,258.222128 L152.346858,258.222128 C154.323065,258.222128 155.914708,256.670813 155.914708,254.742249 L155.914708,78.2752506 C155.914708,76.3479414 154.323065,74.7960104 152.346858,74.7960104 L79.0719176,74.7960104 Z"/><path stroke="red" stroke-width="2.051" d="M61.1564508,58.2613691 C60.6637049,58.2613691 60.2671635,58.6504785 60.2671635,59.1362412 L60.2671635,273.773554 C60.2671635,274.259939 60.6637049,274.649052 61.1564508,274.649052 L172.555416,274.649052 C173.04999,274.649052 173.444691,274.259939 173.444691,273.773554 L173.444691,59.1362412 C173.444691,58.6504785 173.04999,58.2613691 172.555416,58.2613691 L61.1564508,58.2613691 L61.1564508,58.2613691 Z"/><path stroke="red" stroke-linejoin="round" stroke-width="2.58" d="M79.0241329,66.3329874 C73.1894828,66.3329874 68.490803,70.9542809 68.490803,76.6930165 L68.490803,256.216968 C68.490803,261.956331 73.1894828,266.577022 79.0241329,266.577022 L154.687725,266.577022 C160.522985,266.577022 165.221046,261.956331 165.221046,256.216968 L165.221046,76.6930165 C165.221046,70.9542809 160.522985,66.3329874 154.687725,66.3329874 L79.0241329,66.3329874 Z"/><path stroke="red" stroke-linejoin="round" stroke-width="2.246" d="M80.4272806,74.5822082 C78.4649293,74.5822082 76.8843167,76.1367732 76.8843167,78.0673539 L76.8843167,254.83387 C76.8843167,256.76571 78.4649293,258.319662 80.4272806,258.319662 L153.279775,258.319662 C155.244592,258.319662 156.827048,256.76571 156.827048,254.83387 L156.827048,78.0673539 C156.827048,76.1367732 155.244592,74.5822082 153.279775,74.5822082 L80.4272806,74.5822082 Z"/><polygon fill="red" points="23.491 23.156 31.877 23.156 23.572 31.319 23.491 23.156"/><polygon fill="red" points="209.86 23.262 201.475 23.262 209.779 31.425 209.86 23.262"/><polygon fill="red" points="210.011 310.121 201.625 310.121 209.931 301.96 210.011 310.121"/><polygon fill="red" points="23.484 310.079 31.87 310.079 23.566 301.917"/><path stroke="red" stroke-width="3.345" d="M23.448973,21.0280754 C22.4299893,21.0280754 21.6107451,21.8360997 21.6107451,22.8389731 L21.6107451,310.072066 C21.6107451,311.074314 22.4299893,311.882343 23.448973,311.882343 L210.261091,311.882343 C211.280066,311.882343 212.101159,311.074314 212.101159,310.072066 L212.101159,22.8389731 C212.101159,21.8360997 211.280066,21.0280754 210.261091,21.0280754 L23.448973,21.0280754 Z"/><polygon stroke="red" stroke-width="1.079" points="23.607 23.104 31.993 23.104 23.687 31.267 23.607 23.104"/><polygon fill="red" fill-rule="nonzero" stroke="red" stroke-width="1.079" points="210.137 23.104 201.741 23.104 210.056 31.268 210.137 23.104"/><polygon fill="red" fill-rule="nonzero" stroke="red" stroke-width="1.079" points="210.127 310.067 201.74 310.067 210.047 301.906 210.127 310.067"/><polygon fill="red" fill-rule="nonzero" stroke="red" stroke-width="1.079" points="23.6 310.025 31.986 310.025 23.682 301.862"/><g transform="translate(26.847 58.06)"><polygon fill="#CC2020" points=".245 119.494 .245 127.339 28.474 112.669 28.474 104.631"/><polygon stroke="red" stroke-linecap="round" stroke-linejoin="round" stroke-width="1.646" points=".245 119.494 .245 127.339 28.474 112.669 28.474 104.631"/><polygon fill="#CC2020" points=".388 134.329 .388 142.175 28.618 127.502 28.618 119.466"/><polygon stroke="red" stroke-linecap="round" stroke-linejoin="round" stroke-width="1.646" points=".388 134.329 .388 142.175 28.618 127.502 28.618 119.466"/><polygon fill="#CC2020" points=".451 104.454 .451 112.299 28.68 97.626 28.68 89.59"/><polygon stroke="red" stroke-linecap="round" stroke-linejoin="round" stroke-width="1.646" points=".451 104.454 .451 112.299 28.68 97.626 28.68 89.59"/><polygon fill="#FFF" points=".317 112.621 .317 104.777 28.547 119.449 28.547 127.486"/><polygon stroke="red" stroke-linecap="round" stroke-linejoin="round" stroke-width="1.646" points=".317 112.621 .317 104.777 28.547 119.449 28.547 127.486"/><polygon fill="#CC2020" points=".308 89.618 .308 97.463 28.537 82.793 28.537 74.754"/><polygon stroke="red" stroke-linecap="round" stroke-linejoin="round" stroke-width="1.646" points=".308 89.618 .308 97.463 28.537 82.793 28.537 74.754"/><polygon fill="#FFF" points=".167 97.501 .167 89.657 28.396 104.329 28.396 112.364"/><polygon stroke="red" stroke-linecap="round" stroke-linejoin="round" stroke-width="1.646" points=".167 97.501 .167 89.657 28.396 104.329 28.396 112.364"/><polygon fill="#CC2020" points=".427 149.3 .427 157.144 28.656 142.474 28.656 134.437"/><polygon stroke="red" stroke-linecap="round" stroke-linejoin="round" stroke-width="1.646" points=".427 149.3 .427 157.144 28.656 142.474 28.656 134.437"/><polygon fill="#FFF" points=".104 127.377 .104 119.532 28.333 134.203 28.333 142.241"/><polygon stroke="red" stroke-linecap="round" stroke-linejoin="round" stroke-width="1.646" points=".104 127.377 .104 119.532 28.333 134.203 28.333 142.241"/><polygon fill="#CC2020" points=".141 44.74 .141 52.584 28.37 37.912 28.37 29.876"/><polygon stroke="red" stroke-linecap="round" stroke-linejoin="round" stroke-width="1.646" points=".141 44.74 .141 52.584 28.37 37.912 28.37 29.876"/><polygon fill="#CC2020" points=".284 59.574 .284 67.421 28.514 52.748 28.514 44.71"/><polygon stroke="red" stroke-linecap="round" stroke-linejoin="round" stroke-width="1.646" points=".284 59.574 .284 67.421 28.514 52.748 28.514 44.71"/><polygon fill="#CC2020" points=".348 29.698 .348 37.545 28.577 22.872 28.577 14.834"/><polygon stroke="red" stroke-linecap="round" stroke-linejoin="round" stroke-width="1.646" points=".348 29.698 .348 37.545 28.577 22.872 28.577 14.834"/><polygon fill="#FFF" points=".212 37.867 .212 30.023 28.442 44.693 28.442 52.731"/><polygon stroke="red" stroke-linecap="round" stroke-linejoin="round" stroke-width="1.646" points=".212 37.867 .212 30.023 28.442 44.693 28.442 52.731"/><polygon fill="#CC2020" points=".203 14.863 .203 22.708 28.432 8.036 28.432 0"/><polygon stroke="red" stroke-linecap="round" stroke-linejoin="round" stroke-width="1.646" points=".203 14.863 .203 22.708 28.432 8.036 28.432 0"/><polygon fill="#FFF" points=".063 22.747 .063 14.902 28.293 29.572 28.293 37.61"/><polygon stroke="red" stroke-linecap="round" stroke-linejoin="round" stroke-width="1.646" points=".063 22.747 .063 14.902 28.293 29.572 28.293 37.61"/><polygon fill="#FFF" points=".275 7.991 .275 .147 28.505 14.817 28.505 22.855"/><polygon stroke="red" stroke-linecap="round" stroke-linejoin="round" stroke-width="1.646" points=".275 7.991 .275 .147 28.505 14.817 28.505 22.855"/><polygon fill="#CC2020" points=".324 74.546 .324 82.39 28.554 67.719 28.554 59.682"/><polygon stroke="red" stroke-linecap="round" stroke-linejoin="round" stroke-width="1.646" points=".324 74.546 .324 82.39 28.554 67.719 28.554 59.682"/><polygon fill="#FFF" points="0 52.623 0 44.778 28.23 59.448 28.23 67.486"/><polygon stroke="red" stroke-linecap="round" stroke-linejoin="round" stroke-width="1.646" points="0 52.623 0 44.778 28.23 59.448 28.23 67.486"/><polygon fill="#FFF" points=".38 82.746 .38 74.901 28.609 89.574 28.609 97.609"/><polygon stroke="red" stroke-linecap="round" stroke-linejoin="round" stroke-width="1.646" points=".38 82.746 .38 74.901 28.609 89.574 28.609 97.609"/><polygon fill="#FFF" points=".039 67.593 .039 59.748 28.269 74.42 28.269 82.457"/><polygon stroke="red" stroke-linecap="round" stroke-linejoin="round" stroke-width="1.646" points=".039 67.593 .039 59.748 28.269 74.42 28.269 82.457"/><polygon fill="#CC2020" points=".245 194.043 .245 201.89 28.474 187.216 28.474 179.177"/><polygon stroke="red" stroke-linecap="round" stroke-linejoin="round" stroke-width="1.646" points=".245 194.043 .245 201.89 28.474 187.216 28.474 179.177"/><polygon fill="#CC2020" points=".388 208.879 .388 216.723 28.618 202.052 28.618 194.016"/><polygon stroke="red" stroke-linecap="round" stroke-linejoin="round" stroke-width="1.646" points=".388 208.879 .388 216.723 28.618 202.052 28.618 194.016"/><polygon fill="#FFF" points=".104 201.928 .104 194.081 28.333 208.753 28.333 216.792"/><polygon stroke="red" stroke-linecap="round" stroke-linejoin="round" stroke-width="1.646" points=".104 201.928 .104 194.081 28.333 208.753 28.333 216.792"/><polygon fill="#CC2020" points=".451 179.002 .451 186.846 28.68 172.175 28.68 164.139"/><polygon fill="#CC2020" points=".308 164.169 .308 172.013 28.537 157.339 28.537 149.305"/><polygon stroke="red" stroke-linecap="round" stroke-linejoin="round" stroke-width="1.646" points=".308 164.169 .308 172.013 28.537 157.339 28.537 149.305"/><polygon fill="#FFF" points=".143 142.347 .143 134.503 28.372 149.174 28.372 157.213"/><polygon stroke="red" stroke-linecap="round" stroke-linejoin="round" stroke-width="1.646" points=".143 142.347 .143 134.503 28.372 149.174 28.372 157.213"/><polygon stroke="red" stroke-linecap="round" stroke-linejoin="round" stroke-width="1.646" points=".451 179.002 .451 186.846 28.68 172.175 28.68 164.139"/><polygon fill="#FFF" points=".317 187.171 .317 179.325 28.547 193.998 28.547 202.036"/><polygon stroke="red" stroke-linecap="round" stroke-linejoin="round" stroke-width="1.646" points=".317 187.171 .317 179.325 28.547 193.998 28.547 202.036"/><polygon fill="#FFF" points=".167 172.051 .167 164.206 28.396 178.877 28.396 186.914"/><polygon stroke="red" stroke-linecap="round" stroke-linejoin="round" stroke-width="1.646" points=".167 172.051 .167 164.206 28.396 178.877 28.396 186.914"/><polygon fill="#FFF" points=".38 157.295 .38 149.45 28.609 164.121 28.609 172.159"/><polygon stroke="red" stroke-linecap="round" stroke-linejoin="round" stroke-width="1.646" points=".38 157.295 .38 149.45 28.609 164.121 28.609 172.159"/></g><path stroke="red" stroke-width=".625" d="M221.625694,311.940249 C221.625694,316.752296 217.7415,320.699046 212.97722,320.699046 L20.5914339,320.699046 C15.8400676,320.699046 11.9558822,316.752296 11.9558822,311.940249 L11.9558822,20.7180737 C11.9558822,15.8998021 15.8400676,11.9599004 20.5914339,11.9599004 L212.97722,11.9599004 C217.7415,11.9599004 221.625694,15.8998021 221.625694,20.7180737 L221.625694,311.940249 Z"/><g transform="translate(177.972 58.06)"><polygon fill="#CC2020" points=".245 119.494 .245 127.339 28.474 112.669 28.474 104.631"/><polygon stroke="red" stroke-linecap="round" stroke-linejoin="round" stroke-width="1.646" points=".245 119.494 .245 127.339 28.474 112.669 28.474 104.631"/><polygon fill="#CC2020" points=".388 134.329 .388 142.175 28.618 127.502 28.618 119.466"/><polygon stroke="red" stroke-linecap="round" stroke-linejoin="round" stroke-width="1.646" points=".388 134.329 .388 142.175 28.618 127.502 28.618 119.466"/><polygon fill="#CC2020" points=".451 104.454 .451 112.299 28.68 97.626 28.68 89.59"/><polygon stroke="red" stroke-linecap="round" stroke-linejoin="round" stroke-width="1.646" points=".451 104.454 .451 112.299 28.68 97.626 28.68 89.59"/><polygon fill="#FFF" points=".317 112.621 .317 104.777 28.547 119.449 28.547 127.486"/><polygon stroke="red" stroke-linecap="round" stroke-linejoin="round" stroke-width="1.646" points=".317 112.621 .317 104.777 28.547 119.449 28.547 127.486"/><polygon fill="#CC2020" points=".308 89.618 .308 97.463 28.537 82.793 28.537 74.754"/><polygon stroke="red" stroke-linecap="round" stroke-linejoin="round" stroke-width="1.646" points=".308 89.618 .308 97.463 28.537 82.793 28.537 74.754"/><polygon fill="#FFF" points=".167 97.501 .167 89.657 28.396 104.329 28.396 112.364"/><polygon stroke="red" stroke-linecap="round" stroke-linejoin="round" stroke-width="1.646" points=".167 97.501 .167 89.657 28.396 104.329 28.396 112.364"/><polygon fill="#CC2020" points=".427 149.3 .427 157.144 28.656 142.474 28.656 134.437"/><polygon stroke="red" stroke-linecap="round" stroke-linejoin="round" stroke-width="1.646" points=".427 149.3 .427 157.144 28.656 142.474 28.656 134.437"/><polygon fill="#FFF" points=".104 127.377 .104 119.532 28.333 134.203 28.333 142.241"/><polygon stroke="red" stroke-linecap="round" stroke-linejoin="round" stroke-width="1.646" points=".104 127.377 .104 119.532 28.333 134.203 28.333 142.241"/><polygon fill="#CC2020" points=".141 44.74 .141 52.584 28.37 37.912 28.37 29.876"/><polygon stroke="red" stroke-linecap="round" stroke-linejoin="round" stroke-width="1.646" points=".141 44.74 .141 52.584 28.37 37.912 28.37 29.876"/><polygon fill="#CC2020" points=".284 59.574 .284 67.421 28.514 52.748 28.514 44.71"/><polygon stroke="red" stroke-linecap="round" stroke-linejoin="round" stroke-width="1.646" points=".284 59.574 .284 67.421 28.514 52.748 28.514 44.71"/><polygon fill="#CC2020" points=".348 29.698 .348 37.545 28.577 22.872 28.577 14.834"/><polygon stroke="red" stroke-linecap="round" stroke-linejoin="round" stroke-width="1.646" points=".348 29.698 .348 37.545 28.577 22.872 28.577 14.834"/><polygon fill="#FFF" points=".212 37.867 .212 30.023 28.442 44.693 28.442 52.731"/><polygon stroke="red" stroke-linecap="round" stroke-linejoin="round" stroke-width="1.646" points=".212 37.867 .212 30.023 28.442 44.693 28.442 52.731"/><polygon fill="#CC2020" points=".203 14.863 .203 22.708 28.432 8.036 28.432 0"/><polygon stroke="red" stroke-linecap="round" stroke-linejoin="round" stroke-width="1.646" points=".203 14.863 .203 22.708 28.432 8.036 28.432 0"/><polygon fill="#FFF" points=".063 22.747 .063 14.902 28.293 29.572 28.293 37.61"/><polygon stroke="red" stroke-linecap="round" stroke-linejoin="round" stroke-width="1.646" points=".063 22.747 .063 14.902 28.293 29.572 28.293 37.61"/><polygon fill="#FFF" points=".275 7.991 .275 .147 28.505 14.817 28.505 22.855"/><polygon stroke="red" stroke-linecap="round" stroke-linejoin="round" stroke-width="1.646" points=".275 7.991 .275 .147 28.505 14.817 28.505 22.855"/><polygon fill="#CC2020" points=".324 74.546 .324 82.39 28.554 67.719 28.554 59.682"/><polygon stroke="red" stroke-linecap="round" stroke-linejoin="round" stroke-width="1.646" points=".324 74.546 .324 82.39 28.554 67.719 28.554 59.682"/><polygon fill="#FFF" points="0 52.623 0 44.778 28.23 59.448 28.23 67.486"/><polygon stroke="red" stroke-linecap="round" stroke-linejoin="round" stroke-width="1.646" points="0 52.623 0 44.778 28.23 59.448 28.23 67.486"/><polygon fill="#FFF" points=".38 82.746 .38 74.901 28.609 89.574 28.609 97.609"/><polygon stroke="red" stroke-linecap="round" stroke-linejoin="round" stroke-width="1.646" points=".38 82.746 .38 74.901 28.609 89.574 28.609 97.609"/><polygon fill="#FFF" points=".039 67.593 .039 59.748 28.269 74.42 28.269 82.457"/><polygon stroke="red" stroke-linecap="round" stroke-linejoin="round" stroke-width="1.646" points=".039 67.593 .039 59.748 28.269 74.42 28.269 82.457"/><polygon fill="#CC2020" points=".245 194.043 .245 201.89 28.474 187.216 28.474 179.177"/><polygon stroke="red" stroke-linecap="round" stroke-linejoin="round" stroke-width="1.646" points=".245 194.043 .245 201.89 28.474 187.216 28.474 179.177"/><polygon fill="#CC2020" points=".388 208.879 .388 216.723 28.618 202.052 28.618 194.016"/><polygon stroke="red" stroke-linecap="round" stroke-linejoin="round" stroke-width="1.646" points=".388 208.879 .388 216.723 28.618 202.052 28.618 194.016"/><polygon fill="#FFF" points=".104 201.928 .104 194.081 28.333 208.753 28.333 216.792"/><polygon stroke="red" stroke-linecap="round" stroke-linejoin="round" stroke-width="1.646" points=".104 201.928 .104 194.081 28.333 208.753 28.333 216.792"/><polygon fill="#CC2020" points=".451 179.002 .451 186.846 28.68 172.175 28.68 164.139"/><polygon fill="#CC2020" points=".308 164.169 .308 172.013 28.537 157.339 28.537 149.305"/><polygon stroke="red" stroke-linecap="round" stroke-linejoin="round" stroke-width="1.646" points=".308 164.169 .308 172.013 28.537 157.339 28.537 149.305"/><polygon fill="#FFF" points=".143 142.347 .143 134.503 28.372 149.174 28.372 157.213"/><polygon stroke="red" stroke-linecap="round" stroke-linejoin="round" stroke-width="1.646" points=".143 142.347 .143 134.503 28.372 149.174 28.372 157.213"/><polygon stroke="red" stroke-linecap="round" stroke-linejoin="round" stroke-width="1.646" points=".451 179.002 .451 186.846 28.68 172.175 28.68 164.139"/><polygon fill="#FFF" points=".317 187.171 .317 179.325 28.547 193.998 28.547 202.036"/><polygon stroke="red" stroke-linecap="round" stroke-linejoin="round" stroke-width="1.646" points=".317 187.171 .317 179.325 28.547 193.998 28.547 202.036"/><polygon fill="#FFF" points=".167 172.051 .167 164.206 28.396 178.877 28.396 186.914"/><polygon stroke="red" stroke-linecap="round" stroke-linejoin="round" stroke-width="1.646" points=".167 172.051 .167 164.206 28.396 178.877 28.396 186.914"/><polygon fill="#FFF" points=".38 157.295 .38 149.45 28.609 164.121 28.609 172.159"/><polygon stroke="red" stroke-linecap="round" stroke-linejoin="round" stroke-width="1.646" points=".38 157.295 .38 149.45 28.609 164.121 28.609 172.159"/></g><polygon fill="#CC2020" points="128.114 278.863 120.268 278.863 134.938 307.093 142.976 307.093"/><polygon stroke="red" stroke-linecap="round" stroke-linejoin="round" stroke-width="1.646" points="128.114 278.863 120.268 278.863 134.938 307.093 142.976 307.093"/><polygon fill="#CC2020" points="113.278 279.007 105.432 279.007 120.105 307.236 128.141 307.236"/><polygon stroke="red" stroke-linecap="round" stroke-linejoin="round" stroke-width="1.646" points="113.278 279.007 105.432 279.007 120.105 307.236 128.141 307.236"/><polygon fill="#CC2020" points="143.153 279.069 135.308 279.069 149.981 307.299 158.017 307.299"/><polygon stroke="red" stroke-linecap="round" stroke-linejoin="round" stroke-width="1.646" points="143.153 279.069 135.308 279.069 149.981 307.299 158.017 307.299"/><polygon fill="#FFF" points="134.986 278.935 142.83 278.935 128.159 307.165 120.121 307.165"/><polygon stroke="red" stroke-linecap="round" stroke-linejoin="round" stroke-width="1.646" points="134.986 278.935 142.83 278.935 128.159 307.165 120.121 307.165"/><polygon fill="#CC2027" points="157.989 278.926 150.144 278.926 164.814 307.155 172.853 307.155"/><polygon stroke="red" stroke-linecap="round" stroke-linejoin="round" stroke-width="1.646" points="157.989 278.926 150.144 278.926 164.814 307.155 172.853 307.155"/><polygon fill="#FFF" points="150.106 278.785 157.95 278.785 143.278 307.015 135.243 307.015"/><polygon stroke="red" stroke-linecap="round" stroke-linejoin="round" stroke-width="1.646" points="150.106 278.785 157.95 278.785 143.278 307.015 135.243 307.015"/><polygon fill="#CC2020" points="98.307 279.045 90.463 279.045 105.133 307.275 113.17 307.275"/><polygon stroke="red" stroke-linecap="round" stroke-linejoin="round" stroke-width="1.646" points="98.307 279.045 90.463 279.045 105.133 307.275 113.17 307.275"/><polygon fill="#FFF" points="120.23 278.723 128.075 278.723 113.404 306.951 105.366 306.951"/><polygon stroke="red" stroke-linecap="round" stroke-linejoin="round" stroke-width="1.646" points="120.23 278.723 128.075 278.723 113.404 306.951 105.366 306.951"/><polygon fill="#CC2020" points="188.033 278.902 180.186 278.902 194.859 307.133 202.897 307.133"/><polygon stroke="red" stroke-linecap="round" stroke-linejoin="round" stroke-width="1.646" points="188.033 278.902 180.186 278.902 194.859 307.133 202.897 307.133"/><polygon fill="#CC2020" points="173.061 278.942 165.217 278.942 179.888 307.172 187.925 307.172"/><polygon stroke="red" stroke-linecap="round" stroke-linejoin="round" stroke-width="1.646" points="173.061 278.942 165.217 278.942 179.888 307.172 187.925 307.172"/><polygon fill="#FFF" points="194.984 278.618 202.829 278.618 188.159 306.849 180.121 306.849"/><polygon stroke="red" stroke-linecap="round" stroke-linejoin="round" stroke-width="1.646" points="194.984 278.618 202.829 278.618 188.159 306.849 180.121 306.849"/><polygon fill="#FFF" points="164.861 278.998 172.706 278.998 158.033 307.227 149.998 307.227"/><polygon stroke="red" stroke-linecap="round" stroke-linejoin="round" stroke-width="1.646" points="164.861 278.998 172.706 278.998 158.033 307.227 149.998 307.227"/><polygon fill="#FFF" points="180.014 278.658 187.859 278.658 173.187 306.887 165.15 306.887"/><polygon stroke="red" stroke-linecap="round" stroke-linejoin="round" stroke-width="1.646" points="180.014 278.658 187.859 278.658 173.187 306.887 165.15 306.887"/><polygon fill="#CC2020" points="53.564 278.863 45.717 278.863 60.391 307.093 68.43 307.093"/><polygon stroke="red" stroke-linecap="round" stroke-linejoin="round" stroke-width="1.646" points="53.564 278.863 45.717 278.863 60.391 307.093 68.43 307.093"/><polygon fill="#CC2020" points="38.728 279.007 30.884 279.007 45.555 307.236 53.591 307.236"/><polygon stroke="red" stroke-linecap="round" stroke-linejoin="round" stroke-width="1.646" points="38.728 279.007 30.884 279.007 45.555 307.236 53.591 307.236"/><polygon fill="#FFF" points="45.679 278.723 53.526 278.723 38.854 306.951 30.815 306.951"/><polygon stroke="red" stroke-linecap="round" stroke-linejoin="round" stroke-width="1.646" points="45.679 278.723 53.526 278.723 38.854 306.951 30.815 306.951"/><polygon fill="#CC2020" points="68.605 279.069 60.761 279.069 75.432 307.299 83.468 307.299"/><polygon fill="#CC2020" points="83.438 278.926 75.594 278.926 90.268 307.155 98.302 307.155"/><polygon stroke="red" stroke-linecap="round" stroke-linejoin="round" stroke-width="1.646" points="83.438 278.926 75.594 278.926 90.268 307.155 98.302 307.155"/><polygon fill="#FFF" points="105.26 278.761 113.104 278.761 98.433 306.99 90.394 306.99"/><polygon stroke="red" stroke-linecap="round" stroke-linejoin="round" stroke-width="1.646" points="105.26 278.761 113.104 278.761 98.433 306.99 90.394 306.99"/><polygon stroke="red" stroke-linecap="round" stroke-linejoin="round" stroke-width="1.646" points="68.605 279.069 60.761 279.069 75.432 307.299 83.468 307.299"/><polygon fill="#FFF" points="60.436 278.935 68.282 278.935 53.609 307.165 45.571 307.165"/><polygon stroke="red" stroke-linecap="round" stroke-linejoin="round" stroke-width="1.646" points="60.436 278.935 68.282 278.935 53.609 307.165 45.571 307.165"/><polygon fill="#FFF" points="75.556 278.785 83.401 278.785 68.73 307.015 60.693 307.015"/><polygon stroke="red" stroke-linecap="round" stroke-linejoin="round" stroke-width="1.646" points="75.556 278.785 83.401 278.785 68.73 307.015 60.693 307.015"/><polygon fill="#FFF" points="90.312 278.998 98.157 278.998 83.486 307.227 75.448 307.227"/><polygon stroke="red" stroke-linecap="round" stroke-linejoin="round" stroke-width="1.646" points="90.312 278.998 98.157 278.998 83.486 307.227 75.448 307.227"/><polygon fill="#CC2020" points="128.114 25.856 120.269 25.856 134.939 54.086 142.977 54.086"/><polygon stroke="red" stroke-linecap="round" stroke-linejoin="round" stroke-width="1.646" points="128.114 25.856 120.269 25.856 134.939 54.086 142.977 54.086"/><polygon fill="#CC2020" points="113.278 26 105.433 26 120.105 54.229 128.141 54.229"/><polygon stroke="red" stroke-linecap="round" stroke-linejoin="round" stroke-width="1.646" points="113.278 26 105.433 26 120.105 54.229 128.141 54.229"/><polygon fill="#CC2020" points="143.153 26.063 135.308 26.063 149.981 54.292 158.017 54.292"/><polygon stroke="red" stroke-linecap="round" stroke-linejoin="round" stroke-width="1.646" points="143.153 26.063 135.308 26.063 149.981 54.292 158.017 54.292"/><polygon fill="#FFF" points="134.986 25.928 142.83 25.928 128.159 54.158 120.121 54.158"/><polygon stroke="red" stroke-linecap="round" stroke-linejoin="round" stroke-width="1.646" points="134.986 25.928 142.83 25.928 128.159 54.158 120.121 54.158"/><polygon fill="#CC2020" points="157.989 25.919 150.144 25.919 164.815 54.149 172.853 54.149"/><polygon stroke="red" stroke-linecap="round" stroke-linejoin="round" stroke-width="1.646" points="157.989 25.919 150.144 25.919 164.815 54.149 172.853 54.149"/><polygon fill="#FFF" points="150.106 25.778 157.951 25.778 143.278 54.008 135.243 54.008"/><polygon stroke="red" stroke-linecap="round" stroke-linejoin="round" stroke-width="1.646" points="150.106 25.778 157.951 25.778 143.278 54.008 135.243 54.008"/><polygon fill="#CC2020" points="98.307 26.039 90.463 26.039 105.133 54.268 113.171 54.268"/><polygon stroke="red" stroke-linecap="round" stroke-linejoin="round" stroke-width="1.646" points="98.307 26.039 90.463 26.039 105.133 54.268 113.171 54.268"/><polygon fill="#FFF" points="120.23 25.716 128.075 25.716 113.404 53.945 105.367 53.945"/><polygon stroke="red" stroke-linecap="round" stroke-linejoin="round" stroke-width="1.646" points="120.23 25.716 128.075 25.716 113.404 53.945 105.367 53.945"/><polygon fill="#CC2020" points="188.034 25.895 180.187 25.895 194.859 54.126 202.897 54.126"/><polygon stroke="red" stroke-linecap="round" stroke-linejoin="round" stroke-width="1.646" points="188.034 25.895 180.187 25.895 194.859 54.126 202.897 54.126"/><polygon fill="#CC2020" points="173.062 25.935 165.217 25.935 179.889 54.165 187.925 54.165"/><polygon stroke="red" stroke-linecap="round" stroke-linejoin="round" stroke-width="1.646" points="173.062 25.935 165.217 25.935 179.889 54.165 187.925 54.165"/><polygon fill="#FFF" points="194.984 25.611 202.83 25.611 188.159 53.842 180.121 53.842"/><polygon stroke="red" stroke-linecap="round" stroke-linejoin="round" stroke-width="1.646" points="194.984 25.611 202.83 25.611 188.159 53.842 180.121 53.842"/><polygon fill="#FFF" points="164.862 25.991 172.706 25.991 158.034 54.22 149.998 54.22"/><polygon stroke="red" stroke-linecap="round" stroke-linejoin="round" stroke-width="1.646" points="164.862 25.991 172.706 25.991 158.034 54.22 149.998 54.22"/><polygon fill="#FFF" points="180.014 25.651 187.859 25.651 173.187 53.88 165.151 53.88"/><polygon stroke="red" stroke-linecap="round" stroke-linejoin="round" stroke-width="1.646" points="180.014 25.651 187.859 25.651 173.187 53.88 165.151 53.88"/><polygon fill="#CC2020" points="53.564 25.856 45.718 25.856 60.392 54.086 68.43 54.086"/><polygon stroke="red" stroke-linecap="round" stroke-linejoin="round" stroke-width="1.646" points="53.564 25.856 45.718 25.856 60.392 54.086 68.43 54.086"/><polygon fill="#CC2020" points="38.728 26 30.884 26 45.556 54.229 53.592 54.229"/><polygon stroke="red" stroke-linecap="round" stroke-linejoin="round" stroke-width="1.646" points="38.728 26 30.884 26 45.556 54.229 53.592 54.229"/><polygon fill="#FFF" points="45.679 25.716 53.527 25.716 38.855 53.945 30.816 53.945"/><polygon stroke="red" stroke-linecap="round" stroke-linejoin="round" stroke-width="1.646" points="45.679 25.716 53.527 25.716 38.855 53.945 30.816 53.945"/><polygon fill="#CC2020" points="68.605 26.063 60.761 26.063 75.432 54.292 83.469 54.292"/><polygon fill="#CC2020" points="83.439 25.919 75.595 25.919 90.268 54.149 98.302 54.149"/><polygon stroke="red" stroke-linecap="round" stroke-linejoin="round" stroke-width="1.646" points="83.439 25.919 75.595 25.919 90.268 54.149 98.302 54.149"/><polygon fill="#FFF" points="105.26 25.754 113.104 25.754 98.433 53.983 90.395 53.983"/><polygon stroke="red" stroke-linecap="round" stroke-linejoin="round" stroke-width="1.646" points="105.26 25.754 113.104 25.754 98.433 53.983 90.395 53.983"/><polygon stroke="red" stroke-linecap="round" stroke-linejoin="round" stroke-width="1.646" points="68.605 26.063 60.761 26.063 75.432 54.292 83.469 54.292"/><polygon fill="#FFF" stroke="red" stroke-linecap="round" stroke-linejoin="round" stroke-width="1.646" points="60.437 25.928 68.283 25.928 53.609 54.158 45.572 54.158"/><polygon stroke="red" stroke-linecap="round" stroke-linejoin="round" stroke-width="1.646" points="60.437 25.928 68.283 25.928 53.609 54.158 45.572 54.158"/><polygon fill="#FFF" points="75.556 25.778 83.401 25.778 68.73 54.008 60.694 54.008"/><polygon stroke="red" stroke-linecap="round" stroke-linejoin="round" stroke-width="1.646" points="75.556 25.778 83.401 25.778 68.73 54.008 60.694 54.008"/><polygon fill="#FFF" points="90.312 25.991 98.157 25.991 83.486 54.22 75.449 54.22"/><polygon stroke="red" stroke-linecap="round" stroke-linejoin="round" stroke-width="1.646" points="90.312 25.991 98.157 25.991 83.486 54.22 75.449 54.22"/></g></svg>