<svg xmlns="http://www.w3.org/2000/svg" width="18.871" height="28.381" viewBox="0 0 18.871 28.381"><path d="M18.8709376,20.3714268 C18.8709376,23.0024932 17.931006,25.027385 16.0511429,26.4461022 C14.3553216,27.7358361 12.1336648,28.380703 9.38617237,28.380703 C3.12872412,28.380703 0,25.4787902 0,19.6749645 C0,19.4041214 0.0460106315,19.1461746 0.138031895,18.9011242 C0.335220402,18.7850504 0.558700704,18.7270135 0.8084728,18.7270135 L3.37192279,18.7270135 C3.62169489,18.7270135 3.85174838,18.7850504 4.06208327,18.9011242 C4.12781419,19.0816862 4.18039758,19.2944925 4.21983343,19.5395429 C4.44331384,21.1388222 4.90342049,22.2995893 5.60015339,23.0218443 C6.37576137,23.8214773 7.56546503,24.2212938 9.16926438,24.2212938 C10.4838544,24.2212938 11.5552451,23.873066 12.3834365,23.1766104 C13.2510658,22.4285627 13.6848804,21.422565 13.6848804,20.1586172 C13.6848804,17.4759654 12.1928209,15.9024854 9.20870192,15.4381772 C8.84061687,15.386605 8.56455308,15.3092204 8.38051056,15.2060232 C8.27534311,14.9996618 8.22275939,13.9549717 8.22275939,12.0719529 C8.22275939,11.8269025 8.2819162,11.5947517 8.40022983,11.3755006 C9.38617203,11.0917545 10.3721142,10.8015635 11.3580564,10.5049277 C12.3965827,10.0406196 12.9158458,9.066866 12.9158458,7.58366705 C12.9158458,5.33951751 11.5749641,4.21744274 8.89320059,4.21744274 C7.6574863,4.21744274 6.6912627,4.51408517 5.9945298,5.10737003 C5.62644475,5.42980516 5.24521385,5.97794289 4.8508371,6.75178324 C4.56162713,7.34506149 4.27241716,7.64170062 3.98320718,7.64170062 L1.43947596,7.64170062 C0.795326919,7.64170062 0.473252398,7.35795784 0.473252398,6.79047228 C0.473252398,4.63661039 1.33430875,2.93415701 3.05642146,1.68311215 C4.60763742,0.561037385 6.51379293,0 8.77488797,0 C11.3777757,0 13.5008382,0.535241386 15.1440754,1.60572416 C17.0765226,2.85676902 18.0427462,4.70109543 18.0427462,7.13870341 C18.0427462,10.0793086 16.5638326,12.0784044 13.6060053,13.1359908 C17.1159601,14.5933971 18.8709376,17.005209 18.8709376,20.3714268 L18.8709376,20.3714268 Z"/></svg>