<svg xmlns="http://www.w3.org/2000/svg" width="18.829" height="28.337" viewBox="0 0 18.829 28.337"><path d="M18.8291308,18.7800566 C18.8291308,21.7044417 17.9500501,24.0282836 16.1918889,25.7515824 C14.4466553,27.4748812 12.1261412,28.3365307 9.23034659,28.3365307 C6.45090035,28.3365307 4.25319876,27.6511283 2.63724181,26.2803237 C0.879080604,24.8181311 0,22.7096982 0,19.9550249 C0,19.5111495 0.349046722,19.2892119 1.04714017,19.2892119 L3.58742428,19.2892119 C3.85890527,19.2892119 4.11099476,19.3283772 4.34369275,19.4067077 C4.42125809,19.5372608 4.47296842,19.7069793 4.49882375,19.9158629 C4.71859408,21.3911128 5.1387429,22.4485919 5.75927021,23.0883003 C6.45736419,23.806346 7.53035982,24.1653688 8.9782571,24.1653688 C10.4261544,24.1653688 11.5961072,23.6496815 12.4881155,22.618307 C13.3284131,21.6391618 13.7485619,20.4119642 13.7485619,18.9367144 C13.7485619,15.2942837 12.2554178,13.4730683 9.26912959,13.4730683 C8.18320629,13.4730683 7.09081916,13.8516738 5.9919682,14.6088847 L2.79237381,14.6088847 C2.49503748,14.6088847 2.21062899,14.5697194 1.93914834,14.4913889 C1.80987181,14.3608357 1.74523354,14.2107 1.74523354,14.0409815 C1.74523354,12.1871229 1.84219097,9.85022027 2.03610583,7.03027371 C2.20416516,4.68032383 2.37222466,2.33689926 2.54028432,0 L17.0838968,0 C17.4200162,0 17.723816,0.0522192476 17.9952963,0.156657743 C18.1116453,0.41776403 18.1698198,1.33163603 18.1698198,2.89827376 C18.1698198,3.15938004 18.1568935,3.3747924 18.1310408,3.54451081 C18.0405471,3.96228489 17.6656451,4.17117193 17.0063348,4.17117193 L6.47675568,4.17117193 C6.51553802,4.87615355 6.45736352,5.9532153 6.30223219,7.40235721 C6.1471002,8.83844179 6.0889257,9.90897488 6.1277087,10.6139565 C7.45925765,9.77842174 8.84898077,9.36065436 10.2968781,9.36065436 C12.9599746,9.36065436 15.0671826,10.274523 16.6185018,12.1022603 C18.0922545,13.8255658 18.8291308,16.0514979 18.8291308,18.7800566 L18.8291308,18.7800566 Z"/></svg>