<svg xmlns="http://www.w3.org/2000/svg" width="18.829" height="28.337" viewBox="0 0 18.829 28.337"><path d="M18.8291388,28.3365417 L14.8975197,28.3365417 L13.3580303,25.4226239 C12.0869648,26.4462757 10.6698452,26.9581016 9.10667148,26.9581016 C6.532961,26.9581016 4.36978111,25.6610883 2.61713182,23.0670617 C0.872377274,20.4614028 0,17.262491 0,13.4703264 C0,11.0391535 0.398688221,8.79409906 1.19606466,6.73516319 C1.99344128,4.67622732 3.10661045,3.03605808 4.53557218,1.81465547 C5.94084968,0.604885157 7.45270716,1.77635684e-15 9.07114462,1.77635684e-15 C11.5974861,1.77635684e-15 13.7330342,1.3260943 15.4777887,3.9782829 C17.2225434,6.6304715 18.0949208,9.82356699 18.0949208,13.5575694 C18.0949208,17.0356589 17.3291235,20.0368199 15.7975289,22.5610522 L18.8291388,28.3365417 Z M14.7790975,13.5226725 C14.7790975,11.1263967 14.2383025,9.07909313 13.1567126,7.38076177 C12.0514382,5.64753326 10.6895822,4.78091901 9.07114462,4.78091901 C7.3895487,4.78091901 6.01190314,5.62426842 4.93820794,7.31096722 C3.87240766,8.98603374 3.33950752,11.0682345 3.33950752,13.5575694 C3.33950752,16.3958765 4.03030398,18.640931 5.41189691,20.2927329 C6.49348685,21.5839298 7.72113092,22.2295283 9.09482911,22.2295283 C9.8843108,22.2295283 10.6264236,22.0026965 11.3211675,21.5490328 L8.20666226,15.6339542 L12.1619657,15.6339542 L13.7251395,18.6176662 C14.4277782,17.0821885 14.7790975,15.3838573 14.7790975,13.5226725 Z"/></svg>