<svg xmlns="http://www.w3.org/2000/svg" width="56.487" height="56.673" viewBox="0 0 56.487 56.673"><path d="M15.2311152,52.13178 C18.6798252,52.13178 22.4165552,52.13178 25.8652452,52.13178 C25.8652452,48.16633 25.8652452,47.88586 25.8652452,43.92038 C19.1334452,44.13728 11.8478652,44.63723 5.54353821,41.85943 C0.663685214,39.18122 -0.682808786,32.94677 0.301055214,27.82135 C1.14317221,22.03874 4.35787421,16.9035 8.55163521,12.94844 C14.0089552,7.11115 20.9688452,3.1706 28.2350852,0 C35.6521452,3.22422 42.7654852,7.29373 48.2920152,13.28492 C53.2699052,17.96288 56.5865752,24.57442 56.4846752,31.49669 C56.5926452,36.49318 53.4976152,41.77313 48.3925252,42.86343 C42.6814152,44.44498 36.9011152,44.16439 31.0382952,43.92038 C31.0382952,47.88586 31.0382952,48.16633 31.0382952,52.13178 C34.4869752,52.13178 37.6476452,52.13178 41.0963552,52.13178 C41.0963552,53.80001 41.1887552,55.00485 41.1887552,56.67308 C33.2918952,56.61748 23.8528752,56.61748 15.3234952,56.67308 C15.3235152,55.00485 15.2311152,53.80001 15.2311152,52.13178 Z"/></svg>