<svg xmlns="http://www.w3.org/2000/svg" width="433" height="413" viewBox="0 0 433 413"><path fill="#F7F7F7" fill-opacity=".5" d="M425.705396,199.582725 C422.115396,197.483725 418.677396,195.126725 415.399396,192.567725 C408.752396,187.378725 402.735396,181.361725 397.522396,174.734725 C392.456396,168.293725 388.027396,161.198725 385.061396,153.536725 C382.121396,145.944725 380.934396,137.744725 380.708396,129.638725 C380.266396,113.803725 383.406396,97.4827255 390.397396,83.2237255 C391.228396,82.3097255 391.516396,81.0397255 391.207396,79.8697255 C390.429396,76.0917255 386.521396,77.1377255 383.815396,77.4567255 C379.217396,77.9997255 374.575396,78.1647255 369.948396,78.0117255 C361.004396,77.7127255 352.079396,76.2407255 343.504396,73.6807255 C335.676396,71.3477255 327.980396,68.1037255 321.201396,63.5037255 C314.797396,59.1577255 309.354396,53.4607255 304.659396,47.3427255 C298.370396,39.1497255 293.318396,29.9607255 289.719396,20.2817255 C287.885396,15.3497255 286.433396,10.2687255 285.474396,5.09272546 C285.143396,3.31272546 285.053396,1.43672546 283.294396,0.463725463 C281.862396,-0.323274537 280.173396,-0.036274537 278.994396,1.05772546 L278.994396,1.05672546 C266.930396,13.1307255 251.071396,21.7747255 234.627396,26.1657255 C226.960396,28.2117255 219.016396,29.3047255 211.082396,28.6317255 C202.483396,27.9027255 194.016396,25.5767255 186.024396,22.3717255 C178.153396,19.2147255 170.633396,15.1287255 163.757396,10.1597255 C160.354396,7.70072546 157.108396,5.01972546 154.084396,2.10472546 C153.178396,1.23072546 152.358396,0.242725463 151.035396,0.041725463 C149.639396,-0.178274537 148.164396,0.486725463 147.410396,1.68172546 C146.695396,2.80572546 146.688396,4.33872546 146.445396,5.60472546 C146.016396,7.83472546 145.497396,10.0477255 144.895396,12.2377255 C143.728396,16.4877255 142.257396,20.6527255 140.530396,24.7057255 C137.103396,32.7527255 132.680396,40.4027255 127.354396,47.3417255 C122.833396,53.2327255 117.620396,58.7317255 111.522396,63.0107255 C105.164396,67.4727255 97.9263957,70.6747255 90.5533957,73.0447255 C82.3913957,75.6697255 73.8893957,77.2807255 65.3363957,77.8457255 C60.9223957,78.1377255 56.4873957,78.1427255 52.0753957,77.8227255 C49.8603957,77.6617255 47.6503957,77.4177255 45.4553957,77.0837255 C43.6943957,76.8157255 41.9833957,77.2407255 41.1223957,78.9587255 C39.7883957,80.2877255 39.8763957,82.0367255 40.6713957,83.6037255 C41.6483957,85.5297255 42.5463957,87.4957255 43.3713957,89.4917255 C44.9763957,93.3737255 46.3063957,97.3677255 47.3853957,101.426725 C49.5103957,109.421725 50.6933957,117.682725 50.8873957,125.952725 C51.0823957,134.281725 50.3493957,142.783725 47.9263957,150.784725 C45.6293957,158.367725 41.7103957,165.438725 37.1643957,171.894725 C28.5323957,184.152725 17.1173957,194.785725 3.9523957,202.022725 L3.6453957,202.022725 C1.7203957,202.022725 0.178395696,203.551725 0.0503956955,205.411725 C0.0413956955,205.539725 0.0393956955,205.670725 0.0443956955,205.801725 C0.0113956955,206.018725 0,206.226725 0,206.426725 C0.0493956955,209.471725 4.1033957,210.621725 6.3133957,211.910725 C9.9063957,214.004725 13.3473957,216.358725 16.6273957,218.914725 C23.2793957,224.097725 29.3023957,230.108725 34.5223957,236.730725 C39.5943957,243.165725 44.0303957,250.255725 47.0043957,257.916725 C49.9623957,265.533725 51.1563957,273.766725 51.3853957,281.903725 C51.8233957,297.519725 48.7733957,313.594725 41.9933957,327.709725 C40.6903957,328.790725 40.3213957,330.611725 41.0663957,332.096725 C42.4023957,335.837725 47.1833957,334.090725 50.0153957,333.809725 C54.6313957,333.352725 59.2833957,333.266725 63.9143957,333.495725 C72.8293957,333.937725 81.7033957,335.531725 90.2163957,338.211725 C97.8893957,340.627725 105.438396,343.938725 112.013396,348.620725 C118.382396,353.157725 123.790396,359.009725 128.444396,365.260725 C137.585396,377.541725 144.246396,392.069725 146.883396,407.189725 C146.695396,408.705725 147.494396,410.179725 148.874396,410.860725 C150.051396,411.514725 151.520396,411.502725 152.651396,410.751725 C152.724396,410.751725 153.179396,410.327725 153.218396,410.287725 L153.218396,410.286725 C161.407396,402.075725 171.320396,395.589725 181.856396,390.801725 C192.528396,385.949725 204.372396,382.436725 216.180396,382.436725 L216.193396,382.436725 L216.231396,382.436725 C227.711396,382.423725 239.225396,385.741725 249.654396,390.346725 C260.188396,394.995725 270.101396,401.352725 278.376396,409.388725 C279.110396,410.713725 280.611396,411.435725 282.117396,411.188725 C283.464396,411.046725 284.645396,410.145725 285.129396,408.879725 C285.129396,408.877725 285.129396,408.877725 285.129396,408.876725 C285.180396,408.740725 285.316396,408.316725 285.316396,408.170725 L285.315396,408.168725 C288.024396,391.020725 295.982396,374.414725 307.022396,361.073725 C311.868396,355.218725 317.439396,349.946725 323.958396,345.992725 C331.135396,341.637725 339.098396,338.588725 347.202396,336.475725 C354.522396,334.567725 362.055396,333.429725 369.614396,333.136725 C373.481396,332.985725 377.359396,333.058725 381.215396,333.384725 C383.227396,333.555725 385.233396,333.795725 387.228396,334.112725 C388.690396,334.343725 390.175396,333.627725 390.916396,332.346725 C392.296396,330.794725 391.818396,329.074725 390.992396,327.415725 C390.031396,325.483725 389.147396,323.516725 388.336396,321.517725 C386.760396,317.633725 385.457396,313.638725 384.401396,309.582725 C382.326396,301.600725 381.186396,293.359725 381.032396,285.114725 C380.877396,276.767725 381.652396,268.240725 384.158396,260.245725 C386.536396,252.657725 390.512396,245.592725 395.114396,239.141725 C403.815396,226.950725 415.276396,216.384725 428.478396,209.244725 C430.405396,209.182725 431.980396,207.563725 431.980396,205.634725 C431.999518,205.483725 431.999518,205.332725 431.999518,205.181725 C431.999518,201.958725 427.967396,200.904725 425.705396,199.582725 Z M279.209396,22.5507255 C279.209396,22.5507255 281.094396,17.6797255 282.688396,22.0447255 C285.811396,30.6037255 289.963396,38.7987255 295.047396,46.3527255 C300.649396,54.6727255 307.404396,62.4537255 315.552396,68.3737255 C323.594396,74.1987255 332.947396,78.1707255 342.449396,80.9067255 C351.409396,83.4867255 360.695396,85.2377255 370.021396,85.2377255 C373.675396,85.2377255 371.158396,88.3647255 371.158396,88.3647255 L343.564396,108.427725 C335.211396,109.615725 326.469396,107.823725 318.469396,105.480725 C310.755396,103.222725 302.423396,100.287725 295.867396,95.5177255 C289.557396,90.9627255 284.391396,84.3017255 279.965396,77.9807255 C275.132396,71.0797255 270.603396,63.3017255 268.920396,54.9507255 C268.892396,54.8067255 268.865396,54.6637255 268.837396,54.5207255 L279.209396,22.5507255 Z M337.321396,286.486725 C337.814396,289.787725 335.491396,288.038725 335.491396,288.038725 L317.101396,274.668725 C314.681396,269.829725 314.273396,263.655725 314.078396,258.348725 C313.845396,252.002725 314.322396,245.503725 316.057396,239.375725 C317.765396,233.344725 320.878396,227.738725 324.486396,222.644725 C327.975396,217.718725 332.135396,212.611725 337.226396,209.257725 L359.604396,209.257725 C359.604396,209.257725 362.482396,209.935725 360.402396,212.015725 C356.233396,216.186725 352.492396,220.795725 349.123396,225.623725 C344.950396,231.602725 340.862396,238.135725 338.609396,245.114725 C336.440396,251.884725 335.924396,259.306725 335.787396,266.372725 C335.654396,273.092725 336.049396,279.873725 337.321396,286.486725 Z M95.5173957,284.954725 C97.9483957,275.683725 96.9613957,265.677725 95.7673957,256.219725 C95.2313957,252.013725 94.4783957,247.783725 92.9133957,243.826725 C91.2153957,239.537725 88.9273957,235.472725 86.4823957,231.569725 C82.2833957,224.867725 77.4043957,218.428725 71.7303957,212.861725 C69.2583957,210.390725 73.3453957,209.256725 73.3453957,209.256725 L93.6873957,209.256725 C93.6883957,209.256725 93.6883957,209.256725 93.6893957,209.257725 C98.3923957,211.596725 102.307396,216.380725 105.503396,220.419725 C109.500396,225.471725 113.000396,231.081725 115.235396,237.143725 C117.388396,242.982725 118.173396,249.301725 118.258396,255.498725 C118.341396,261.582725 118.004396,268.266725 115.814396,274.013725 L98.2833957,286.758725 C98.2833957,286.758725 94.3213957,289.516725 95.5173957,284.954725 Z M94.8643957,126.321725 C94.8643957,122.998725 98.6113957,124.755725 98.6113957,124.755725 L114.757396,136.495725 C116.889396,141.580725 117.622396,147.073725 117.866396,152.560725 C118.153396,159.046725 117.698396,165.703725 115.936396,171.973725 C114.237396,178.020725 111.122396,183.641725 107.514396,188.747725 C104.060396,193.634725 99.9653957,198.637725 94.9673957,202.021725 L73.8263957,202.021725 C73.8263957,202.021725 69.0303957,201.986725 72.3433957,198.673725 C76.3863957,194.630725 79.9203957,190.077725 83.1603957,185.379725 C87.2083957,179.510725 91.1693957,173.118725 93.3663957,166.291725 C95.5753957,159.382725 96.0683957,151.788725 96.1753957,144.580725 C96.2653957,138.479725 95.9133957,132.339725 94.8643957,126.321725 Z M307.375396,265.280725 C307.885396,267.907725 305.480396,266.221725 305.480396,266.221725 L294.951396,258.563725 C290.754396,250.259725 290.954396,239.354725 293.753396,230.668725 C296.476396,222.207725 302.302396,213.857725 310.024396,209.255725 L322.532396,209.255725 C322.532396,209.255725 325.903396,209.793725 323.379396,212.317725 C316.953396,218.741725 312.365396,227.175725 309.590396,235.770725 C306.587396,245.124725 306.108396,255.509725 307.375396,265.280725 Z M125.198396,263.644725 C126.106396,254.513725 125.428396,244.957725 122.592396,236.282725 C119.803396,227.815725 114.838396,219.870725 108.884396,213.124725 C105.606396,209.846725 110.356396,209.256725 110.356396,209.256725 L121.070396,209.256725 C128.744396,213.206725 134.639396,221.255725 137.707396,229.156725 C141.168396,238.072725 141.638396,249.136725 137.801396,258.028725 L127.835396,265.274725 C127.834396,265.274725 124.791396,267.725725 125.198396,263.644725 Z M124.878396,148.671725 C124.878396,144.096725 128.044396,146.155725 128.044396,146.155725 L136.931396,152.616725 C141.165396,160.758725 141.022396,171.567725 138.403396,180.162725 C135.772396,188.791725 129.930396,197.284725 122.142396,202.021725 L110.959396,202.021725 C110.959396,202.021725 105.851396,201.798725 108.983396,198.666725 C115.404396,192.245725 119.898396,183.726725 122.551396,175.108725 C125.137396,166.706725 125.743396,157.504725 124.878396,148.671725 Z M284.500396,164.572725 C284.500396,170.633725 284.884396,176.752725 286.766396,182.509725 C288.831396,188.822725 291.976396,194.959725 296.674396,199.658725 C298.880396,201.866725 295.227396,202.022725 295.227396,202.022725 L283.002396,202.022725 C277.621396,199.115725 274.623396,193.843725 272.669396,188.240725 C270.546396,182.154725 269.291396,175.480725 272.033396,169.376725 L281.369396,162.588725 C281.370396,162.588725 284.500396,160.853725 284.500396,164.572725 Z M284.807396,248.098725 C285.371396,251.632725 282.696396,249.654725 282.696396,249.654725 L272.435396,242.193725 C269.547396,236.305725 270.467396,229.826725 272.411396,223.799725 C274.266396,218.032725 277.107396,212.419725 282.509396,209.256725 L295.408396,209.256725 C295.408396,209.256725 298.738396,209.301725 296.303396,211.737725 C286.964396,221.075725 282.703396,234.945725 284.807396,248.098725 Z M263.352396,235.589725 L232.518396,213.170725 C231.483396,211.395725 231.032396,210.280725 233.744396,209.255725 L271.721396,209.255725 C268.956396,212.777725 267.090396,216.850725 265.689396,221.086725 C264.145396,225.742725 263.072396,230.657725 263.352396,235.589725 Z M168.759396,232.024725 C168.759396,228.551725 167.660396,225.152725 166.579396,221.854725 C165.725396,219.251725 164.704396,216.710725 163.415396,214.315725 C160.627396,209.558725 166.535396,209.256725 166.535396,209.256725 L199.656396,209.256725 C201.374396,209.769725 201.814396,211.137725 200.533396,212.419725 L171.981396,233.177725 C171.982396,233.176725 168.759396,235.899725 168.759396,232.024725 Z M147.528396,247.198725 C148.433396,241.064725 147.205396,234.735725 145.275396,228.844725 C143.479396,223.380725 140.662396,218.245725 137.069396,213.744725 C133.553396,210.229725 137.602396,209.256725 137.602396,209.256725 L148.897396,209.256725 C154.346396,212.144725 157.388396,217.448725 159.364396,223.097725 C161.477396,229.135725 162.744396,235.758725 160.075396,241.834725 L150.975396,248.450725 C150.975396,248.450725 147.034396,250.546725 147.528396,247.198725 Z M136.630396,198.512725 C144.470396,188.760725 148.287396,176.266725 147.197396,163.783725 C147.197396,160.250725 151.156396,162.959725 151.156396,162.959725 L159.485396,169.016725 C162.444396,174.932725 161.538396,181.462725 159.588396,187.539725 C157.753396,193.257725 154.949396,198.847725 149.623396,202.022725 L138.565396,202.022725 C138.565396,202.022725 133.703396,201.440725 136.630396,198.512725 Z M168.610396,179.372725 C168.610396,176.042725 171.146396,177.492725 171.146396,177.492725 L201.429396,199.510725 L201.429396,199.510725 C202.779396,200.859725 202.640396,201.328725 200.018396,202.022725 L166.292396,202.022725 C166.292396,202.022725 160.506396,202.444725 162.814396,198.304725 C164.240396,195.748725 165.390396,193.039725 166.312396,190.243725 C167.473396,186.731725 168.364396,183.073725 168.610396,179.372725 Z M263.366396,180.152725 C263.366396,183.338725 264.462396,186.442725 265.454396,189.475725 C266.930396,193.989725 268.909396,198.318725 271.911396,202.022725 L232.298396,202.022725 C230.851396,201.359725 230.031396,200.397725 231.805396,198.626725 L259.484396,178.502725 C259.483396,178.502725 263.366396,175.319725 263.366396,180.152725 Z M228.543396,155.282725 L217.580396,189.070725 C216.262396,190.388725 215.862396,190.373725 214.376396,188.888725 L214.376396,188.888725 L203.696396,155.975725 C203.696396,155.975725 202.097396,150.847725 206.202396,152.630725 C209.215396,153.939725 212.706396,153.618725 216.008396,153.619725 C219.696396,153.618725 223.377396,153.295725 226.926396,152.353725 C229.704396,151.209725 228.543396,155.282725 228.543396,155.282725 Z M214.463396,222.119725 L214.463396,222.119725 C215.768396,220.816725 215.750396,220.647725 217.710396,222.606725 L217.710396,222.606725 L229.776396,259.797725 C225.399396,258.184725 220.777396,257.660725 216.129396,257.659725 L216.062396,257.659725 C211.340396,257.664725 206.645396,258.203725 202.212396,259.879725 L214.463396,222.119725 Z M255.690396,172.318725 L227.377396,192.901725 L227.377396,192.901725 C225.153396,193.764725 224.779396,192.395725 224.779396,190.322725 L224.779396,190.322725 L235.688396,156.697725 C235.688396,156.697725 235.792396,153.560725 238.897396,156.666725 C241.323396,159.092725 243.773396,161.516725 246.545396,163.526725 C249.386396,165.587725 252.409396,167.425725 255.657396,168.739725 C258.999396,169.533725 255.690396,172.318725 255.690396,172.318725 Z M236.697396,130.150725 L233.165396,141.035725 C228.477396,145.355725 222.173396,146.386725 216.009396,146.386725 C209.843396,146.386725 203.537396,145.355725 198.851396,141.034725 L195.593396,130.992725 C195.593396,130.992725 194.021396,125.770725 198.344396,127.805725 C209.699396,132.223725 222.384396,132.207725 233.736396,127.778725 C237.180396,126.494725 236.697396,130.150725 236.697396,130.150725 Z M193.031396,156.733725 C194.986396,153.018725 196.509396,157.256725 196.509396,157.256725 L207.524396,191.206725 C207.524396,193.675725 206.453396,193.032725 204.819396,193.032725 L204.819396,193.032725 L175.784396,171.923725 C175.784396,171.923725 173.166396,169.895725 176.347396,168.746725 C179.816396,167.493725 182.938396,165.402725 185.907396,163.209725 C188.502396,161.291725 190.941396,159.170725 193.031396,156.733725 Z M177.256396,238.283725 L205.200396,217.966725 C206.980396,217.966725 207.248396,218.505725 207.248396,220.917725 L207.248396,220.917725 L196.447396,254.209725 C196.447396,254.209725 195.316396,257.688725 193.151396,254.613725 C191.181396,251.816725 188.278396,249.784725 185.510396,247.782725 C182.759396,245.791725 179.839396,244.010725 176.711396,242.709725 C173.255396,241.957725 177.256396,238.283725 177.256396,238.283725 Z M195.310396,281.158725 L198.815396,270.352725 C203.508396,265.956725 209.854396,264.897725 216.067396,264.893723 L216.079396,264.893723 L216.130396,264.893723 C222.226396,264.891725 228.469396,265.905725 233.133396,270.139725 L236.802396,281.451725 C236.802396,281.451725 238.026396,285.266725 234.743396,283.853725 C228.857396,281.407725 222.496396,280.084725 216.120396,280.082725 L216.083396,280.082725 C209.817396,280.092725 203.555396,281.374725 197.754396,283.752725 C193.660396,285.386725 195.310396,281.158725 195.310396,281.158725 Z M236.682396,257.645725 L224.956396,221.499725 L224.956396,221.499725 C224.956396,219.443725 225.662396,218.884725 228.075396,218.884725 L228.075396,218.884725 L259.002396,241.369725 C254.301396,242.662725 250.050396,245.158725 246.153396,248.040725 C242.504396,250.741725 239.186396,253.839725 236.682396,257.645725 Z M277.418396,156.520725 L267.938396,163.412725 C261.380396,164.224725 255.458396,161.131725 250.339396,157.339725 C245.527396,153.774725 241.267396,149.323725 240.044396,143.267725 L244.216396,130.406725 C244.216396,130.406725 245.256396,127.338725 246.910396,131.494725 C251.712396,143.557725 264.381396,150.577725 277.252396,153.351725 C280.338396,153.351725 277.418396,156.520725 277.418396,156.520725 Z M245.249396,103.789725 L241.694396,114.744725 C234.986396,120.916725 224.992396,123.967725 216.007396,123.963729 C207.020396,123.967725 197.027396,120.915725 190.319396,114.743725 L186.992396,104.489725 C186.992396,104.489725 186.184396,99.8537255 190.120396,101.677725 C198.160396,105.404725 207.222396,107.321725 216.008396,107.327725 C225.233396,107.314725 234.628396,104.908725 243.113396,101.152725 C246.825396,99.8527255 245.249396,103.789725 245.249396,103.789725 Z M155.874396,153.043725 C167.682396,149.986725 177.975396,142.539725 184.589396,132.298725 C186.064396,128.545725 188.508396,132.599725 188.508396,132.599725 L191.970396,143.267725 C190.753396,149.325725 186.488396,153.777725 181.676396,157.340725 C176.556396,161.132725 170.636396,164.223725 164.076396,163.411725 L154.703396,156.596725 C154.703396,156.596725 150.620396,153.740725 155.874396,153.043725 Z M168.476396,139.214725 C161.092396,144.719725 150.919396,148.281725 141.643396,147.101725 L132.659396,140.568725 C132.659396,140.568725 128.920396,136.970725 132.684396,136.970725 C142.135396,136.970725 151.155396,131.357725 158.693396,125.756725 C165.874396,120.421725 171.865396,113.212725 176.426396,105.450725 C177.625396,102.503725 179.896396,106.050725 179.896396,106.050725 L183.441396,116.978725 C181.665396,125.748725 175.551396,133.938725 168.476396,139.214725 Z M132.396396,270.901725 L141.507396,264.277725 C150.655396,263.000725 160.770396,266.483725 168.128396,271.808725 C175.374396,277.049725 181.597396,285.286725 183.494396,294.140725 L180.119396,304.541725 C180.119396,304.541725 178.108396,310.702725 176.616396,306.024725 C173.815396,297.242725 165.797396,290.665725 158.373396,285.285725 C150.987396,279.952725 142.054396,276.378725 133.071396,274.451725 C128.951396,273.784725 132.396396,270.901725 132.396396,270.901725 Z M184.829396,279.259725 C178.005396,268.565725 167.239396,260.952725 154.958396,258.061725 C151.192396,257.056725 154.628396,254.736725 154.628396,254.736725 L163.981396,247.937725 C170.391396,247.086725 176.213396,249.979725 181.271396,253.643725 C186.227396,257.225725 190.709396,261.718725 192.004396,267.905725 L188.377396,279.086725 C188.377396,279.086725 186.426396,282.493725 184.829396,279.259725 Z M186.544396,308.171725 L190.267396,296.697725 C196.944396,290.409725 207.065396,287.321725 216.091396,287.314719 L216.115396,287.314719 L216.119396,287.314719 C225.054396,287.309725 234.913396,290.323725 241.643396,296.376725 L245.411396,307.988725 C245.411396,307.988725 247.185396,312.633725 242.960396,309.990725 C234.553396,306.314719 225.272396,303.958725 216.150396,303.952725 L216.106396,303.952725 C206.640396,303.973725 196.984396,306.515725 188.328396,310.455725 C184.496396,312.030725 186.544396,308.171725 186.544396,308.171725 Z M246.898396,279.906725 C246.224396,281.007725 243.780396,279.525725 243.780396,279.525725 L240.081396,268.117725 C241.262396,261.999725 245.542396,257.501725 250.390396,253.905725 C255.467396,250.138725 261.336396,247.050725 267.847396,247.799725 L278.186396,255.316725 C278.186396,255.316725 280.581396,257.896725 277.353396,257.896725 C264.692396,260.860725 253.679396,268.826725 246.898396,279.906725 Z M263.607396,272.017725 C270.956396,266.528725 281.005396,263.005725 290.243396,264.083725 L300.116396,271.261725 C300.116396,271.261725 303.365396,273.421725 299.959396,274.105725 C290.526396,275.999725 281.082396,279.750725 273.402396,285.467725 C266.046396,290.944725 259.923396,298.401725 255.330396,306.401725 C253.455396,310.463725 252.443396,306.219725 252.443396,306.219725 L248.628396,294.463725 C250.314396,285.620725 256.502396,277.325725 263.607396,272.017725 Z M322.533396,202.022725 L310.768396,202.022725 C303.048396,197.921725 297.147396,189.783725 294.151396,181.724725 C290.861396,172.873725 290.463396,161.894725 294.354396,153.148725 L303.988396,146.144725 C303.988396,146.144725 307.343396,145.543725 306.809396,148.422725 C305.176396,157.228725 306.701396,166.640725 309.456396,175.093725 C312.406396,184.079725 317.509396,192.755725 324.230396,199.479725 C326.717396,201.966725 322.533396,202.022725 322.533396,202.022725 Z M295.252396,128.408725 C289.169396,126.542725 283.142396,123.951725 277.972396,120.196725 C273.013396,116.612725 268.834396,111.931725 265.270396,106.987725 C261.867396,102.266725 258.344396,96.7947255 256.984396,91.0607255 L264.034396,69.3267255 C264.034396,69.3267255 265.182396,66.1477255 266.251396,68.9947255 C269.390396,75.5077255 273.400396,81.6017255 277.868396,87.2777255 C282.121396,92.6837255 286.883396,98.2367255 292.648396,102.084725 C298.342396,105.886725 304.880396,108.568725 311.330396,110.792725 C316.966396,112.736725 322.760396,114.499725 328.693396,115.208725 C333.112396,115.736725 329.908396,118.358725 329.908396,118.358725 L312.433396,131.062725 C306.765396,131.658725 300.626396,130.056725 295.252396,128.408725 Z M255.760396,105.735725 C259.650396,113.918725 266.445396,120.765725 273.725396,126.051725 C281.225396,131.479725 290.280396,135.045725 299.385396,136.981725 C302.881396,136.981725 299.870396,140.195725 299.870396,140.195725 L290.371396,147.101725 C281.260396,148.259725 271.282396,144.833725 263.957396,139.518725 C256.677396,134.243725 250.385396,125.906725 248.574396,116.974725 L252.123396,106.036725 C252.123396,106.037725 253.938396,101.901725 255.760396,105.735725 Z M256.099396,70.3467255 L250.102396,88.8297255 C245.853396,92.4797255 240.149396,94.7637255 234.913396,96.5637255 C228.864396,98.6437255 222.431396,100.098725 216.009396,100.092771 C209.890396,100.101725 203.760396,98.7667255 197.972396,96.8567255 C192.444396,95.0327255 186.382396,92.6697255 181.913396,88.8267255 L175.673396,69.5937255 C175.673396,69.5937255 174.974396,64.8907255 178.336396,66.4927255 C183.488396,68.9477255 188.783396,71.1337255 194.234396,72.8067255 C201.203396,74.9457255 208.673396,76.8327255 216.008396,76.8407255 C223.008396,76.8307255 230.112396,75.0917255 236.786396,73.1087255 C242.209396,71.4967255 247.498396,69.3827255 252.650396,67.0137255 C257.794396,64.6507255 256.099396,70.3467255 256.099396,70.3467255 Z M168.542396,71.0587255 L175.032396,91.0637255 C173.737396,96.5127255 170.459396,101.709725 167.277396,106.240725 C163.601396,111.475725 159.248396,116.428725 154.045396,120.195725 C149.060396,123.819725 143.267396,126.354725 137.412396,128.204725 C131.860396,129.959725 125.474396,131.675725 119.595396,131.071725 L103.593396,119.437725 C103.593396,119.437725 99.7463957,116.007725 104.224396,115.046725 C109.834396,113.842725 115.464396,112.603725 120.870396,110.728725 C127.608396,108.391725 134.581396,105.577725 140.394396,101.372725 C145.993396,97.3017255 150.676396,91.7967255 154.879396,86.3427255 C158.632396,81.4717255 162.062396,76.2947255 164.861396,70.8057255 C166.776396,67.1817255 168.542396,71.0587255 168.542396,71.0587255 Z M102.281396,292.796725 L119.421396,280.334725 C124.960396,279.630725 131.075396,281.230725 136.340396,282.801725 C142.457396,284.621725 148.508396,287.173725 153.742396,290.867725 C158.735396,294.392725 162.945396,299.017725 166.546396,303.927725 C170.054396,308.711725 173.603396,314.221725 175.094396,320.030725 L168.658396,339.865725 C168.658396,339.865725 166.896396,343.976725 164.851396,340.234725 C161.759396,334.576725 158.257396,329.122725 154.270396,324.063725 C150.010396,318.663725 145.242396,313.118725 139.475396,309.275725 C133.784396,305.481725 127.249396,302.808725 120.806396,300.592725 C114.920396,298.567725 108.835396,296.950725 102.658396,296.077725 C98.3903957,296.078725 102.281396,292.796725 102.281396,292.796725 Z M175.496396,342.224725 L181.851396,322.638725 C186.066396,318.867725 191.938396,316.553725 197.211396,314.734725 C203.258396,312.650725 209.689396,311.188725 216.111396,311.18668 L216.132396,311.18668 L216.150396,311.18668 C222.263396,311.177725 228.388396,312.507725 234.173396,314.412725 C239.651396,316.215725 245.559396,318.541725 250.041396,322.266725 L256.824396,343.172725 C256.824396,343.172725 258.276396,347.110725 254.567396,345.137725 C249.290396,342.328725 243.657396,340.207725 237.941396,338.458725 C230.970396,336.323725 223.498396,334.442725 216.165396,334.438725 L216.137396,334.438725 C209.137396,334.455725 202.033396,336.200725 195.362396,338.190725 C189.074396,340.065725 182.874396,342.438725 177.076396,345.541725 C173.406396,347.473725 175.496396,342.224725 175.496396,342.224725 Z M263.690396,340.891725 L257.044396,320.400725 C258.208396,315.039725 261.460396,309.883725 264.534396,305.426725 C268.176396,300.148725 272.501396,295.158725 277.661396,291.313725 C282.610396,287.625725 288.374396,285.041725 294.221396,283.143725 C299.858396,281.313725 306.285396,279.584725 312.270396,280.097725 L329.775396,292.823725 C329.775396,292.823725 332.661396,295.122725 329.195396,295.919725 C323.004396,297.343725 316.717396,298.523725 310.739396,300.634725 C304.071396,302.988725 297.104396,305.804725 291.406396,310.071725 C285.830396,314.246725 281.146396,319.771725 276.944396,325.285725 C273.193396,330.206725 269.769396,335.439725 267.002396,340.987725 C264.787396,345.423725 263.690396,340.891725 263.690396,340.891725 Z M359.785396,202.022725 L338.115396,202.022725 C333.369396,199.483725 329.458396,194.738725 326.205396,190.559725 C322.258396,185.486725 318.800396,179.853725 316.646396,173.772725 C314.577396,167.923725 313.846396,161.609725 313.805396,155.430725 C313.765396,149.424725 314.118396,142.791725 316.361396,137.147725 L334.080396,124.265725 C334.080396,124.265725 337.091396,122.606725 336.538396,126.660725 C335.251396,136.102725 335.126396,145.836725 336.308396,155.234725 C336.839396,159.424725 337.588396,163.636725 339.144396,167.579725 C340.837396,171.871725 343.121396,175.938725 345.564396,179.844725 C349.940396,186.845725 355.180396,193.426725 361.044396,199.288725 C364.118396,202.361725 359.785396,202.022725 359.785396,202.022725 Z M165.318396,19.9047255 C172.092396,23.4357255 178.673396,27.3767255 185.825396,30.0467255 C195.436396,33.6337255 205.705396,36.0687255 216.009396,36.0787255 C226.312396,36.0697255 236.581396,33.6337255 246.193396,30.0467255 C254.586396,26.9137255 262.337396,22.3277255 270.026396,17.7217255 C273.920396,15.3897255 272.230396,20.6277255 272.230396,20.6277255 L261.952396,52.3087255 C255.822396,58.1007255 247.686396,61.7477255 239.823396,64.5217255 C232.259396,67.1907255 223.787396,69.7147255 215.691396,69.6057255 C207.822396,69.5007255 199.712396,67.1587255 192.339396,64.5727255 C184.544396,61.8387255 176.509396,58.2397255 170.370396,52.5807255 C170.266396,52.4827255 170.161396,52.3867255 170.057396,52.2887255 L161.010396,24.4017255 C161.010396,24.4017255 158.878396,16.5477255 165.318396,19.9047255 Z M65.9403957,85.0527255 C74.3023957,85.0527255 82.5713957,82.9987255 90.5803957,80.6107255 C97.8473957,78.4387255 104.945396,75.5367255 111.471396,71.6497255 C117.542396,68.0347255 122.910396,63.4337255 127.674396,58.2277255 C136.184396,48.9267255 143.187396,38.0127255 147.742396,26.2057255 C150.560396,18.9007255 154.166396,26.7467255 154.166396,26.7467255 L163.173396,54.5087255 C161.633396,62.7517255 157.253396,70.4217255 152.555396,77.2547255 C148.024396,83.8467255 142.688396,90.7887255 136.150396,95.5177255 C129.720396,100.194725 121.577396,103.087725 114.024396,105.339725 C105.886396,107.766725 96.9643957,109.640725 88.4523957,108.428725 L65.9083957,92.0377255 C65.9063957,92.0367255 58.5163957,85.0527255 65.9403957,85.0527255 Z M23.5343957,197.284725 C28.2613957,193.464725 32.4983957,189.113725 36.3623957,184.646725 C46.9673957,172.363725 54.9743957,157.984725 57.2483957,141.769725 C59.1613957,128.125725 57.9403957,113.942725 54.6343957,100.476725 C52.1873957,90.5097255 59.5593957,96.3637255 59.5593957,96.3637255 L83.4593957,113.740725 C83.9743957,115.364725 84.8993957,116.886725 85.4723957,118.506725 C86.2023957,120.572725 86.7723957,122.696725 87.2293957,124.839725 C88.1593957,129.191725 88.6413957,133.637725 88.8453957,138.080725 C89.2253957,146.319725 88.9793957,155.106725 86.7703957,163.104725 C84.7523957,170.415725 80.1213957,177.312725 75.7123957,183.384725 C70.7323957,190.244725 64.8763957,196.992725 57.6463957,201.556725 C57.3953957,201.715725 57.1403957,201.870725 56.8843957,202.023725 L25.4233957,202.023725 C25.4233957,202.022725 16.9243957,202.626725 23.5343957,197.284725 Z M55.5103957,311.052725 C59.4163957,297.797725 59.6713957,283.434725 57.5623957,269.850725 C55.0903957,253.928725 47.0163957,239.819725 36.5033957,227.802725 C32.6833957,223.442725 28.4363957,219.283725 23.8513957,215.471725 C17.2863957,211.124725 25.0623957,209.255725 25.0623957,209.255725 L55.0403957,209.255725 C58.3583957,211.238725 61.4513957,213.239725 64.3393957,215.844725 C67.5643957,218.750725 70.4953957,221.977725 73.2113957,225.361725 C78.4263957,231.857725 83.4283957,239.162725 86.3843957,246.999725 C87.6593957,250.378725 88.2173957,254.036725 88.6493957,257.604725 C89.1853957,262.044725 89.4063957,266.526725 89.3613957,270.998725 C89.2763957,279.528725 88.4233957,288.593725 84.9233957,296.473725 L60.5813957,314.170725 C60.5813957,314.170725 53.0913957,319.263725 55.5103957,311.052725 Z M148.387396,386.323725 C145.442396,378.644725 141.466396,371.367725 136.839396,364.578725 C131.287396,356.429725 124.617396,348.817725 116.603396,343.008725 C108.427396,337.100725 98.9023957,333.097725 89.2323957,330.369725 C81.8683957,328.292725 74.3103957,326.422725 66.6583957,326.422725 C58.1553957,326.422725 64.5363957,320.239725 64.5363957,320.239725 L88.2213957,303.019725 C96.4963957,301.736725 105.223396,303.488725 113.172396,305.765725 C121.049396,308.020725 129.570396,310.986725 136.260396,315.844725 C142.574396,320.392725 147.747396,327.048725 152.180396,333.365725 C157.038396,340.287725 161.595396,348.096725 163.268396,356.482725 L153.816396,385.614725 C153.815396,385.614725 151.103396,393.405725 148.387396,386.323725 Z M266.628396,391.162725 C260.066396,387.478725 253.451396,383.842725 246.406396,381.217725 C236.798396,377.638725 226.534396,375.210725 216.236396,375.202725 L216.176396,375.202725 C205.873396,375.222725 195.607396,377.667725 185.998396,381.264725 C178.590396,384.037725 171.418396,387.527725 164.802396,391.871725 C158.335396,396.117725 160.618396,388.080725 160.618396,388.080725 L169.972396,359.250725 C175.984396,353.426725 184.062396,349.754725 191.846396,346.955725 C199.469396,344.214725 207.972396,341.673654 216.143396,341.673654 L216.165396,341.673654 C223.949396,341.658725 232.040396,344.004725 239.338396,346.517725 C247.329396,349.269725 255.597396,352.915725 261.869396,358.721725 L271.412396,388.137725 C271.413396,388.136725 273.527396,395.032725 266.628396,391.162725 Z M366.701396,326.051725 C358.187396,326.051725 349.765396,328.092725 341.607396,330.530725 C334.180396,332.754725 326.925396,335.741725 320.283396,339.762725 C314.235396,343.424725 308.896396,348.083725 304.163396,353.322725 C295.758396,362.626725 288.636396,373.424725 284.352396,385.257725 C281.664396,392.681725 278.119396,385.361725 278.119396,385.361725 L268.929396,357.037725 C270.386396,348.681725 274.849396,340.873725 279.589396,333.964725 C284.113396,327.367725 289.444396,320.418725 295.978396,315.684725 C302.267396,311.094725 310.210396,308.242725 317.592396,305.992725 C325.793396,303.491725 334.744396,301.575725 343.345396,302.690725 L368.463396,320.953725 C368.462396,320.953725 373.166396,326.051725 366.701396,326.051725 Z M410.393396,212.632725 C405.141396,217.126725 400.026396,221.750725 395.632396,226.819725 C385.002396,239.104725 376.978396,253.489725 374.694396,269.721725 C372.738396,283.640725 373.938396,298.143725 377.497396,311.822725 C379.856396,320.890725 371.783396,314.425725 371.783396,314.425725 L348.349396,297.388725 C348.312396,297.298725 348.288396,297.204725 348.243396,297.116725 L348.243396,297.115725 C344.323396,289.497725 343.311396,280.383725 343.047396,271.939725 C342.796396,263.898725 342.989396,255.055725 345.494396,247.332725 C347.862396,239.919725 352.589396,232.939725 357.222396,226.767725 C362.229396,220.097725 368.133396,213.478725 375.425396,209.257725 L408.976396,209.257725 C408.976396,209.255725 415.031396,208.663725 410.393396,212.632725 Z M410.690396,202.022725 L376.684396,202.022725 C369.264396,198.239725 363.251396,191.719725 358.177396,185.249725 C353.178396,178.876725 348.305396,171.718725 345.539396,164.052725 C344.309396,160.641725 343.780396,156.957725 343.368396,153.371725 C342.858396,148.929725 342.657396,144.447725 342.726396,139.976725 C342.856396,131.479725 343.748396,122.437725 347.336396,114.627725 L374.930396,94.5647255 C374.930396,94.5647255 378.929396,92.2547255 377.438396,97.2467255 C373.197396,111.436725 372.273396,126.809725 374.490396,141.401725 C376.921396,157.402725 384.986396,171.578725 395.534396,183.660725 C400.336396,189.150725 405.814396,194.324725 411.792396,198.887725 C415.145396,201.237725 410.690396,202.022725 410.690396,202.022725 Z" transform="translate(.026 .932)"/></svg>